<?xml version="1.0" encoding="UTF-8"?>
<svg width="219px" height="45px" viewBox="0 0 219 45" version="1.1" xmlns="http://www.w3.org/2000/svg" xmlns:xlink="http://www.w3.org/1999/xlink">
    <!-- Generator: Sketch 49.3 (51167) - http://www.bohemiancoding.com/sketch -->
    <title>logo/sava-dark</title>
    <desc>Created with Sketch.</desc>
    <defs></defs>
    <g id="logo/sava-dark" stroke="none" stroke-width="1" fill="none" fill-rule="evenodd">
        <g id="sava-text" fill="#15093A">
            <path d="M0.642425511,33.3865955 C1.15321643,32.7318579 1.89591846,32.3192576 2.70256063,32.2421091 C3.5092028,32.1649606 4.31164202,32.4297812 4.92839703,32.9766785 C7.50872683,35.1629026 11.969636,37.7590437 16.1681387,37.667951 C19.0983437,37.667951 21.7661423,36.7570243 23.5155184,35.3906342 C25.2648946,34.0242442 26.0521138,32.5212151 26.0521138,30.9726398 C26.0542379,30.2818571 25.872584,29.6039625 25.527301,29.0141474 C25.0827577,28.277911 24.4848722,27.6552549 23.7779249,27.192294 C22.0722831,26.0536356 19.1858125,25.0060699 15.7307946,24.3228749 L15.5995914,24.3228749 C12.9936975,23.8602226 10.4525129,23.0647528 8.03353967,21.9544655 C5.78062338,20.9669929 3.8619131,19.3018237 2.52300485,17.1721003 C1.64004968,15.6624288 1.17115281,13.9296682 1.16723835,12.1620035 C1.16723835,8.47275036 3.1790209,5.33005326 5.89055391,3.23492186 C8.8696399,1.08901103 12.4148979,-0.0409108976 16.0369355,0.00113208699 C21.6786735,0.00113208699 25.8334418,2.87055118 28.8511156,4.92013625 C30.1965364,5.89762419 30.5629956,7.80583304 29.6820693,9.24703806 C29.2595457,9.94264238 28.5885252,10.4344793 27.8171858,10.6139391 C27.0458463,10.7933989 26.2376388,10.6457191 25.5710354,10.2035111 C25.527301,10.2035111 25.527301,10.1579648 25.4835666,10.1579648 C22.4658928,8.06283335 19.5794221,6.24097996 15.9932011,6.24097996 C13.6476885,6.19137767 11.3486097,6.925639 9.43304057,8.33611136 C7.85860206,9.5658624 7.20258601,10.8867061 7.20258601,12.2075498 C7.18153207,12.8108784 7.3175359,13.4089077 7.59619564,13.9383105 C8.01906433,14.5689674 8.55339694,15.1099801 9.17063415,15.5324323 C10.7013383,16.6255443 13.3254025,17.6275637 16.5180139,18.219666 L16.6492171,18.219666 C19.4361616,18.7221644 22.1534036,19.578758 24.7400817,20.7702608 C27.1454739,22.0000118 29.2447253,23.5941335 30.6004918,25.8259039 C31.5178211,27.3891498 32.0021723,29.186139 31.9999927,31.0181861 C31.9999927,34.9351709 29.9007413,38.3055997 26.9268019,40.4918237 C23.7372892,42.8158655 19.9293949,44.0421931 16.0369355,43.9988915 C9.69544699,43.9533452 4.35984979,40.6284627 0.992300738,37.8956827 C-0.183514998,36.6917729 -0.332515096,34.7715043 0.642425511,33.3865955 Z" id="Shape"></path>
            <path d="M63.534837,34.7960236 L48.6588825,34.7960236 L45.6015544,42.8002546 C45.0633907,44.094163 43.8058758,44.9404687 42.4073311,44.9499623 C42.0043922,44.9564784 41.6032571,44.894621 41.2209053,44.7670085 C39.4549401,44.0861239 38.5609626,42.1107017 39.2131077,40.3303776 L52.7657411,4.15125349 C53.2926714,2.8275049 54.58403,1.97066296 56.0055962,2.00154574 C57.4306552,1.95846102 58.728363,2.81951572 59.2454513,4.15125349 L72.7980847,40.376116 C73.4268649,42.1555064 72.5401609,44.1148566 70.7902872,44.8127469 C69.0660854,45.407119 67.179732,44.5421949 66.5009015,42.845993 L63.534837,34.7960236 Z M60.9794583,28.0724695 L56.0055962,14.8540538 L51.0317341,28.0724695 L60.9794583,28.0724695 Z" id="Shape" fill-rule="nonzero"></path>
            <path d="M90.0588171,43.409666 C89.9361484,43.2903713 89.8015753,43.1843176 89.6572667,43.093214 C89.6572667,43.0480066 89.61265,43.0480066 89.61265,42.9123843 C89.4859202,42.8139924 89.3797573,42.6910571 89.300333,42.5507249 C89.2756919,42.5507249 89.2557163,42.5304848 89.2557163,42.5055174 C89.1677404,42.3299055 89.063144,42.1633635 88.9433993,42.0082357 L74.2645013,6.56561279 C73.5640451,4.93021774 74.3026328,3.02896246 75.9153196,2.31611463 C75.9599363,2.31611463 76.0045531,2.2709072 76.0491698,2.2709072 C76.8354559,1.92353114 77.7262935,1.90969195 78.5227204,2.23248051 C79.3191473,2.55526908 79.954817,3.18779544 80.2877573,3.98878944 L80.2877573,4.03399687 L91.9773357,32.1530166 L103.666914,4.03399687 C104.423662,2.35490933 106.363257,1.59286392 108.039352,2.31611463 C109.644658,3.03611441 110.410161,4.90560152 109.779403,6.56561279 L94.9666553,42.0082357 C94.9110303,42.1819862 94.8361938,42.3488065 94.7435718,42.5055174 C94.7435718,42.5507249 94.7435718,42.5507249 94.6989551,42.5507249 C94.6543384,42.6863472 94.4758715,42.776762 94.3866381,42.9123843 C94.2974047,43.0480066 94.3420214,43.0480066 94.252788,43.093214 C94.1189378,43.2288363 94.0297044,43.2740437 93.8958543,43.409666 L93.7620041,43.4548734 C93.6159782,43.5860224 93.4503197,43.6928372 93.2712203,43.7713254 C93.2266036,43.7713254 93.2266036,43.7713254 93.1373702,43.8165328 C92.9650798,43.8188953 92.7962049,43.8655619 92.6465863,43.9521551 L92.5127362,43.9521551 C92.3217401,43.9896537 92.1271282,44.0048221 91.932719,43.9973625 C91.7382791,44.0066318 91.543455,43.9914469 91.3527017,43.9521551 L91.2634683,43.9521551 C91.1081807,43.8803749 90.9424368,43.8345736 90.7726845,43.8165328 C90.7726845,43.7915655 90.7527089,43.7713254 90.7280678,43.7713254 L90.6834511,43.7713254 C90.4917272,43.6722508 90.312049,43.5508793 90.1480505,43.409666 L90.0588171,43.409666 Z" id="Shape" fill-rule="nonzero"></path>
            <path d="M136.44054,34.7851582 L121.559863,34.7851582 L118.54721,42.7979122 C118.008876,44.0931985 116.750962,44.9404054 115.351973,44.949909 C114.963582,44.9599835 114.576685,44.8978889 114.210817,44.7667604 C112.463032,44.0911417 111.57166,42.1403257 112.202382,40.3711924 L125.759318,4.15354419 C126.286415,2.82838604 127.578184,1.97063172 129.000201,2.00154739 C130.425713,1.95841679 131.723832,2.82038836 132.241085,4.15354419 L145.798021,40.3711924 C146.427,42.1524776 145.540015,44.1139141 143.789586,44.8125475 C142.064837,45.4075525 140.177884,44.5417074 139.498838,42.8436994 L136.44054,34.7851582 Z M133.929996,28.0544448 L128.954555,14.8219539 L124.02476,28.0544448 L133.929996,28.0544448 Z" id="Shape" fill-rule="nonzero"></path>
        </g>
        <g id="sava-logo-dark" transform="translate(156.000000, 0.000000)" fill="#15093A">
            <path d="M50.6538192,5.76507182 C58.8651597,7.16833333 64.2995098,15.8380778 62.7299195,25.0309706 C61.1603294,34.2241635 53.1579678,40.5973345 44.9463274,39.194073 L42.85444,38.8365083 L30.7792391,45 L33.4599854,37.3408559 L12.3459237,33.6227228 C4.14177909,32.1780653 -1.29976684,23.5497169 0.26982338,14.356824 C1.8394136,5.16363117 9.842075,-1.20953992 18.0534155,0.1937216 L50.6538192,5.76507182 Z M14.1962921,11.2308659 C11.2647944,10.7304745 8.4824165,12.6999101 7.98177897,15.6299662 C7.48114143,18.5597248 9.451546,21.3407344 12.3830437,21.8414233 C15.3145413,22.3418146 18.0966216,20.372379 18.5975568,17.4423229 C19.0981944,14.5122669 17.1277898,11.7312572 14.1962921,11.2308659 Z M50.3844841,18.0467006 C47.4529865,17.5463093 44.6706085,19.5157449 44.1699709,22.445801 C43.6693332,25.3755596 45.6397378,28.1568667 48.5712357,28.6572581 C51.5027333,29.1576493 54.2848136,27.1882137 54.7857487,24.2581577 C55.2863863,21.3281016 53.3159818,18.547092 50.3844841,18.0467006 Z M23.3716598,25.8787702 C26.5363389,29.4884362 30.728782,30.5518913 35.8386075,28.6754193 C36.4210663,28.4615238 36.7202051,27.814972 36.5067523,27.231305 C36.2932997,26.647638 35.6480858,26.3478791 35.0656269,26.5617744 C30.8255297,28.1188578 27.6109622,27.3034507 25.0593173,24.3930179 C24.6498872,23.9260176 23.9401834,23.8800361 23.4741496,24.2903153 C23.008116,24.7005945 22.9622297,25.4117699 23.3716598,25.8787702 Z" id="Combined-Shape"></path>
        </g>
    </g>
</svg>