<svg width="135" height="28" viewBox="0 0 135 28" fill="none" xmlns="http://www.w3.org/2000/svg">
<path d="M12.2575 15.608C12.7455 15.744 13.1255 15.992 13.3975 16.352C13.6695 16.704 13.8055 17.144 13.8055 17.672C13.8055 18.416 13.5575 18.992 13.0615 19.4C12.5655 19.8 11.8655 20 10.9615 20H7.40952V11.456H10.8415C11.7135 11.456 12.3895 11.652 12.8695 12.044C13.3575 12.428 13.6015 12.976 13.6015 13.688C13.6015 14.144 13.4815 14.54 13.2415 14.876C13.0095 15.204 12.6815 15.448 12.2575 15.608ZM8.38152 15.248H10.6855C11.3255 15.248 11.8095 15.12 12.1375 14.864C12.4655 14.608 12.6295 14.232 12.6295 13.736C12.6295 12.76 11.9815 12.272 10.6855 12.272H8.38152V15.248ZM10.8775 19.184C11.5495 19.184 12.0415 19.06 12.3535 18.812C12.6735 18.556 12.8335 18.168 12.8335 17.648C12.8335 16.6 12.1815 16.076 10.8775 16.076H8.38152V19.184H10.8775ZM18.4854 16.544V20H17.5014V16.532L14.1414 11.456H15.2934L18.0054 15.656L20.7174 11.456H21.8454L18.4854 16.544Z" fill="#7C6A28"/>
<path d="M74.275 23.9804H76.2143V24.324H73.9067V20.7119H76.1532V21.0479H74.275V22.2747H76.0309V22.6107H74.275V23.9804Z" fill="#7C6A28"/>
<path d="M81.5448 22.1531L82.558 20.7119H83.0164L81.7939 22.4222L83.1219 24.324H82.6359L81.5295 22.6898L80.42 24.324H79.9615L81.288 22.4298L80.0655 20.7195H80.5621L81.5448 22.1531Z" fill="#7C6A28"/>
<path d="M87.1227 20.7118H88.1817C88.4912 20.6949 88.7977 20.7793 89.0543 20.952C89.1549 21.0442 89.2352 21.156 89.2901 21.2806C89.345 21.4051 89.3734 21.5397 89.3734 21.6757C89.3734 21.8117 89.345 21.9462 89.2901 22.0708C89.2352 22.1953 89.1549 22.3072 89.0543 22.3993C88.7981 22.5732 88.4914 22.6582 88.1817 22.641H87.4956V24.3133H87.1273L87.1227 20.7118ZM87.491 22.3051H88.0854C88.2262 22.3079 88.3666 22.291 88.5027 22.2549C88.6018 22.228 88.6948 22.182 88.7762 22.1196C88.8439 22.0678 88.8966 21.9991 88.929 21.9204C88.96 21.842 88.9756 21.7584 88.9749 21.6742C88.9753 21.5914 88.9598 21.5093 88.929 21.4324C88.8959 21.3538 88.8433 21.2848 88.7762 21.2318C88.6959 21.1676 88.6026 21.1215 88.5027 21.0965C88.3664 21.0617 88.2261 21.0453 88.0854 21.0478H87.491V22.3051Z" fill="#7C6A28"/>
<path d="M93.908 23.9804H95.8488V24.324H93.5397V20.7119H95.7861V21.0479H93.908V22.2747H95.67V22.6107H93.908V23.9804Z" fill="#7C6A28"/>
<path d="M100.423 24.3242H100.054V20.712H101.172C101.481 20.6953 101.787 20.7797 102.044 20.9522C102.152 21.0378 102.238 21.1482 102.294 21.274C102.349 21.3998 102.373 21.5372 102.364 21.6744C102.369 21.9081 102.284 22.135 102.127 22.3083C101.944 22.4933 101.698 22.6021 101.437 22.6124L102.48 24.3242H102.03L101.037 22.6519H100.426L100.423 24.3242ZM100.423 22.3129H101.078C101.219 22.3157 101.36 22.2988 101.496 22.2627C101.595 22.2354 101.687 22.1895 101.769 22.1274C101.836 22.0751 101.889 22.0066 101.922 21.9282C101.953 21.8498 101.968 21.7662 101.968 21.682C101.968 21.5992 101.953 21.5171 101.922 21.4402C101.888 21.3619 101.836 21.293 101.769 21.2396C101.689 21.1758 101.595 21.1296 101.496 21.1043C101.359 21.0695 101.219 21.0531 101.078 21.0556H100.423V22.3129Z" fill="#7C6A28"/>
<path d="M106.938 24.324H106.569V20.7119H106.938V24.324Z" fill="#7C6A28"/>
<path d="M111.768 23.9804H113.703V24.324H111.395V20.7119H113.642V21.0479H111.768V22.2747H113.523V22.6107H111.768V23.9804Z" fill="#7C6A28"/>
<path d="M120.534 23.7661H120.545V20.7119H120.913V24.324H120.454L118.287 21.2318V24.324H117.919V20.7119H118.378L120.534 23.7661Z" fill="#7C6A28"/>
<path d="M128.358 23.7463C128.293 23.8417 128.217 23.929 128.131 24.0062C128.038 24.0893 127.936 24.1603 127.825 24.2176C127.705 24.2777 127.579 24.3246 127.449 24.3574C127.31 24.3915 127.166 24.4083 127.023 24.4076C126.766 24.4103 126.51 24.3617 126.272 24.2647C126.048 24.1749 125.843 24.0407 125.672 23.87C125.501 23.6994 125.367 23.4959 125.278 23.272C125.085 22.7833 125.085 22.2403 125.278 21.7517C125.367 21.5278 125.501 21.3243 125.672 21.1536C125.843 20.983 126.048 20.8487 126.272 20.759C126.51 20.662 126.766 20.6134 127.023 20.6161C127.254 20.6173 127.484 20.6622 127.698 20.7483C127.927 20.8396 128.127 20.9909 128.276 21.1862L127.949 21.4355C127.906 21.3715 127.854 21.3133 127.796 21.2622C127.728 21.2033 127.653 21.1523 127.573 21.1102C127.487 21.0655 127.397 21.0298 127.304 21.0037C127.211 20.9767 127.115 20.9629 127.018 20.9627C126.803 20.9592 126.59 21.0028 126.393 21.0904C126.215 21.1696 126.055 21.2857 125.926 21.4309C125.796 21.5759 125.696 21.7441 125.631 21.9265C125.494 22.3106 125.494 22.7297 125.631 23.1138C125.696 23.2964 125.796 23.4647 125.926 23.6094C126.056 23.7548 126.215 23.8713 126.393 23.9515C126.59 24.0379 126.803 24.0809 127.018 24.0777C127.113 24.0782 127.208 24.0695 127.301 24.0518C127.396 24.0346 127.489 24.006 127.578 23.9667C127.671 23.924 127.757 23.8682 127.834 23.801C127.92 23.7243 127.995 23.6358 128.056 23.538L128.358 23.7463Z" fill="#7C6A28"/>
<path d="M132.825 23.9804H134.765V24.324H132.457V20.7119H134.704V21.0479H132.825V22.2747H134.581V22.6107H132.825V23.9804Z" fill="#7C6A28"/>
<path d="M73.4452 3.77612H74.6678V13.4252H80.7623V14.5486H73.4452V3.77612Z" fill="#7C6A28"/>
<path d="M99.7212 14.5488H98.407L97.1386 11.706H91.2381L89.9544 14.5534H88.7013L93.6359 3.70337H94.7805L99.7212 14.5488ZM94.1998 5.12328L91.7241 10.616H96.6587L94.1998 5.12328Z" fill="#7C6A28"/>
<path d="M111.679 8.57731C114.093 9.10027 115.207 9.97746 115.207 11.6391C115.207 13.5014 113.66 14.7024 111.51 14.7024C109.792 14.7024 108.385 14.1323 107.086 12.9784L107.85 12.086C108.979 13.1016 110.061 13.6063 111.562 13.6063C113.015 13.6063 113.975 12.8462 113.975 11.7592C113.975 10.7437 113.434 10.1751 111.16 9.69773C108.66 9.1626 107.518 8.36143 107.518 6.57665C107.518 4.85421 109.019 3.6228 111.076 3.6228C112.654 3.6228 113.782 4.06824 114.881 4.94542L114.17 5.88494C113.165 5.06856 112.159 4.71434 111.045 4.71434C109.638 4.71434 108.741 5.48511 108.741 6.46872C108.741 7.50097 109.297 8.06954 111.679 8.57731Z" fill="#7C6A28"/>
<path d="M129.462 14.7327C126.167 14.7327 123.96 12.1635 123.96 9.17769C123.96 6.19192 126.204 3.59229 129.498 3.59229C132.793 3.59229 135 6.16151 135 9.14729C135 12.1331 132.757 14.7327 129.462 14.7327ZM129.462 4.71423C126.988 4.71423 125.224 6.69056 125.224 9.14729C125.224 11.604 127.018 13.6092 129.494 13.6092C131.97 13.6092 133.732 11.6329 133.732 9.17769C133.732 6.72249 131.937 4.71271 129.462 4.71271V4.71423Z" fill="#7C6A28"/>
<path d="M35.3332 16.51C35.3164 16.4355 34.9557 14.6675 35.917 13.2035C36.4014 12.4661 37.1548 11.0341 36.7376 9.77985C36.469 9.02165 36.476 8.19377 36.7575 7.44019L37.1395 7.61045L36.9485 7.52532L37.1395 7.60893C36.9073 8.26885 36.9073 8.98768 37.1395 9.64759C37.6118 11.069 36.7987 12.6288 36.2715 13.4315C35.405 14.7465 35.7397 16.4081 35.7443 16.4188L35.3332 16.51Z" fill="#7C6A28"/>
<path d="M41.2932 25.662C41.1847 25.5556 38.6188 23.0532 38.8817 20.4673C39.0009 19.283 39.6901 18.2842 40.928 17.4982C44.1265 15.4656 45.6165 14.365 44.5529 11.5799C44.0684 10.312 43.4296 8.41472 43.4831 6.6041C43.5305 4.71291 44.3221 3.22306 45.8412 2.168C47.837 0.778493 50.357 0.354343 53.1277 0.94116C54.3868 1.20368 55.601 1.64609 56.7327 2.25466L56.8657 2.33067L56.8871 2.4827C56.8871 2.50854 57.2645 5.18722 58.3908 6.68467C59.2481 7.82182 60.269 8.34479 61.0881 8.76438C61.7147 9.08515 62.2083 9.33903 62.3978 9.77534C62.7488 10.6074 62.966 11.4894 63.0412 12.3887L62.4115 12.4251C62.3396 11.5989 62.1396 10.7886 61.8186 10.0231C61.7193 9.79359 61.2929 9.57467 60.8008 9.32231C59.9695 8.89664 58.8309 8.31286 57.888 7.06017C56.8183 5.6357 56.3858 3.35076 56.2865 2.72442C55.4093 2.26834 50.3051 -0.174705 46.2003 2.68033C43.1439 4.80868 44.0241 8.43752 45.1412 11.3564C46.4356 14.7466 44.2671 16.1148 41.2657 18.0258C40.1959 18.6992 39.6076 19.546 39.5082 20.5235C39.276 22.8039 41.7073 25.1831 41.7318 25.2059L41.2932 25.662Z" fill="#7C6A28"/>
<path d="M49.0733 28C46.2899 28 43.5689 27.1789 41.2546 25.6406C38.9403 24.1022 37.1364 21.9157 36.0713 19.3576C35.0061 16.7994 34.7274 13.9845 35.2704 11.2687C35.8134 8.55301 37.1538 6.05845 39.122 4.10051C41.0902 2.14258 43.5978 0.809206 46.3277 0.269012C49.0577 -0.271181 51.8874 0.006066 54.4589 1.06569C57.0305 2.12532 59.2284 3.91974 60.7748 6.22202C62.3212 8.52431 63.1466 11.2311 63.1466 14C63.1426 17.7118 61.6585 21.2704 59.0202 23.8951C56.3818 26.5197 52.8045 27.996 49.0733 28ZM49.0733 0.62635C46.4135 0.62635 43.8134 1.41097 41.6019 2.88099C39.3903 4.351 37.6666 6.4404 36.6487 8.88495C35.6309 11.3295 35.3645 14.0194 35.8834 16.6145C36.4024 19.2096 37.6832 21.5934 39.5639 23.4644C41.4447 25.3354 43.841 26.6095 46.4497 27.1257C49.0584 27.6419 51.7624 27.377 54.2197 26.3644C56.6771 25.3519 58.7774 23.6371 60.2551 21.4371C61.7328 19.2371 62.5216 16.6505 62.5216 14.0046C62.5187 10.4573 61.101 7.05614 58.5795 4.54785C56.0581 2.03956 52.6391 0.629168 49.0733 0.62635Z" fill="#7C6A28"/>
<path d="M39.687 24.432C39.5846 24.3317 37.1502 21.9616 37.3 19.4684C37.3657 18.3799 37.9113 17.4419 38.9229 16.6802C39.4899 16.2515 40.008 15.9034 40.4649 15.5948C41.6202 14.8164 42.3828 14.3026 42.6457 13.398C42.8275 12.7656 42.6059 12.0526 42.3247 11.1496C41.9427 9.93337 41.4674 8.40551 41.7134 6.26348C41.8968 4.62617 43.0506 2.97974 44.8004 1.85475C46.2263 0.942597 49.2781 -0.373941 53.7038 1.0703L53.499 1.67232C49.3209 0.304092 46.4692 1.5355 45.1336 2.38836C43.5656 3.3902 42.4882 4.90285 42.3354 6.33189C42.1123 8.34318 42.5647 9.79655 42.9284 10.9641C43.234 11.9264 43.4892 12.758 43.2539 13.5713C42.9284 14.6933 42.0451 15.2892 40.821 16.1132C40.3717 16.4172 39.8597 16.7623 39.3065 17.1774C38.4492 17.8235 37.9861 18.6064 37.9311 19.5049C37.7982 21.7138 40.1042 23.9577 40.1272 23.979L39.687 24.432Z" fill="#7C6A28"/>
<path d="M36.8339 20.9003C36.8095 20.8668 35.1162 17.4934 37.7509 15.1446C38.1397 14.8061 38.5479 14.4904 38.9734 14.199C40.2907 13.2655 40.8378 12.8794 39.7681 9.66407C39.1568 7.83976 39.5343 5.79198 40.792 4.0589C42.5586 1.62649 45.7831 0.232422 49.6388 0.232422V0.858766C45.9879 0.858766 42.9498 2.1601 41.3024 4.4268C40.1639 5.99418 39.8231 7.83064 40.3672 9.46643C41.5301 12.963 40.8531 13.6365 39.3387 14.7098C38.9327 14.9875 38.5434 15.2885 38.1726 15.6113C35.8895 17.6424 37.3673 20.584 37.3826 20.6144L36.8339 20.9003Z" fill="#7C6A28"/>
<path d="M35.6755 18.2781C35.6602 18.1732 35.3149 15.6936 36.7285 14.2555C38.5883 12.3719 38.2124 10.8714 37.8792 9.5427C37.8211 9.31162 37.7661 9.08662 37.7264 8.87835C37.5836 8.12739 37.5961 7.35536 37.7632 6.60939C37.9303 5.86341 38.2485 5.15914 38.6983 4.53955L39.1904 4.93178L38.9428 4.74022L39.1889 4.93634C38.7998 5.48673 38.5247 6.10864 38.3796 6.76584C38.2345 7.42304 38.2223 8.1024 38.3438 8.76433C38.382 8.96348 38.4355 9.17328 38.4966 9.39523C38.8206 10.7315 39.279 12.5619 37.1778 14.6948C35.9812 15.911 36.296 18.1656 36.299 18.1914L35.6755 18.2781Z" fill="#7C6A28"/>
<path d="M63.1466 14.012L62.517 13.9862C62.5445 13.2899 62.4161 12.0099 61.2485 11.3318C61.0514 11.2148 60.7901 11.084 60.4844 10.9335C59.1503 10.2798 56.9161 9.18372 55.9181 6.95047C55.1874 5.29553 54.8171 3.50548 54.8316 1.698L55.4612 1.72384C55.4571 3.43457 55.8088 5.12764 56.4943 6.69659C57.399 8.72156 59.4239 9.71429 60.7626 10.371C61.082 10.5231 61.3586 10.6629 61.5771 10.7921C62.6285 11.4155 63.2031 12.5891 63.1466 14.012Z" fill="#7C6A28"/>
<path d="M45.8503 27.2399C45.6313 27.2399 45.4125 27.2288 45.1946 27.2065C44.5495 27.1452 43.9153 26.999 43.3088 26.7717L43.5472 26.1925C44.1035 26.3966 44.6839 26.5284 45.2741 26.5847C46.5548 26.7063 47.623 26.4433 48.4482 25.8002C49.6249 24.8881 50.4823 23.4864 51.3105 22.1364C51.9738 21.054 52.6004 20.0324 53.3782 19.248C54.6084 18.0029 56.5401 17.8797 58.244 17.7763C59.0861 17.7247 59.8838 17.6745 60.4874 17.4936C62.1517 16.9965 62.4741 15.0612 62.4741 15.0505L63.0976 15.1494C63.0823 15.2436 62.7003 17.4845 60.6617 18.0941C59.9877 18.2963 59.1564 18.348 58.2746 18.3981C56.6837 18.4969 54.8804 18.6079 53.8214 19.6827C53.0924 20.4201 52.4842 21.4128 51.8347 22.4618C50.9835 23.868 50.0971 25.3062 48.8303 26.3004C48.031 26.9176 47.0071 27.2399 45.8503 27.2399Z" fill="#7C6A28"/>
<path d="M46.5701 27.6307C46.0963 27.6307 45.7708 27.6018 45.7341 27.5988L45.7907 26.9739C45.8136 26.9739 48.1548 27.1746 49.4951 26.4647C50.6886 25.8322 51.711 24.803 52.8097 23.1201C52.9626 22.8982 53.0864 22.6944 53.2071 22.512C53.9712 21.3293 54.3456 20.7364 55.6247 20.0218C56.2941 19.6494 57.049 19.543 57.8483 19.4289C58.811 19.2921 59.8059 19.1507 60.7121 18.5168C61.5511 17.933 62.2816 16.5405 62.2892 16.5222L62.8486 16.8095C62.8165 16.8719 62.0386 18.3587 61.0728 19.0306C60.0428 19.7482 58.9241 19.9063 57.9369 20.0462C57.1972 20.1511 56.4988 20.2499 55.9334 20.5661C54.7918 21.2031 54.4831 21.6835 53.7374 22.8465C53.6166 23.035 53.4852 23.2402 53.3385 23.4637C52.1771 25.2333 51.0829 26.3278 49.7915 27.012C48.815 27.5349 47.4427 27.6307 46.5701 27.6307Z" fill="#7C6A28"/>
<path d="M48.1426 27.6306H47.9897L48.0127 27.0043C48.0402 27.0043 50.8261 27.0849 52.5973 25.7334C53.319 25.1911 53.9507 24.5396 54.4694 23.8026C54.8678 23.2294 55.3446 22.7141 55.886 22.2717C57.1758 21.238 58.079 21.1057 59.1258 20.9537C59.2786 20.9309 59.4315 20.9081 59.5996 20.8807C60.3148 20.7637 61.0239 20.1844 61.1782 19.853L61.7498 20.1176C61.4991 20.6527 60.5975 21.352 59.702 21.4995C59.5354 21.5268 59.3749 21.5511 59.2175 21.574C58.2226 21.7184 57.4371 21.8339 56.2803 22.7597C55.781 23.1702 55.3413 23.6476 54.9737 24.1781C54.4218 24.9601 53.7517 25.6524 52.987 26.2305C51.254 27.5394 48.7936 27.6306 48.1426 27.6306Z" fill="#7C6A28"/>
<path d="M54.2662 27.0148L54.066 26.4204L54.1653 26.7245L54.0645 26.4204C54.0767 26.4204 55.2152 26.0236 55.825 25.0522C56.1963 24.4578 56.4882 23.988 56.8825 23.6277C57.2294 23.2826 57.6567 23.0282 58.1264 22.8874C58.2487 22.8433 58.3878 22.7931 58.5498 22.7353L58.6002 22.714C59.0785 22.5225 59.6195 22.3051 59.8671 21.9858L60.3653 22.3689C60.0138 22.825 59.3887 23.0743 58.8371 23.2963L58.7866 23.3161C58.6139 23.386 58.4688 23.4377 58.3404 23.4848C57.9508 23.5974 57.5964 23.8066 57.3104 24.0929C56.9788 24.397 56.6991 24.8348 56.3614 25.3882C55.6309 26.5496 54.3212 26.9966 54.2662 27.0148Z" fill="#7C6A28"/>
<path d="M61.0667 7.72301C58.1081 7.0389 58.0424 3.93303 58.0424 3.90262L58.672 3.89502C58.672 4.00296 58.7377 6.54178 61.2088 7.11187L61.0667 7.72301Z" fill="#7C6A28"/>
</svg>
