<svg xmlns="http://www.w3.org/2000/svg" xmlns:xlink="http://www.w3.org/1999/xlink" viewBox="0 0 258.94 314.66"><defs><style>.cls-1{fill:#060509;}.cls-2{fill:#dcdcdc;}.cls-3{fill:url(#linear-gradient);}.cls-15,.cls-16,.cls-17,.cls-18,.cls-23,.cls-4,.cls-43,.cls-44,.cls-45,.cls-46,.cls-47,.cls-49{fill:none;}.cls-23,.cls-4{stroke:#060509;}.cls-4{stroke-linejoin:round;stroke-width:0.41px;}.cls-5{fill:url(#linear-gradient-2);}.cls-6{fill:url(#linear-gradient-3);}.cls-7{fill:url(#linear-gradient-4);}.cls-8{fill:url(#linear-gradient-5);}.cls-9{fill:url(#linear-gradient-6);}.cls-10{fill:url(#linear-gradient-7);}.cls-11{fill:url(#linear-gradient-8);}.cls-12{fill:url(#linear-gradient-9);}.cls-13{fill:#150d38;}.cls-14{fill:#e8e8e8;}.cls-15,.cls-16,.cls-17,.cls-18,.cls-23,.cls-43,.cls-44,.cls-45,.cls-46,.cls-47,.cls-49{stroke-miterlimit:10;}.cls-15,.cls-16,.cls-17,.cls-18{stroke-width:0.81px;}.cls-15{stroke:url(#linear-gradient-10);}.cls-16{stroke:url(#linear-gradient-11);}.cls-17{stroke:url(#linear-gradient-12);}.cls-18{stroke:url(#linear-gradient-13);}.cls-19{fill:url(#linear-gradient-14);}.cls-20{fill:url(#linear-gradient-15);}.cls-21{fill:url(#linear-gradient-16);}.cls-22{fill:url(#linear-gradient-17);}.cls-23{stroke-width:0.43px;}.cls-24{fill:url(#linear-gradient-18);}.cls-25{fill:red;}.cls-26{fill:url(#linear-gradient-19);}.cls-27{fill:url(#linear-gradient-20);}.cls-28{fill:url(#linear-gradient-21);}.cls-29{fill:url(#linear-gradient-22);}.cls-30{fill:url(#linear-gradient-23);}.cls-31{fill:url(#linear-gradient-24);}.cls-32{fill:url(#linear-gradient-25);}.cls-33{fill:url(#linear-gradient-26);}.cls-34{fill:url(#linear-gradient-27);}.cls-35{fill:url(#linear-gradient-28);}.cls-36{fill:url(#linear-gradient-29);}.cls-37{fill:url(#linear-gradient-30);}.cls-38{fill:url(#linear-gradient-31);}.cls-39{fill:url(#linear-gradient-32);}.cls-40{fill:url(#linear-gradient-33);}.cls-41{fill:url(#linear-gradient-34);}.cls-42{fill:url(#linear-gradient-35);}.cls-43,.cls-44,.cls-45,.cls-46,.cls-47,.cls-49{stroke-width:0.78px;}.cls-43{stroke:url(#linear-gradient-36);}.cls-44{stroke:url(#linear-gradient-37);}.cls-45{stroke:url(#linear-gradient-38);}.cls-46{stroke:url(#linear-gradient-39);}.cls-47{stroke:url(#linear-gradient-40);}.cls-48{fill:url(#linear-gradient-41);}.cls-49{stroke:url(#linear-gradient-42);}.cls-50{fill:url(#linear-gradient-43);}.cls-51{fill:url(#linear-gradient-44);}.cls-52{fill:url(#linear-gradient-45);}.cls-53{fill:url(#linear-gradient-46);}.cls-54{fill:url(#linear-gradient-47);}.cls-55{fill:url(#linear-gradient-48);}.cls-56{fill:url(#linear-gradient-49);}.cls-57{fill:url(#linear-gradient-50);}.cls-58{fill:url(#linear-gradient-51);}.cls-59{fill:url(#linear-gradient-52);}.cls-60{fill:url(#linear-gradient-53);}.cls-61{fill:url(#linear-gradient-54);}.cls-62{fill:url(#linear-gradient-55);}.cls-63{fill:url(#linear-gradient-56);}.cls-64{fill:url(#linear-gradient-57);}.cls-65{fill:url(#linear-gradient-58);}.cls-66{fill:url(#linear-gradient-59);}.cls-67{fill:url(#linear-gradient-60);}.cls-68{fill:url(#linear-gradient-61);}.cls-69{fill:url(#linear-gradient-62);}.cls-70{fill:url(#linear-gradient-63);}.cls-71{fill:url(#linear-gradient-64);}.cls-72{fill:url(#linear-gradient-65);}.cls-73{fill:url(#linear-gradient-66);}.cls-74{fill:url(#linear-gradient-67);}.cls-75{fill:url(#linear-gradient-68);}.cls-76{fill:url(#linear-gradient-69);}.cls-77{fill:url(#linear-gradient-70);}.cls-78{fill:url(#linear-gradient-71);}.cls-79{fill:url(#linear-gradient-72);}.cls-80{fill:url(#linear-gradient-73);}.cls-81{fill:url(#linear-gradient-74);}.cls-82{fill:url(#linear-gradient-75);}.cls-83{fill:url(#linear-gradient-76);}.cls-84{fill:url(#linear-gradient-77);}.cls-85{fill:url(#linear-gradient-78);}.cls-86{fill:url(#linear-gradient-79);}.cls-87{fill:url(#linear-gradient-80);}.cls-88{fill:url(#linear-gradient-81);}.cls-89{fill:url(#linear-gradient-82);}.cls-90{fill:url(#linear-gradient-83);}.cls-91{fill:url(#linear-gradient-84);}.cls-92{fill:url(#linear-gradient-85);}.cls-93{fill:url(#linear-gradient-86);}.cls-94{fill:url(#linear-gradient-87);}.cls-95{fill:url(#linear-gradient-88);}.cls-96{fill:url(#linear-gradient-89);}</style><linearGradient id="linear-gradient" x1="149.52" y1="131.29" x2="108.08" y2="130.89" gradientTransform="matrix(1, 0, 0, -1.02, -0.58, 340.75)" gradientUnits="userSpaceOnUse"><stop offset="0" stop-color="#18325b"/><stop offset="0.15" stop-color="#173660"/><stop offset="0.35" stop-color="#144070"/><stop offset="0.56" stop-color="#0f528a"/><stop offset="0.8" stop-color="#086aae"/><stop offset="1" stop-color="#0084d4"/></linearGradient><linearGradient id="linear-gradient-2" x1="91.81" y1="256.82" x2="139.59" y2="203.99" gradientTransform="matrix(1, 0, 0, -1, 0, 312.89)" gradientUnits="userSpaceOnUse"><stop offset="0" stop-color="#006a51"/><stop offset="1" stop-color="#003833"/></linearGradient><linearGradient id="linear-gradient-3" x1="134.09" y1="257.42" x2="125.64" y2="258.61" gradientTransform="matrix(1, 0, 0, -1, 0, 312.89)" gradientUnits="userSpaceOnUse"><stop offset="0" stop-color="#c390a8"/><stop offset="0.22" stop-color="#bd8ba3"/><stop offset="0.49" stop-color="#ae7f94"/><stop offset="0.8" stop-color="#94697c"/><stop offset="1" stop-color="#7f5869"/></linearGradient><linearGradient id="linear-gradient-4" x1="434.84" y1="683.88" x2="461.51" y2="683.88" gradientTransform="matrix(0.97, 0.23, 0.23, -0.97, -463.74, 599.96)" xlink:href="#linear-gradient-3"/><linearGradient id="linear-gradient-5" x1="107.2" y1="240.78" x2="123.64" y2="227.46" gradientTransform="matrix(1, 0, 0, -1, 0, 312.89)" gradientUnits="userSpaceOnUse"><stop offset="0" stop-color="#ff3f45"/><stop offset="1" stop-color="#ff7fca"/></linearGradient><linearGradient id="linear-gradient-6" x1="111.85" y1="199.43" x2="153.56" y2="199.43" xlink:href="#linear-gradient-3"/><linearGradient id="linear-gradient-7" x1="113" y1="205.06" x2="128.71" y2="205.06" xlink:href="#linear-gradient-3"/><linearGradient id="linear-gradient-8" x1="138.29" y1="197.96" x2="147.16" y2="190.77" xlink:href="#linear-gradient-3"/><linearGradient id="linear-gradient-9" x1="115.74" y1="203.76" x2="129.9" y2="192.28" xlink:href="#linear-gradient-3"/><linearGradient id="linear-gradient-10" x1="452.89" y1="684.47" x2="457.97" y2="684.47" gradientTransform="matrix(0.97, 0.23, 0.23, -0.97, -463.74, 599.96)" gradientUnits="userSpaceOnUse"><stop offset="0" stop-color="#633fff"/><stop offset="1" stop-color="#c22aff"/></linearGradient><linearGradient id="linear-gradient-11" x1="440.8" y1="684.7" x2="444.7" y2="684.7" xlink:href="#linear-gradient-10"/><linearGradient id="linear-gradient-12" x1="-1623.15" y1="771.79" x2="-1613.8" y2="771.79" gradientTransform="matrix(0.97, 0.23, 0.23, -0.97, 1515.23, 1162.85)" xlink:href="#linear-gradient-10"/><linearGradient id="linear-gradient-13" x1="444.01" y1="684.04" x2="453.36" y2="684.04" xlink:href="#linear-gradient-10"/><linearGradient id="linear-gradient-14" x1="126.04" y1="251.53" x2="132.34" y2="251.53" gradientTransform="matrix(1, 0, 0, -1, 0, 312.89)" gradientUnits="userSpaceOnUse"><stop offset="0" stop-color="#fff"/><stop offset="0.15" stop-color="#fffcf9"/><stop offset="0.34" stop-color="#fff2ea"/><stop offset="0.55" stop-color="#ffe2d0"/><stop offset="0.77" stop-color="#ffccac"/><stop offset="1" stop-color="#ffb17f"/></linearGradient><linearGradient id="linear-gradient-15" x1="-1475.28" y1="251.48" x2="-1468.91" y2="251.48" gradientTransform="translate(-1661.21 312.89) rotate(180) scale(1.22 1)" xlink:href="#linear-gradient-14"/><linearGradient id="linear-gradient-16" x1="84.58" y1="132.89" x2="155.92" y2="69.49" gradientTransform="matrix(1, 0, 0, -1, 0, 312.89)" xlink:href="#linear-gradient"/><linearGradient id="linear-gradient-17" x1="120.19" y1="130.4" x2="186.39" y2="71.57" gradientTransform="matrix(1, 0, 0, -1, 0, 312.89)" xlink:href="#linear-gradient"/><linearGradient id="linear-gradient-18" x1="170.04" y1="344.13" x2="189.63" y2="344.13" gradientTransform="matrix(0.98, 0.19, 0.19, -0.98, -231.45, 465.3)" gradientUnits="userSpaceOnUse"><stop offset="0" stop-color="#fff"/><stop offset="0.15" stop-color="#fffcfa"/><stop offset="0.34" stop-color="#fff2ea"/><stop offset="0.55" stop-color="#ffe3d0"/><stop offset="0.55" stop-color="#ffe2cf"/><stop offset="0.69" stop-color="#ffd6bb"/><stop offset="0.96" stop-color="#ffb688"/><stop offset="1" stop-color="#ffb17f"/></linearGradient><linearGradient id="linear-gradient-19" x1="-42.16" y1="5.25" x2="-14.03" y2="5.25" gradientTransform="matrix(1, -0.03, -0.03, -1, 30.37, 292.21)" xlink:href="#linear-gradient-14"/><linearGradient id="linear-gradient-20" x1="35.42" y1="0.96" x2="63.55" y2="0.96" gradientTransform="matrix(1, -0.03, -0.03, -1, 30.37, 292.21)" xlink:href="#linear-gradient-14"/><linearGradient id="linear-gradient-21" x1="15.15" y1="36.06" x2="51.53" y2="36.06" gradientTransform="matrix(1, -0.03, -0.03, -1, 30.37, 292.21)" xlink:href="#linear-gradient-18"/><linearGradient id="linear-gradient-22" x1="686.8" y1="328.92" x2="727.38" y2="328.92" gradientTransform="matrix(0.66, 0.75, 0.75, -0.66, -704.19, -77.65)" xlink:href="#linear-gradient-18"/><linearGradient id="linear-gradient-23" x1="783.06" y1="444.34" x2="762.27" y2="447.27" gradientTransform="matrix(0.94, 0.35, 0.35, -0.94, -821.25, 229.98)" xlink:href="#linear-gradient-14"/><linearGradient id="linear-gradient-24" x1="5.31" y1="-444.1" x2="42.24" y2="-467.4" gradientTransform="matrix(0.98, -0.22, -0.21, -0.93, -67.13, -358.74)" xlink:href="#linear-gradient-14"/><linearGradient id="linear-gradient-25" x1="1673.89" y1="800.97" x2="1706.61" y2="789.27" gradientTransform="matrix(0.73, 0.68, 0.68, -0.73, -1690.05, -437.31)" xlink:href="#linear-gradient-14"/><linearGradient id="linear-gradient-26" x1="-1432.22" y1="3114.6" x2="-1442.09" y2="3114.68" gradientTransform="matrix(-1, -0.04, -0.05, 1.38, -1064.46, -4315.94)" gradientUnits="userSpaceOnUse"><stop offset="0" stop-color="#c390a8"/><stop offset="0.14" stop-color="#bd8ba3"/><stop offset="0.31" stop-color="#ae7b96"/><stop offset="0.5" stop-color="#946281"/><stop offset="0.7" stop-color="#703f63"/><stop offset="0.92" stop-color="#42133d"/><stop offset="1" stop-color="#2e002d"/></linearGradient><linearGradient id="linear-gradient-27" x1="256.43" y1="121.31" x2="269.03" y2="111.09" gradientTransform="matrix(1, 0.03, 0.03, -1, -65.7, 376.2)" xlink:href="#linear-gradient"/><linearGradient id="linear-gradient-28" x1="-66.33" y1="-242.9" x2="-53.72" y2="-253.12" gradientTransform="matrix(0.99, -0.15, -0.15, -0.99, 257.73, 16.09)" xlink:href="#linear-gradient"/><linearGradient id="linear-gradient-29" x1="182.1" y1="116.73" x2="241.3" y2="116.73" xlink:href="#linear-gradient-2"/><linearGradient id="linear-gradient-30" x1="207.4" y1="204.12" x2="169.07" y2="239.48" gradientTransform="matrix(1, 0, 0, -1, 0, 312.89)" xlink:href="#linear-gradient"/><linearGradient id="linear-gradient-31" x1="225.4" y1="165.49" x2="196.62" y2="246.42" gradientTransform="matrix(1, 0, 0, -1, 0, 312.89)" xlink:href="#linear-gradient"/><linearGradient id="linear-gradient-32" x1="187.04" y1="35.11" x2="201.4" y2="23.46" gradientTransform="matrix(1, 0, 0, -1, 0, 312.89)" xlink:href="#linear-gradient"/><linearGradient id="linear-gradient-33" x1="227.73" y1="33.81" x2="239.64" y2="24.15" gradientTransform="matrix(1, 0, 0, -1, 0, 312.89)" xlink:href="#linear-gradient"/><linearGradient id="linear-gradient-34" x1="473.88" y1="583.14" x2="459.56" y2="566.68" gradientTransform="matrix(0.98, 0.18, 0.18, -0.98, -383.43, 625.51)" xlink:href="#linear-gradient-2"/><linearGradient id="linear-gradient-35" x1="616.82" y1="964.57" x2="659.85" y2="964.57" gradientTransform="matrix(0.94, 0.35, 0.35, -0.94, -740.09, 693.25)" xlink:href="#linear-gradient-26"/><linearGradient id="linear-gradient-36" x1="506.01" y1="687.97" x2="510.03" y2="687.97" gradientTransform="matrix(0.97, 0.23, 0.23, -0.97, -455.31, 570.13)" xlink:href="#linear-gradient"/><linearGradient id="linear-gradient-37" x1="-1388.95" y1="651.96" x2="-1379.24" y2="651.96" gradientTransform="matrix(0.97, 0.23, 0.23, -0.97, 1388.44, 968.91)" xlink:href="#linear-gradient"/><linearGradient id="linear-gradient-38" x1="509.29" y1="686.57" x2="519" y2="686.57" gradientTransform="matrix(0.97, 0.23, 0.23, -0.97, -455.31, 570.13)" xlink:href="#linear-gradient"/><linearGradient id="linear-gradient-39" x1="518.53" y1="686.34" x2="525.15" y2="686.34" gradientTransform="matrix(0.97, 0.23, 0.23, -0.97, -455.31, 570.13)" xlink:href="#linear-gradient"/><linearGradient id="linear-gradient-40" x1="197.1" y1="252.44" x2="214.05" y2="252.44" xlink:href="#linear-gradient-5"/><linearGradient id="linear-gradient-41" x1="-50.74" y1="123.83" x2="-32.92" y2="123.83" gradientTransform="matrix(0.99, -0.15, -0.15, -0.99, 264.97, 201.94)" xlink:href="#linear-gradient-14"/><linearGradient id="linear-gradient-42" x1="202.69" y1="234.58" x2="205.26" y2="234.58" xlink:href="#linear-gradient-5"/><linearGradient id="linear-gradient-43" x1="-44.9" y1="121.98" x2="-38.55" y2="121.98" gradientTransform="matrix(0.99, -0.15, -0.15, -0.99, 264.97, 201.94)" xlink:href="#linear-gradient-10"/><linearGradient id="linear-gradient-44" x1="182.1" y1="185.28" x2="221.37" y2="185.28" xlink:href="#linear-gradient-2"/><linearGradient id="linear-gradient-45" x1="193.01" y1="46.88" x2="206.58" y2="46.88" xlink:href="#linear-gradient-2"/><linearGradient id="linear-gradient-46" x1="227.4" y1="43.38" x2="240.97" y2="43.38" xlink:href="#linear-gradient-2"/><linearGradient id="linear-gradient-47" x1="206.55" y1="114.89" x2="192.22" y2="114.51" xlink:href="#linear-gradient-2"/><linearGradient id="linear-gradient-48" x1="247.47" y1="115.64" x2="214.89" y2="115.25" xlink:href="#linear-gradient-2"/><linearGradient id="linear-gradient-49" x1="228.86" y1="169.15" x2="218.38" y2="175" gradientTransform="matrix(1, 0, 0, -1, 0, 312.89)" xlink:href="#linear-gradient-26"/><linearGradient id="linear-gradient-50" x1="220.84" y1="170.58" x2="207.69" y2="155.47" xlink:href="#linear-gradient-2"/><linearGradient id="linear-gradient-51" x1="260.44" y1="204.26" x2="216.45" y2="228.82" gradientTransform="matrix(1, 0, 0, -1, 0, 312.89)" xlink:href="#linear-gradient"/><linearGradient id="linear-gradient-52" x1="-1087.2" y1="2207.62" x2="-1086.67" y2="2207.62" gradientTransform="matrix(28.69, 0, 0, -28.69, 31265.58, 63629.65)" gradientUnits="userSpaceOnUse"><stop offset="0" stop-color="#fff"/><stop offset="0.02" stop-color="#fff8f4"/><stop offset="0.05" stop-color="#ffeee3"/><stop offset="0.1" stop-color="#ffe7d8"/><stop offset="0.16" stop-color="#ffe3d1"/><stop offset="0.34" stop-color="#ffe2cf"/><stop offset="0.36" stop-color="#f7d5bf"/><stop offset="0.41" stop-color="#eac0a4"/><stop offset="0.46" stop-color="#dfaf8e"/><stop offset="0.52" stop-color="#d6a17d"/><stop offset="0.6" stop-color="#d09872"/><stop offset="0.7" stop-color="#cd926b"/><stop offset="1" stop-color="#cc9169"/></linearGradient><linearGradient id="linear-gradient-53" x1="-1120.6" y1="2217.42" x2="-1120.07" y2="2217.42" gradientTransform="matrix(66.75, -0.78, -0.78, -66.75, 76638.83, 147442.42)" xlink:href="#linear-gradient-52"/><linearGradient id="linear-gradient-54" x1="-1140.43" y1="2239.02" x2="-1139.9" y2="2239.02" gradientTransform="matrix(-5.28, 122.34, 122.34, 5.28, -279864.88, 127826.09)" xlink:href="#linear-gradient-52"/><linearGradient id="linear-gradient-55" x1="-1071.05" y1="2180.96" x2="-1070.52" y2="2180.96" gradientTransform="matrix(20.51, -2.93, -2.93, -20.51, 28449.99, 41694.5)" xlink:href="#linear-gradient-14"/><linearGradient id="linear-gradient-56" x1="-1096.11" y1="2206.39" x2="-1095.58" y2="2206.39" gradientTransform="matrix(34.15, 0, 0, -34.15, 37495.29, 75492.77)" gradientUnits="userSpaceOnUse"><stop offset="0" stop-color="#8e79ff"/><stop offset="1" stop-color="#401b7e"/></linearGradient><linearGradient id="linear-gradient-57" x1="-1004.9" y1="2140.46" x2="-1004.37" y2="2140.46" gradientTransform="matrix(10.96, -0.96, -0.88, -9.99, 13025.97, 20472.6)" xlink:href="#linear-gradient-14"/><linearGradient id="linear-gradient-58" x1="-1144.87" y1="2200.17" x2="-1144.34" y2="2200.17" gradientTransform="matrix(31.06, -58.8, -63.96, -27.37, 176406.9, -6977.53)" xlink:href="#linear-gradient-14"/><linearGradient id="linear-gradient-59" x1="-1115.98" y1="2212.78" x2="-1115.45" y2="2212.78" gradientTransform="matrix(56.94, 0, 0, -56.94, 63617.69, 126053.83)" gradientUnits="userSpaceOnUse"><stop offset="0" stop-color="#ffe845"/><stop offset="1" stop-color="#ff7f00"/></linearGradient><linearGradient id="linear-gradient-60" x1="-1114.54" y1="2220.05" x2="-1114.01" y2="2220.05" gradientTransform="matrix(56.7, 10.81, 10.81, -56.7, 39245.24, 138098.91)" xlink:href="#linear-gradient-5"/><linearGradient id="linear-gradient-61" x1="-1114.55" y1="2220.05" x2="-1114.03" y2="2220.05" gradientTransform="matrix(56.7, 10.81, 10.81, -56.7, 39246.96, 138099.86)" xlink:href="#linear-gradient-59"/><linearGradient id="linear-gradient-62" x1="-1114.59" y1="2220.05" x2="-1114.06" y2="2220.05" gradientTransform="matrix(56.7, 10.81, 10.81, -56.7, 39251.3, 138100.27)" xlink:href="#linear-gradient-5"/><linearGradient id="linear-gradient-63" x1="-1122.09" y1="2217.26" x2="-1121.56" y2="2217.26" gradientTransform="matrix(71.89, 0, 0, -71.89, 80747.67, 159613.59)" xlink:href="#linear-gradient-2"/><linearGradient id="linear-gradient-64" x1="-1109.74" y1="2213.05" x2="-1109.21" y2="2213.05" gradientTransform="matrix(47.11, 0, 0, -47.11, 52348.68, 104474.2)" xlink:href="#linear-gradient-2"/><linearGradient id="linear-gradient-65" x1="-1128.89" y1="2218.79" x2="-1128.36" y2="2218.79" gradientTransform="matrix(102.88, 0, 0, -102.88, 116206.95, 228385.7)" xlink:href="#linear-gradient-56"/><linearGradient id="linear-gradient-66" x1="-1121.58" y1="2215.6" x2="-1121.05" y2="2215.6" gradientTransform="matrix(69.39, 0, 0, -69.39, 77932.32, 153850.48)" xlink:href="#linear-gradient-56"/><linearGradient id="linear-gradient-67" x1="-1096.59" y1="2205.97" x2="-1096.06" y2="2205.97" gradientTransform="matrix(34.18, 0, 0, -34.18, 37563.82, 75531.9)" xlink:href="#linear-gradient-59"/><linearGradient id="linear-gradient-68" x1="145.08" y1="120.11" x2="158.05" y2="120.11" xlink:href="#linear-gradient-3"/><linearGradient id="linear-gradient-69" x1="151.74" y1="95" x2="154.21" y2="95" xlink:href="#linear-gradient-3"/><linearGradient id="linear-gradient-70" x1="-820.63" y1="-267.45" x2="-796.77" y2="-325.96" gradientTransform="matrix(0.92, -0.54, -0.54, -0.91, 833.1, -569.15)" xlink:href="#linear-gradient-3"/><linearGradient id="linear-gradient-71" x1="220.7" y1="160.18" x2="238.49" y2="160.18" xlink:href="#linear-gradient-5"/><linearGradient id="linear-gradient-72" x1="366.2" y1="432.23" x2="356.26" y2="433.63" gradientTransform="matrix(0.99, 0.12, 0.12, -0.99, -227.09, 475.81)" xlink:href="#linear-gradient-3"/><linearGradient id="linear-gradient-73" x1="168.21" y1="107.94" x2="165.06" y2="-50.75" xlink:href="#linear-gradient-3"/><linearGradient id="linear-gradient-74" x1="199.42" y1="106.78" x2="196.28" y2="-51.17" xlink:href="#linear-gradient-3"/><linearGradient id="linear-gradient-75" x1="219.06" y1="148.39" x2="120.38" y2="140.18" gradientTransform="matrix(1, 0, 0, -1, 0, 312.89)" gradientUnits="userSpaceOnUse"><stop offset="0" stop-color="#4f4cd3"/><stop offset="1" stop-color="#91f9de"/></linearGradient><linearGradient id="linear-gradient-76" x1="199.03" y1="40.92" x2="197.84" y2="-18.98" xlink:href="#linear-gradient-14"/><linearGradient id="linear-gradient-77" x1="199.35" y1="9.44" x2="199.03" y2="-6.49" xlink:href="#linear-gradient-5"/><linearGradient id="linear-gradient-78" x1="199.25" y1="0.39" x2="199.18" y2="-3.19" gradientTransform="matrix(1, 0, 0, -1, 0, 312.89)" gradientUnits="userSpaceOnUse"><stop offset="0" stop-color="#157fff"/><stop offset="1" stop-color="#001b3f"/></linearGradient><linearGradient id="linear-gradient-79" x1="198.86" y1="32.15" x2="198.83" y2="30.31" xlink:href="#linear-gradient-5"/><linearGradient id="linear-gradient-80" x1="198.86" y1="29.81" x2="198.83" y2="27.99" xlink:href="#linear-gradient-78"/><linearGradient id="linear-gradient-81" x1="197.59" y1="10.18" x2="199.83" y2="10.18" gradientTransform="matrix(1, 0, 0, -1, 0, 312.89)" xlink:href="#linear-gradient"/><linearGradient id="linear-gradient-82" x1="220.01" y1="111.09" x2="80.76" y2="264.87" xlink:href="#linear-gradient-5"/><linearGradient id="linear-gradient-83" x1="-3165.71" y1="1811.91" x2="-3172.9" y2="1812.46" gradientTransform="matrix(-0.89, -0.84, -0.69, 0.73, -1320.08, -3874.86)" xlink:href="#linear-gradient-3"/><linearGradient id="linear-gradient-84" x1="167.58" y1="44.19" x2="166.42" y2="-14.15" xlink:href="#linear-gradient-14"/><linearGradient id="linear-gradient-85" x1="167.46" y1="34.71" x2="167.43" y2="32.92" xlink:href="#linear-gradient-5"/><linearGradient id="linear-gradient-86" x1="167.46" y1="32.37" x2="167.43" y2="30.59" xlink:href="#linear-gradient-78"/><linearGradient id="linear-gradient-87" x1="168.31" y1="9.9" x2="167.98" y2="-6.66" xlink:href="#linear-gradient-5"/><linearGradient id="linear-gradient-88" x1="168.03" y1="1.27" x2="167.95" y2="-2.45" xlink:href="#linear-gradient-78"/><linearGradient id="linear-gradient-89" x1="166.55" y1="10.58" x2="168.78" y2="10.58" gradientTransform="matrix(1, 0, 0, -1, 0, 312.89)" xlink:href="#linear-gradient"/></defs><title>Asset 1</title><g id="Layer_2" data-name="Layer 2"><g id="Layer_1-2" data-name="Layer 1"><path class="cls-1" d="M98.1,286.36l-.1,1.1c0,.6.2,2.8.7,3.1,1.4,1.1,2.5,1.2,4.9,1.6a19.7,19.7,0,0,0,10.3-1.7,35.82,35.82,0,0,0,4.8-3.3,9.73,9.73,0,0,1,3.8-1.7,8.71,8.71,0,0,0,3.5-1.2.94.94,0,0,0,.5-.7l-.2-2.2Z"/><path class="cls-2" d="M113.4,275.76l-12.5,8a.35.35,0,0,0-.2.1l-1,.5a2.84,2.84,0,0,0-.2,5l.6.3c3.7,1.6,11.2,1.5,14.3-.9s6.2-4.6,7.8-4.5a8.1,8.1,0,0,0,2.7-.8,2.86,2.86,0,0,0,1.6-2.7l-.2-4a2.85,2.85,0,0,0-3.3-2.7l-8.4,1.4A1.56,1.56,0,0,0,113.4,275.76Z"/><path class="cls-1" d="M136.3,281.66l-.2,1.9c0,.4.5.8.9.9a21,21,0,0,1,3.2,1,18.85,18.85,0,0,1,3.8,1.9c.8.6,4,3.1,4.5,3.3a14.28,14.28,0,0,0,5.7,1.6,33.28,33.28,0,0,0,8.9-.1c3-.6,2.2-4.3,2.2-4.3Z"/><path class="cls-2" d="M148.7,274.46,162.8,285l1.7,1.3a2.5,2.5,0,0,1,.1,3.9,7.21,7.21,0,0,1-3.9,1.1c-3.8.2-9.3.6-12.4-1.9s-5.6-4.5-7.2-4.9c-3.7-1.1-4.8-2.7-4.8-2.7l.9-8.4Z"/><path class="cls-3" d="M111,138.86l3.6,136.3s7.3,2.2,11.5.2c.3-.2,6.1-111.5,6.1-111.5s4.8,107.6,4.8,110.4c4.7,2.6,12.1.2,12.1.2l3.4-134.9Z"/><polyline class="cls-4" points="144.9 277.26 150.6 276.16 147.3 278.76 152.9 277.86 149.3 280.56 155 279.46 151.4 282.56 157 280.96 153.8 284.16"/><path class="cls-5" d="M127.2,58l-10.7,1.1a18,18,0,0,0-2.1.8,17.17,17.17,0,0,0-10.2,12.4l-7.7,33.8c-1.6,10,9.4,14.9,9.4,14.9s-.4,13.7-.3,18.4a1.27,1.27,0,0,0,1.4,1.2c16.3-2.7,42.2.6,49.6,1.6a1.74,1.74,0,0,0,2-1.8l-.1-21.5,4.3-.7c3.3-.6,7.3-3,7-9.6l-7.3-38.2c-1.2-6.1-2.7-9.6-8-10.6l-15.6-1.7C132,59.86,134.1,58.86,127.2,58Z"/><path class="cls-6" d="M138.5,59.26c-4,2.3-11.2,0-11.2,0v-8.2h11.2Z"/><path class="cls-7" d="M144,42c-2,8.5-9.5,14.1-16.7,12.4a12.06,12.06,0,0,1-7.9-6.4,17.25,17.25,0,0,1-1.3-12.2c2-8.5,9.5-14.1,16.7-12.4S146,33.36,144,42Z"/><path class="cls-8" d="M112.4,90.76s-2.3-27.2-2.5-28.1.9-2,4.6-3.5a12.43,12.43,0,0,1,4-.5s-3.2,34-5.4,40.7C112.8,100.46,112.4,90.76,112.4,90.76Z"/><path class="cls-9" d="M151.5,118.76l-39.6-.8.2-9.8s38.1.7,39.6.8C156.1,113.06,151.5,118.76,151.5,118.76Z"/><path class="cls-10" d="M113,108.36l4.3-3.3a3.65,3.65,0,0,1,4-.3l7.3,6.6Z"/><path class="cls-11" d="M134.5,118.06l4.6,3.8a1.42,1.42,0,0,0,.6.2l2.3.1h.5l3.9-.8a6.26,6.26,0,0,0,3.8-2.4l.3-.4-4.6-1.9-3.9-3.2-4.5-.5-1.4,1.1Z"/><path class="cls-12" d="M134.7,112.66l-22.6-4.6s-5.3,4.1-.2,9.8c1.6.3,20.6.4,20.6.4Z"/><path class="cls-13" d="M134.8,118.56s.1-4.6,2.9-5.1c2-.3-1.9-1.1-1.9-1.1s-3.1,0-3.5,6.1C133.4,118.56,134.8,118.56,134.8,118.56Z"/><ellipse class="cls-14" cx="134.12" cy="115.35" rx="2.2" ry="1.9" transform="translate(-30.92 51.66) rotate(-19.6)"/><line class="cls-15" x1="140.7" y1="40.16" x2="135.7" y2="39.76"/><path class="cls-16" d="M127.4,37.76s-1.9-3-3.2-.7"/><circle class="cls-17" cx="120.09" cy="36.08" r="4.3" transform="translate(57.1 144.51) rotate(-76.57)"/><path class="cls-18" d="M135.7,39.76a4.26,4.26,0,1,1-3.2-5.1,4.36,4.36,0,0,1,3.3,4.1A3.75,3.75,0,0,1,135.7,39.76Z"/><path class="cls-13" d="M116.7,16.56s-3.3,9.4,3.4,11.9,20.8,6.6,20.8,6.6-2.4,5.9.2,8.6,5.2,2.2,5.2,2.2l2.5-10s1.2-4.6-1.9-6.9c-2-4.6-2.5-5.6-6-7.7S116.7,16.56,116.7,16.56Z"/><polygon class="cls-19" points="126 58.06 129.3 64.66 132.3 60.16 126 58.06"/><polygon class="cls-20" points="140.1 58.16 136 64.66 132.3 60.26 140.1 58.16"/><polygon class="cls-21" points="115.3 138.66 118.6 275.96 114.3 275.06 110.9 138.56 115.3 138.66"/><polygon class="cls-22" points="152.6 141.76 149.3 274.26 146 274.96 147.7 140.56 152.6 141.76"/><path class="cls-4" d="M108.1,284.26l-3.8-1.6,5.1.6-2.9-1.9,5.5.6-3-2,6,.7-4.2-2,6.5,1.3s-9.6-15.1-9.9-11.6,9.7,8.6,9.7,8.6-6.7-15.8-4.2-15.8,3.2,9.9,2.9,12.6-5.9,3-5.9,3"/><path class="cls-23" d="M150.8,276s-6.1-.3-6.5-3,.4-12.6,3.1-12.6-4.6,15.8-4.6,15.8,11.1-5,10.7-8.6-10.9,11.6-10.9,11.6"/><path class="cls-24" d="M26.1,127.36l-11.3,55.7s-3.5,6.5-4.5,9a2.2,2.2,0,0,0-.2,1.4l.4,2.1c.1,1.4.6,3.4,1.8,4.2l2.6,1.4,16.3-70.5Z"/><rect class="cls-25" x="31.85" y="50.39" width="33.1" height="0.6" transform="translate(-20.96 40.66) rotate(-38.1)"/><rect class="cls-25" x="46.62" y="28.86" width="0.6" height="22.1" transform="translate(-4.53 6.05) rotate(-7.04)"/><polygon class="cls-13" points="36.3 98.56 9.4 157.36 21.9 167.46 36.3 98.56"/><path class="cls-26" d="M4.8,279.86,0,294l28.2.8a25,25,0,0,0-5.8-4.6c-1.6-.9-4.9-1.5-9.5-4.6C10.1,283.76,4.8,279.86,4.8,279.86Z"/><path class="cls-13" d="M2.1,287.16,0,294l29.2,1-.1-2.2L19.3,289s-1.2.3-1,1.2a6.89,6.89,0,0,0,.9,1.7l-16.4-4.5-1.1-2-.9.2Z"/><path class="cls-27" d="M81.8,282.16,77,296.26l28.2.8a25,25,0,0,0-5.8-4.6c-1.6-.9-4.9-1.5-9.5-4.6C87.1,286.06,81.8,282.16,81.8,282.16Z"/><path class="cls-13" d="M79.1,289.56l-2.1,6.8,29.2,1-.1-2.2-9.8-3.8s-1.2.3-1,1.2a6.89,6.89,0,0,0,.9,1.7l-16.4-4.5-1.1-2-.9.2Z"/><polygon class="cls-28" points="46.8 226.16 81.7 282.26 84.7 284.26 69.4 229.56 46.8 226.16"/><polygon class="cls-29" points="22.5 215.36 4.6 280.06 7.8 282.46 40.4 221.16 22.5 215.36"/><path class="cls-30" d="M59.4,89.06c-4.7.8-10.8-4.1-10.8-4.1l3.1-8.8,11.4,3.1S59.6,88.46,59.4,89.06Z"/><path class="cls-31" d="M74.3,61c2.1,9.3-3.4,17.2-11.5,19.1a14.39,14.39,0,0,1-11.2-2.3,18.54,18.54,0,0,1-7.3-11.2c-2.1-9.3,4.1-16.2,12.3-18.1C64.6,46.56,72.2,51.66,74.3,61Z"/><circle class="cls-13" cx="48.43" cy="47.96" r="9" transform="translate(-12.5 17.41) rotate(-18.09)"/><circle class="cls-25" cx="62.31" cy="68.27" r="5" transform="translate(-18.12 22.72) rotate(-18.09)"/><path class="cls-13" d="M56,50.46l12.3,3.7s-4,6.8-8,7.8c-7.3,1.8-6.9,16.2-6.9,16.2s-5.8-1.2-10-9.4C40.6,63.16,41.9,55,46.6,50,48.3,48.16,53.1,51.16,56,50.46Z"/><path class="cls-13" d="M68.9,53.76l-14.4-4s3.2-3.1,10.7-.4c2.5.9,5.9,2.9,7.3,5.7a30,30,0,0,1,1.9,6.8S73.8,55.26,68.9,53.76Z"/><path class="cls-32" d="M107.6,119.76l4.4-2.3h.1l9.8-3.9c.3-.1.6.1.5.4l-2.4,6.3a.35.35,0,0,1-.1.2l-3.8,2.9-.5.3-4.6,3.5c-1,.9-3.7.7-3.7.7-.2.1-2.6,2.7-3.9,3.7l-27.9,31.1c-38.4,9.4,28.2-37.8,28.4-37.9l3.7-4.9C107.5,119.76,107.6,119.76,107.6,119.76Z"/><path class="cls-13" d="M12.1,214.26l23.2-112a39.31,39.31,0,0,1,13.9-21.5h0l13,.7,13.2,152.8Z"/><polygon class="cls-13" points="62.2 81.46 92.3 146.36 59.4 188.36 62.2 81.46"/><path class="cls-33" d="M200.2,31.06c3.9-3,10.7.4,10.7.4l-.4,10.8-10.7-.4S200.2,32,200.2,31.06Z"/><polygon class="cls-34" points="205.6 276.76 193.5 276.36 194.1 259.56 206.1 259.96 205.6 276.76"/><polygon class="cls-35" points="241 276.96 229.1 278.76 226.6 262.16 238.6 260.36 241 276.96"/><polygon class="cls-36" points="182.1 125.06 228.1 123.76 233.5 203.66 241.3 268.46 224.2 268.56 208.7 183.06 206.5 265.66 189.9 264.86 182.1 125.06"/><path class="cls-13" d="M221.6,282.66l22.1.2s-.9-5.5-3-7.6c-1.6-1.6-3.9-.4-9-.7-3.1-.2-5.3-.3-7.4,1.8C222.4,278.26,221.6,282.66,221.6,282.66Z"/><path class="cls-13" d="M206.3,281.86s1.2-11.4-5.2-10.8c-7.7.6-11.6,1.8-17.7,3.8-5,1.6-3.9,7.3-3.9,7.3Z"/><path class="cls-37" d="M192.9,39.86s-8.8-.1-12.9,4.3c-4.4,4.7-5,15.9-5.6,19.7l-4.7,31.4a13.06,13.06,0,0,0,.6,6.2l13,40.6-1.3-16a13.41,13.41,0,0,1,.1-2l11.5-76.4a11.86,11.86,0,0,0-.1-4.2Z"/><path class="cls-38" d="M221.8,123.56s-23.3,5.7-34.4,3.6a10.47,10.47,0,0,1-5.2-2.1c-.1-3.9-1.2-54.3-1.2-54.3l3.5-21.5L193,40l29.8,1,1.6,16.1,2.4,47.4Z"/><rect class="cls-39" x="179.1" y="281.76" width="27.9" height="1.8"/><rect class="cls-40" x="221.1" y="282.46" width="23.2" height="1.3"/><path class="cls-41" d="M184.1,127.36s-4-.9.4,5c1.7,10.9,2.2,25.8,2.2,25.8l-2.6,1.7s-5.1-.1-3.7-10.6S184.1,127.36,184.1,127.36Z"/><path class="cls-42" d="M215.5,25.16c-3.3,8.6-11.7,13.3-18.9,10.6a13.08,13.08,0,0,1-7.4-7.7,18.23,18.23,0,0,1,.2-12.8c3.3-8.6,14.3-14.5,21.5-11.8S218.7,16.56,215.5,25.16Z"/><path class="cls-43" d="M198.9,18.66s-1.5-3.4-3.2-1.1"/><circle class="cls-44" cx="191.47" cy="15.96" r="4.5" transform="translate(108.65 189.32) rotate(-69.23)"/><path class="cls-45" d="M207.2,21.86a4.49,4.49,0,1,1-2.6-5.8,4.46,4.46,0,0,1,2.9,4.7C207.4,21.16,207.3,21.46,207.2,21.86Z"/><path class="cls-13" d="M190.2,6.36a8,8,0,0,0,2.9,1.5c2,.6,5.2,1.4,6.9.8.4-.1,2.5-.5,3-.7a54.76,54.76,0,0,0,9-4.3,11.92,11.92,0,0,0-6.4-3.6c-3.8-.6-13.4,3.5-13.4,3.5l-3.7,1.6Z"/><line class="cls-46" x1="213.7" y1="22.66" x2="207.2" y2="21.86"/><path class="cls-47" d="M200.8,40.16s-8.7,10.1,2.1,40c0,0,9.3-13.1,10.7-39.6"/><path class="cls-48" d="M211,76l-16.4,3.7,3.6,16.4,16.4-3.6Zm-6.1,5.2a1.68,1.68,0,1,1-1.1-2.1A1.61,1.61,0,0,1,204.9,81.16Z"/><line class="cls-49" x1="203" y1="79.96" x2="204.9" y2="76.66"/><path class="cls-50" d="M206.7,89.26l-3.2.7-.2,1.6-.9.2,1.1-7.2,1-.2,4.1,6-1,.2Zm-2.5-3.6-.5,3.5,2.5-.6-2-2.9Z"/><path class="cls-51" d="M182.1,125.16l.2,4.3a37.43,37.43,0,0,0,12,2c4.4-.1,17.3-1.4,20.4-2a34.94,34.94,0,0,0,5.8-1.7l.8-4s-14.8,3.6-24.3,3.9C190.2,127.76,185.7,127.56,182.1,125.16Z"/><path class="cls-13" d="M202.4,9.56l9.6-5.9s7,3,8.5,9.8-1.1,15.4-1.1,15.4l-6.4,2.7C213.1,31.56,212.7,15.06,202.4,9.56Z"/><rect class="cls-52" x="193" y="264.96" width="13.6" height="2.1"/><rect class="cls-53" x="227.4" y="268.46" width="13.6" height="2.1"/><polygon class="cls-54" points="194.3 131.36 198.5 265.06 206.6 264.96 208.7 183.06 198.9 131.66 194.3 131.36"/><polygon class="cls-55" points="219.6 159.56 233.7 267.96 241.5 268.66 227.4 126.16 208.9 130.06 219.6 159.56"/><path class="cls-56" d="M219,133.86l-5.6,5.1s5.3,6.6,8.1,6.6,2.4-1.4,2.4-1.4l2.7-8Z"/><path class="cls-57" d="M208.9,130.06s.6,3.8,4.9,8.9a5.8,5.8,0,0,0,1.2,1c5.1,3.4,12.1,4.1,12.1,4.1l.8,16.1s-17.9,2-17.9-8.6A201.59,201.59,0,0,0,208.9,130.06Z"/><path class="cls-58" d="M222.5,40.86h1.6a6.43,6.43,0,0,1,3.1.7c7,3.5,8.4,11.4,8.5,13.1l4.4,39.7a27.2,27.2,0,0,1-2.5,14.3l-11,27.5-7.9-2.3,7.9-29.5Z"/><polygon class="cls-59" points="76.4 306.46 81.3 290.66 86.8 290.36 91.5 306.26 76.4 306.46"/><path class="cls-60" d="M104.4,291.86l-6.3,17.6,35.4,1.5a29,29,0,0,0-7.2-5.8c-2-1.2-6.2-2-11.8-6C111.1,297,104.4,291.86,104.4,291.86Z"/><path class="cls-13" d="M100.9,301.16l-2.8,8.4,36.7,1.8-.1-2.8-12.2-5s-1.6.3-1.3,1.5a8,8,0,0,0,1.1,2.2l-20.5-5.9-1.3-2.5-1.1.3Z"/><path class="cls-61" d="M71.8,135.06l-.4,63.1S69,206,68.4,209a2.92,2.92,0,0,0,.1,1.6l.9,2.2c.4,1.6,1.4,3.6,2.8,4.2l3.1.9,2.6-80.2Z"/><path class="cls-62" d="M100.4,91.76c-3.6,3.3-10,.3-10,.3l.1-7.8h9.8C100.4,84.26,100.4,91.16,100.4,91.76Z"/><polygon class="cls-13" points="92.3 309.96 75.9 309.76 76.7 303.46 84.1 302.06 91.6 303.56 92.3 309.96"/><rect class="cls-13" x="83.3" y="298.26" width="1.6" height="4.3"/><path class="cls-63" d="M78.7,191.26H69.2l-6.5-46.2a12.18,12.18,0,0,1,.1-3.3l6.9-36.9c1.1-6.2,4.2-10,9.5-10h1.4Z"/><path class="cls-64" d="M136,72.16l-1-6.8.4-5,1.1.2c.2.1.3.3.4.4l1.1,4.2Z"/><path class="cls-65" d="M135.9,71.56l1.4-5.1v-.1l3.6-10.9c.1-.3,1.9-.5,2.1.4L141.4,64l1.4-1.5a.85.85,0,0,1,1.3,0l1.6,1.9a14,14,0,0,1,.9,1.7l.1,2.1c0,.1-.3,2.1-.3,2.4l-1.4,3.8c-1.1,1.4-2.5,3.3-2.5,3.3a47.24,47.24,0,0,1,.1,5.8l2.6,44.3c-22.4,37.6-8.1-49.4-8.2-49.6l-1.4-6.5C135.9,71.66,135.9,71.66,135.9,71.56Z"/><path class="cls-66" d="M109.7,67.36c0,8.7-5.9,18.6-14.6,18.6s-15.6-9.2-15.6-17.8,6.3-15.5,15-15.5S109.7,58.66,109.7,67.36Z"/><polygon class="cls-67" points="86.6 180.86 56.6 175.06 60.6 154.16 90.6 159.96 86.6 180.86"/><polygon class="cls-68" points="87.6 181.06 57.6 175.36 61.4 155.06 91.5 160.76 87.6 181.06"/><polygon class="cls-69" points="89.8 181.56 59.8 175.76 63.8 154.96 93.8 160.66 89.8 181.56"/><polygon class="cls-70" points="117.3 295.46 92.3 294.96 100 222.16 84.4 150.86 111.2 149.66 122.4 225.66 117.3 295.46"/><polygon class="cls-71" points="93.9 294.56 70.9 295.06 73.8 147.76 95.9 150.16 93.9 294.56"/><path class="cls-72" d="M123.2,151.36l-54.4-.6,5.7-48.6c-1-9.5,10-11.3,23-11.6h0c12.7,0,19.8,2.8,19.8,9.2Z"/><path class="cls-73" d="M118,126.56l-9-34.5c-.1-.3,8.1,1.5,11.1,6l13.4,25s-1.1-34-.8-34c2.3-.1,13.1.4,13.1.5l-.5,40.5a13.62,13.62,0,0,1-4.1,9.7C132.5,147.66,121.9,135.36,118,126.56Z"/><path class="cls-74" d="M97.6,191.36l-18.1.1,2.6-121.4c0-5.2,3.3-9.5,7.2-9.5s7.2,4.2,7.2,9.5Z"/><path class="cls-75" d="M148.2,154.76l-.1,58.4s-2,6.8-2.7,9.6c-.4,1.5-.4,1.2-.3,1.7l1.8,3.7a6,6,0,0,0,3.6,2.6,1.12,1.12,0,0,0,1.4-1l2.3-17.1,3.9-55.3Z"/><ellipse class="cls-13" cx="185.13" cy="48.99" rx="10.2" ry="9.9" transform="translate(-4.61 23.07) rotate(-7.04)"/><path class="cls-76" d="M153.1,223.46h0a.94.94,0,0,1-1-1l-.3-7.2s.1-3.3,2.4-2.9c.1.4,0,10.1,0,10.1A1.18,1.18,0,0,1,153.1,223.46Z"/><path class="cls-77" d="M208.2,150.06l17.4,10a4.67,4.67,0,0,0,6.8-2.7l13.7-37,8.6-3.6a4.67,4.67,0,0,0,2.5-3l1.3-5.1c.3-1.2.9-2.2-.2-3a2.43,2.43,0,0,0-2.1.5l-5.5,4.7-6.2,1.6a4.54,4.54,0,0,0-2.7,2L223,143.86l-6.4-4.6Z"/><path class="cls-78" d="M220.7,132.46l11.5-4.1,6.2,20.3s-5.3,28.4-10.3,28.4S220.7,132.46,220.7,132.46Z"/><path class="cls-79" d="M194.3,97.06c-5,2.2-13.1-1.6-13.1-1.6l1.2-9.5,13.1,1.6Z"/><polygon class="cls-80" points="161.7 222.26 163.9 308.16 170.9 307.26 174 224.26 161.7 222.26"/><polygon class="cls-81" points="192.6 223.26 195 308.76 202.5 308.96 205.5 225.96 192.6 223.26"/><polygon class="cls-82" points="162.4 108.56 152.8 224.76 210.6 225.86 205.8 106.96 162.4 108.56"/><polygon class="cls-83" points="202.4 311.06 195 310.76 194.1 278.46 203.7 278.66 202.4 311.06"/><path class="cls-84" d="M190.2,313.66l17.9-.3-4.3-5.8a5.69,5.69,0,0,0-4.7-2.3h-.9a5,5,0,0,0-4.1,2.2Z"/><path class="cls-85" d="M208,314.66H190.5a.91.91,0,0,1,0-1.6c1-.1,17,0,17.5,0C209,313.76,208,314.66,208,314.66Z"/><polygon class="cls-86" points="203.5 281.86 194.2 281.86 194.2 281.06 203.5 281.06 203.5 281.86"/><polygon class="cls-87" points="203.4 284.16 194.3 284.16 194.3 283.36 203.4 283.36 203.4 284.16"/><ellipse class="cls-13" cx="187.03" cy="70.89" rx="17" ry="19.1" transform="translate(-7.28 23.46) rotate(-7.04)"/><rect class="cls-88" x="197.6" y="300.26" width="2.2" height="4.9"/><path class="cls-89" d="M156.7,105.56c-20.3,27.8-18.9,97.2-18.9,97.2s70.3,6.9,88-18.1c11.7-16.4,8.4-40-5-71.4a29.94,29.94,0,0,0-8.1-10.9C184.2,78.76,160.3,102.56,156.7,105.56Z"/><path class="cls-90" d="M252.4,108.36h0a1.14,1.14,0,0,1,.2,1.6l-4.6,5.5s-2.3,2.3-4.1,0c.2-.4,7-7.3,7-7.3A1.12,1.12,0,0,1,252.4,108.36Z"/><polygon class="cls-91" points="170.9 306.76 164 306.46 162.8 275.06 172.1 275.16 170.9 306.76"/><rect class="cls-92" x="162.9" y="278.46" width="9.1" height="0.8"/><rect class="cls-93" x="163" y="280.76" width="8.9" height="0.8"/><path class="cls-94" d="M158.8,313.56l18.6-.4-4.5-6a6,6,0,0,0-4.8-2.4h-.9a5,5,0,0,0-4.2,2.3Z"/><path class="cls-95" d="M177.1,313.86H158.9a1,1,0,0,1,0-1.7c1-.1,17.6,0,18.2,0C178.2,313,177.1,313.86,177.1,313.86Z"/><rect class="cls-96" x="166.5" y="299.86" width="2.2" height="4.9"/></g></g></svg>