<svg id="Layer_1" data-name="Layer 1" xmlns="http://www.w3.org/2000/svg" xmlns:xlink="http://www.w3.org/1999/xlink" viewBox="0 0 506.39 342.12"><defs><style>.cls-1,.cls-2{opacity:0.29;}.cls-1{fill:url(#linear-gradient);}.cls-2{fill:url(#linear-gradient-2);}.cls-3{isolation:isolate;}.cls-4{fill:#160d46;}.cls-5{opacity:0.36;}.cls-6{fill:#54b0c6;}.cls-7{fill:url(#linear-gradient-3);}.cls-8{fill:url(#linear-gradient-4);}.cls-9{fill:url(#linear-gradient-5);}.cls-10{fill:url(#linear-gradient-6);}.cls-11{fill:url(#linear-gradient-7);}.cls-12{fill:url(#linear-gradient-8);}.cls-13{fill:url(#linear-gradient-9);}.cls-14{fill:url(#linear-gradient-10);}.cls-15{fill:url(#linear-gradient-11);}.cls-16{fill:url(#linear-gradient-12);}.cls-17{fill:url(#linear-gradient-13);}.cls-18{fill:url(#linear-gradient-14);}.cls-19{fill:url(#linear-gradient-15);}.cls-20{fill:url(#linear-gradient-16);}.cls-21{fill:url(#linear-gradient-17);}.cls-22{fill:url(#linear-gradient-18);}.cls-23{fill:url(#linear-gradient-19);}.cls-24{fill:url(#linear-gradient-20);}.cls-25{fill:url(#linear-gradient-21);}.cls-26{fill:url(#linear-gradient-22);}.cls-27{fill:url(#linear-gradient-23);}.cls-28{fill:url(#linear-gradient-24);}.cls-29{fill:url(#linear-gradient-25);}.cls-30{fill:url(#linear-gradient-26);}.cls-31{fill:url(#linear-gradient-27);}.cls-32{fill:#150d38;}.cls-33{fill:url(#linear-gradient-28);}.cls-34{fill:url(#linear-gradient-29);}.cls-35{fill:url(#linear-gradient-30);}.cls-36{fill:url(#linear-gradient-31);}.cls-37,.cls-38,.cls-50,.cls-51,.cls-52,.cls-62{fill:none;stroke-miterlimit:10;stroke-width:0.64px;}.cls-37{stroke:url(#linear-gradient-32);}.cls-38{stroke:url(#linear-gradient-33);}.cls-39{fill:url(#linear-gradient-34);}.cls-40{fill:url(#linear-gradient-35);}.cls-41{fill:url(#linear-gradient-36);}.cls-42{fill:url(#linear-gradient-37);}.cls-43{fill:url(#linear-gradient-38);}.cls-44{fill:url(#linear-gradient-39);}.cls-45{fill:url(#linear-gradient-40);}.cls-46{fill:url(#linear-gradient-41);}.cls-47{fill:url(#linear-gradient-42);}.cls-48{fill:url(#linear-gradient-43);}.cls-49{fill:url(#linear-gradient-44);}.cls-50{stroke:url(#linear-gradient-45);}.cls-51{stroke:url(#linear-gradient-46);}.cls-52{stroke:url(#linear-gradient-47);}.cls-53{fill:#f2f2f2;}.cls-54{fill:url(#linear-gradient-48);}.cls-55{fill:url(#linear-gradient-49);}.cls-56{fill:url(#linear-gradient-50);}.cls-57{fill:url(#linear-gradient-51);}.cls-58{fill:url(#linear-gradient-52);}.cls-59{fill:url(#linear-gradient-53);}.cls-60{fill:url(#linear-gradient-54);}.cls-61{fill:url(#linear-gradient-55);}.cls-62{stroke:url(#linear-gradient-56);}</style><linearGradient id="linear-gradient" x1="60.99" y1="158.65" x2="484.32" y2="158.65" gradientUnits="userSpaceOnUse"><stop offset="0" stop-color="#b9dcff"/><stop offset="0.18" stop-color="#b6dbfe"/><stop offset="0.33" stop-color="#acd9fa"/><stop offset="0.47" stop-color="#9ad6f4"/><stop offset="0.6" stop-color="#82d1ec"/><stop offset="0.72" stop-color="#63cbe1"/><stop offset="0.85" stop-color="#3dc3d4"/><stop offset="0.96" stop-color="#10bac5"/><stop offset="1" stop-color="#00b7bf"/></linearGradient><linearGradient id="linear-gradient-2" x1="27.77" y1="127.87" x2="451.11" y2="127.87" xlink:href="#linear-gradient"/><linearGradient id="linear-gradient-3" x1="-654" y1="670.23" x2="-654" y2="668.96" gradientTransform="matrix(16, 0, 0, -74.19, 10543.83, 49843.98)" gradientUnits="userSpaceOnUse"><stop offset="0" stop-color="#c1f391"/><stop offset="1" stop-color="#4bc155"/></linearGradient><linearGradient id="linear-gradient-4" x1="-653.32" y1="665.31" x2="-653.32" y2="664.04" gradientTransform="matrix(16, 0, 0, -37.51, 10584.16, 25122.59)" gradientUnits="userSpaceOnUse"><stop offset="0" stop-color="#87d1e1"/><stop offset="1" stop-color="#4f78d9"/></linearGradient><linearGradient id="linear-gradient-5" x1="-653.66" y1="671.92" x2="-653.66" y2="670.65" gradientTransform="matrix(16, 0, 0, -111.59, 10563.92, 75050.47)" gradientUnits="userSpaceOnUse"><stop offset="0" stop-color="#6be4b8"/><stop offset="1" stop-color="#12a6a0"/></linearGradient><linearGradient id="linear-gradient-6" x1="-748.36" y1="678.59" x2="-748.36" y2="679.66" gradientTransform="matrix(-16, 0, 0, 80.48, -11790.85, -54485.33)" gradientUnits="userSpaceOnUse"><stop offset="0" stop-color="#9baafe"/><stop offset="1" stop-color="#9e43f0"/></linearGradient><linearGradient id="linear-gradient-7" x1="-652.98" y1="671.54" x2="-652.98" y2="670.27" gradientTransform="matrix(16, 0, 0, -100.28, 10604.9, 67424.43)" gradientUnits="userSpaceOnUse"><stop offset="0" stop-color="#13bfff"/><stop offset="1" stop-color="#00478b"/></linearGradient><linearGradient id="linear-gradient-8" x1="-652.31" y1="668.54" x2="-652.31" y2="667.28" gradientTransform="matrix(16, 0, 0, -55.54, 10645.05, 37269.15)" gradientUnits="userSpaceOnUse"><stop offset="0" stop-color="#8e79ff"/><stop offset="1" stop-color="#401b7e"/></linearGradient><linearGradient id="linear-gradient-9" x1="-607.92" y1="634.17" x2="-607.92" y2="632.91" gradientTransform="matrix(8.55, 0, 0, -8.55, 5507.84, 5520.91)" gradientUnits="userSpaceOnUse"><stop offset="0" stop-color="#c0f390"/><stop offset="1" stop-color="#4cc156"/></linearGradient><linearGradient id="linear-gradient-10" x1="-607.92" y1="633.66" x2="-607.92" y2="632.39" gradientTransform="matrix(8.55, 0, 0, -8.55, 5507.84, 5537.43)" gradientUnits="userSpaceOnUse"><stop offset="0" stop-color="#6be4b8"/><stop offset="1" stop-color="#13a7a0"/></linearGradient><linearGradient id="linear-gradient-11" x1="-607.91" y1="632.14" x2="-607.91" y2="630.87" gradientTransform="matrix(8.55, 0, 0, -8.55, 5508.07, 5586.11)" gradientUnits="userSpaceOnUse"><stop offset="0" stop-color="#d14bfb"/><stop offset="1" stop-color="#9baafe"/></linearGradient><linearGradient id="linear-gradient-12" x1="-607.92" y1="633.16" x2="-607.92" y2="631.89" gradientTransform="matrix(8.55, 0, 0, -8.55, 5507.84, 5553.27)" gradientUnits="userSpaceOnUse"><stop offset="0" stop-color="#87d0e1"/><stop offset="1" stop-color="#507ad9"/></linearGradient><linearGradient id="linear-gradient-13" x1="-607.89" y1="631.62" x2="-607.89" y2="630.35" gradientTransform="matrix(8.55, 0, 0, -8.55, 5508.84, 5602.63)" gradientUnits="userSpaceOnUse"><stop offset="0" stop-color="#8e79ff"/><stop offset="1" stop-color="#240e4b"/></linearGradient><linearGradient id="linear-gradient-14" x1="-607.91" y1="632.66" x2="-607.91" y2="631.4" gradientTransform="matrix(8.55, 0, 0, -8.55, 5508.09, 5569.22)" gradientUnits="userSpaceOnUse"><stop offset="0" stop-color="#004e96"/><stop offset="1" stop-color="#00b1f5"/></linearGradient><linearGradient id="linear-gradient-15" x1="56" y1="303.91" x2="84.79" y2="303.91" gradientTransform="translate(-14.08 0.43) rotate(-0.67)" gradientUnits="userSpaceOnUse"><stop offset="0" stop-color="#c390a8"/><stop offset="0.14" stop-color="#be8ba3"/><stop offset="0.31" stop-color="#ae7b96"/><stop offset="0.5" stop-color="#946281"/><stop offset="0.7" stop-color="#703f63"/><stop offset="0.92" stop-color="#42133d"/><stop offset="1" stop-color="#2e002d"/></linearGradient><linearGradient id="linear-gradient-16" x1="-143.32" y1="1238.61" x2="-107.65" y2="1238.61" gradientTransform="matrix(0.65, 0.76, -0.76, 0.65, 1040.07, -413.3)" xlink:href="#linear-gradient-15"/><linearGradient id="linear-gradient-17" x1="-93.84" y1="244.56" x2="-108.61" y2="242.48" gradientTransform="translate(180.78 -66.43) rotate(8.54)" xlink:href="#linear-gradient-15"/><linearGradient id="linear-gradient-18" x1="-82.96" y1="308.97" x2="-52.55" y2="328.15" gradientTransform="translate(135.82 -167.09) rotate(4.63)" xlink:href="#linear-gradient-15"/><linearGradient id="linear-gradient-19" x1="69.21" y1="159.48" x2="76.79" y2="159.48" gradientTransform="translate(-8.84 4.59) rotate(-0.67)" xlink:href="#linear-gradient-15"/><linearGradient id="linear-gradient-20" x1="74.81" y1="160.97" x2="81.99" y2="160.97" gradientTransform="translate(-8.84 4.59) rotate(-0.67)" xlink:href="#linear-gradient-15"/><linearGradient id="linear-gradient-21" x1="64.54" y1="165.61" x2="81.86" y2="165.61" xlink:href="#linear-gradient-15"/><linearGradient id="linear-gradient-22" x1="625.43" y1="224.17" x2="633.01" y2="224.17" gradientTransform="matrix(-1, -0.71, -0.58, 0.81, 1186.1, 403.87)" xlink:href="#linear-gradient-15"/><linearGradient id="linear-gradient-23" x1="633.83" y1="222.2" x2="641.01" y2="222.2" gradientTransform="matrix(-1, -0.71, -0.58, 0.81, 1186.1, 403.87)" xlink:href="#linear-gradient-15"/><linearGradient id="linear-gradient-24" x1="620.76" y1="230.29" x2="638.08" y2="230.29" gradientTransform="matrix(-1, -0.71, -0.58, 0.81, 1180.86, 399.71)" xlink:href="#linear-gradient-15"/><linearGradient id="linear-gradient-25" x1="58.35" y1="181.75" x2="73.89" y2="181.75" gradientTransform="translate(-8.84 4.59) rotate(-0.67)" gradientUnits="userSpaceOnUse"><stop offset="0" stop-color="#006a51"/><stop offset="1" stop-color="#003833"/></linearGradient><linearGradient id="linear-gradient-26" x1="160.92" y1="294.38" x2="198.01" y2="294.38" gradientTransform="translate(-184.36 7.96) rotate(-11.09)" gradientUnits="userSpaceOnUse"><stop offset="0" stop-color="#18325b"/><stop offset="0.15" stop-color="#173660"/><stop offset="0.35" stop-color="#144070"/><stop offset="0.57" stop-color="#0f528a"/><stop offset="0.8" stop-color="#086aae"/><stop offset="1" stop-color="#0084d4"/></linearGradient><linearGradient id="linear-gradient-27" x1="10.12" y1="332.07" x2="34.84" y2="332.07" gradientTransform="translate(-8.84 4.59) rotate(-0.67)" xlink:href="#linear-gradient-15"/><linearGradient id="linear-gradient-28" x1="77.71" y1="335.86" x2="102.44" y2="335.86" gradientTransform="translate(-8.84 4.59) rotate(-0.67)" xlink:href="#linear-gradient-15"/><linearGradient id="linear-gradient-29" x1="30.82" y1="178.1" x2="59.35" y2="178.1" xlink:href="#linear-gradient-25"/><linearGradient id="linear-gradient-30" x1="35.72" y1="182.34" x2="63.81" y2="182.34" xlink:href="#linear-gradient-25"/><linearGradient id="linear-gradient-31" x1="5.81" y1="263.3" x2="47.53" y2="263.3" gradientTransform="matrix(1, 0, 0, 1, 0, 0)" xlink:href="#linear-gradient-26"/><linearGradient id="linear-gradient-32" x1="401.68" y1="-277.65" x2="405.01" y2="-277.65" gradientTransform="translate(28.67 339.49) rotate(8.47)" xlink:href="#linear-gradient-26"/><linearGradient id="linear-gradient-33" x1="467.54" y1="169.05" x2="469.67" y2="169.05" gradientUnits="userSpaceOnUse"><stop offset="0" stop-color="#ff3f45"/><stop offset="1" stop-color="#ff7fca"/></linearGradient><linearGradient id="linear-gradient-34" x1="416.9" y1="169.59" x2="458.73" y2="168.51" gradientTransform="matrix(1, 0, 0, 1, 0, 0)" xlink:href="#linear-gradient-26"/><linearGradient id="linear-gradient-35" x1="672.51" y1="-1264.49" x2="663.71" y2="-1269.41" gradientTransform="translate(126.44 1614.39) rotate(-12.55)" xlink:href="#linear-gradient-15"/><linearGradient id="linear-gradient-36" x1="321.62" y1="271.57" x2="309.09" y2="272.07" gradientTransform="translate(321.73 -140.71) rotate(24.4)" gradientUnits="userSpaceOnUse"><stop offset="0" stop-color="#c390a8"/><stop offset="0.31" stop-color="#c18ea6"/><stop offset="0.47" stop-color="#b986a0"/><stop offset="0.59" stop-color="#ac7995"/><stop offset="0.7" stop-color="#996785"/><stop offset="0.8" stop-color="#804f71"/><stop offset="0.89" stop-color="#613257"/><stop offset="0.97" stop-color="#3e103a"/><stop offset="1" stop-color="#2e002d"/></linearGradient><linearGradient id="linear-gradient-37" x1="164.01" y1="-158.78" x2="155.83" y2="-158.85" gradientTransform="matrix(-1, -0.04, 0.05, -1.38, 645.14, -74.73)" xlink:href="#linear-gradient-15"/><linearGradient id="linear-gradient-38" x1="476.03" y1="277.32" x2="486.48" y2="285.79" gradientTransform="translate(-9.97 49.72)" xlink:href="#linear-gradient-26"/><linearGradient id="linear-gradient-39" x1="431.49" y1="540.72" x2="441.93" y2="549.19" gradientTransform="translate(62.76 -212.53)" xlink:href="#linear-gradient-26"/><linearGradient id="linear-gradient-40" x1="450.49" y1="266.71" x2="499.51" y2="266.71" gradientTransform="matrix(1, 0, 0, 1, 0, 0)" xlink:href="#linear-gradient-25"/><linearGradient id="linear-gradient-41" x1="494.89" y1="231.29" x2="470.55" y2="162.86" gradientTransform="matrix(1, 0, 0, 1, 0, 0)" xlink:href="#linear-gradient-26"/><linearGradient id="linear-gradient-42" x1="454.56" y1="334.37" x2="466.46" y2="344.02" gradientTransform="matrix(1, 0, 0, 1, 0, 0)" xlink:href="#linear-gradient-26"/><linearGradient id="linear-gradient-43" x1="488.29" y1="335.43" x2="498.16" y2="343.43" gradientTransform="matrix(1, 0, 0, 1, 0, 0)" xlink:href="#linear-gradient-26"/><linearGradient id="linear-gradient-44" x1="188.23" y1="-1131.89" x2="223.88" y2="-1131.89" gradientTransform="translate(297.53 1260.66) rotate(-1.72)" xlink:href="#linear-gradient-15"/><linearGradient id="linear-gradient-45" x1="404.4" y1="-276.52" x2="412.45" y2="-276.52" gradientTransform="translate(28.67 339.49) rotate(8.47)" xlink:href="#linear-gradient-26"/><linearGradient id="linear-gradient-46" x1="412.06" y1="-276.33" x2="417.54" y2="-276.33" gradientTransform="translate(23.43 335.33) rotate(8.47)" xlink:href="#linear-gradient-26"/><linearGradient id="linear-gradient-47" x1="468.16" y1="158.39" x2="482.21" y2="158.39" xlink:href="#linear-gradient-33"/><linearGradient id="linear-gradient-48" x1="462.38" y1="204.19" x2="467.64" y2="204.19" gradientTransform="translate(-16.16 50.77) rotate(-8.84)" gradientUnits="userSpaceOnUse"><stop offset="0" stop-color="#633fff"/><stop offset="1" stop-color="#c22aff"/></linearGradient><linearGradient id="linear-gradient-49" x1="455.73" y1="213.58" x2="493.93" y2="213.58" gradientTransform="matrix(1, 0, 0, 1, 0, 0)" xlink:href="#linear-gradient-25"/><linearGradient id="linear-gradient-50" x1="459.53" y1="324.63" x2="470.77" y2="324.63" gradientTransform="matrix(1, 0, 0, 1, 0, 0)" xlink:href="#linear-gradient-25"/><linearGradient id="linear-gradient-51" x1="488.01" y1="327.53" x2="499.26" y2="327.53" gradientTransform="matrix(1, 0, 0, 1, 0, 0)" xlink:href="#linear-gradient-25"/><linearGradient id="linear-gradient-52" x1="470.74" y1="268.24" x2="458.87" y2="268.55" gradientTransform="matrix(1, 0, 0, 1, 0, 0)" xlink:href="#linear-gradient-25"/><linearGradient id="linear-gradient-53" x1="504.65" y1="267.6" x2="477.66" y2="267.92" gradientTransform="matrix(1, 0, 0, 1, 0, 0)" xlink:href="#linear-gradient-25"/><linearGradient id="linear-gradient-54" x1="487.68" y1="226.57" x2="476.78" y2="239.09" gradientTransform="matrix(1, 0, 0, 1, 0, 0)" xlink:href="#linear-gradient-25"/><linearGradient id="linear-gradient-55" x1="537.01" y1="208.47" x2="487.55" y2="180.85" gradientTransform="matrix(1, 0, 0, 1, 0, 0)" xlink:href="#linear-gradient-26"/><linearGradient id="linear-gradient-56" x1="394.28" y1="-277.78" x2="402.33" y2="-277.78" gradientTransform="translate(136.38 -235.42) rotate(82.53)" xlink:href="#linear-gradient-26"/></defs><title>in_venue</title><rect id="Rectangle-3-Copy-2" class="cls-1" x="60.99" y="30.77" width="423.33" height="255.75" rx="2.53" ry="2.53"/><rect id="Rectangle-3-Copy-2-2" data-name="Rectangle-3-Copy-2" class="cls-2" x="27.77" width="423.33" height="255.75" rx="2.53" ry="2.53"/><g id="Final-Survey-Results" class="cls-3"><g class="cls-3"><path class="cls-4" d="M75.16,28.35V31.7h3.72v.61H75.16v4.13h-.68v-8.7h5.15l-.11.61Z" transform="translate(-5.24 -4.16)"/><path class="cls-4" d="M82,27.31V28h-.75v-.69ZM81.29,30h.65v6.48h-.65Z" transform="translate(-5.24 -4.16)"/><path class="cls-4" d="M89,32.46c0-1.41-.68-2-1.83-2a2,2,0,0,0-2,2v4h-.65V30H85l.14,1a2.55,2.55,0,0,1,2.13-1.09,2.21,2.21,0,0,1,2.4,2.43v4.17H89Z" transform="translate(-5.24 -4.16)"/><path class="cls-4" d="M97,36a1.38,1.38,0,0,0,.63-.2v.54a1.46,1.46,0,0,1-.81.24c-.65,0-.81-.56-.81-1.26a2.54,2.54,0,0,1-2.37,1.26c-1,0-2-.38-2-1.81,0-1.89,1.85-2.07,4.41-2.07v-.81c0-1.1-.48-1.46-1.69-1.46-1,0-1.85.37-1.85,1.32v.2h-.62a2.67,2.67,0,0,1,0-.33c0-1.14,1.1-1.78,2.5-1.78,1.57,0,2.33.61,2.33,1.92v3.82C96.69,35.87,96.85,36,97,36Zm-4.75-1.22c0,.84.44,1.22,1.52,1.22A2.16,2.16,0,0,0,96,33.7v-.43C93.77,33.27,92.28,33.36,92.28,34.77Z" transform="translate(-5.24 -4.16)"/><path class="cls-4" d="M99.54,27.31h.65v9.13h-.65Z" transform="translate(-5.24 -4.16)"/><path class="cls-4" d="M110.93,29.78c0-1.05-1-1.56-2.23-1.56s-2.22.42-2.22,1.56c0,2.45,5.34,1,5.34,4.27,0,1.85-1.41,2.51-3.08,2.51s-3.15-.62-3.15-2.5c0-.08,0-.23,0-.23h.65v.34c0,1.32,1.09,1.77,2.45,1.77s2.46-.43,2.46-1.86c0-2.68-5.34-1.17-5.34-4.35,0-1.5,1.34-2.13,2.88-2.13s2.88.63,2.88,2.28v.17h-.63Z" transform="translate(-5.24 -4.16)"/><path class="cls-4" d="M116.24,36.57a2.2,2.2,0,0,1-2.37-2.43V30h.65v4c0,1.41.68,2,1.83,2a2,2,0,0,0,2-2V30H119v5.6c0,.3.15.42.34.42a1.38,1.38,0,0,0,.63-.2v.54a1.46,1.46,0,0,1-.81.24c-.62,0-.81-.58-.81-1.09A2.48,2.48,0,0,1,116.24,36.57Z" transform="translate(-5.24 -4.16)"/><path class="cls-4" d="M125.63,32.08A1.52,1.52,0,0,0,124,30.42a1.76,1.76,0,0,0-1.64,1.91v4.11h-.65V30h.43l.14,1a1.93,1.93,0,0,1,1.84-1.09A2,2,0,0,1,126.25,32a1.71,1.71,0,0,1,0,.3h-.6Z" transform="translate(-5.24 -4.16)"/><path class="cls-4" d="M129.68,36.44,127.07,30h.7L130,35.5h0L132.24,30h.63l-2.62,6.48Z" transform="translate(-5.24 -4.16)"/><path class="cls-4" d="M136.77,36.57c-1.6,0-2.71-1.18-2.71-3.27v-.19c0-2.09,1.1-3.27,2.7-3.27a2.43,2.43,0,0,1,2.54,2.63v.81H134.7v.1c0,1.76.9,2.61,2.07,2.61A1.79,1.79,0,0,0,138.66,34h.63A2.39,2.39,0,0,1,136.77,36.57Zm-2.05-3.88h3.94v-.23a1.84,1.84,0,0,0-1.9-2C135.66,30.42,134.81,31.17,134.71,32.69Z" transform="translate(-5.24 -4.16)"/><path class="cls-4" d="M141.85,38.8a1.83,1.83,0,0,1-.8-.18V38a1.94,1.94,0,0,0,.68.18c.72,0,1-.75,1.19-1.26l.25-.62L140.61,30h.7l2.21,5.52h.05L145.78,30h.63l-2.56,6.31C143.31,37.63,143,38.8,141.85,38.8Z" transform="translate(-5.24 -4.16)"/><path class="cls-4" d="M157.31,36.48c-.39,0-1-.23-1-1.65,0-2.36-1.23-2.52-1.64-2.52h-2.8v4.13h-.68v-8.7h3.54a2.28,2.28,0,0,1,2.41,2.16A2.12,2.12,0,0,1,155.59,32V32s1.4.22,1.4,2.49c0,1.56.33,1.53.65,1.69v.24A1,1,0,0,1,157.31,36.48ZM156.48,30a1.67,1.67,0,0,0-1.7-1.66h-2.89V31.7h2.89A1.69,1.69,0,0,0,156.48,30Z" transform="translate(-5.24 -4.16)"/><path class="cls-4" d="M161.81,36.57c-1.6,0-2.71-1.18-2.71-3.27v-.19c0-2.09,1.1-3.27,2.7-3.27a2.43,2.43,0,0,1,2.54,2.63v.81h-4.59v.1c0,1.76.9,2.61,2.07,2.61A1.79,1.79,0,0,0,163.7,34h.63A2.39,2.39,0,0,1,161.81,36.57Zm-2.05-3.88h3.94v-.23a1.84,1.84,0,0,0-1.9-2C160.71,30.42,159.86,31.17,159.76,32.69Z" transform="translate(-5.24 -4.16)"/><path class="cls-4" d="M166.7,34.63c0,.88.81,1.36,2.1,1.36s1.84-.53,1.84-1.27c0-2-4.39-.65-4.39-3.11,0-1,.77-1.78,2.51-1.78s2.37,1,2.37,1.75a1.75,1.75,0,0,1,0,.18h-.63V31.6c0-.29-.11-1.18-1.84-1.18s-1.75.85-1.75,1.17c0,1.74,4.39.62,4.39,3,0,1.47-1.14,2-2.65,2-2,0-2.57-1.14-2.57-1.8a2.36,2.36,0,0,1,0-.32h.63A.84.84,0,0,0,166.7,34.63Z" transform="translate(-5.24 -4.16)"/><path class="cls-4" d="M175.62,36.57a2.2,2.2,0,0,1-2.37-2.43V30h.65v4c0,1.41.68,2,1.83,2a2,2,0,0,0,2-2V30h.65v5.6c0,.3.15.42.34.42a1.38,1.38,0,0,0,.63-.2v.54a1.46,1.46,0,0,1-.81.24c-.62,0-.81-.58-.81-1.09A2.48,2.48,0,0,1,175.62,36.57Z" transform="translate(-5.24 -4.16)"/><path class="cls-4" d="M181.2,27.31h.65v9.13h-.65Z" transform="translate(-5.24 -4.16)"/><path class="cls-4" d="M186,36.57a1.23,1.23,0,0,1-1.29-1.41V30.55H184V30h.71L185,27.9h.42V30h1.51v.58h-1.51v4.59c0,.75.37.85.72.85a2.68,2.68,0,0,0,.79-.2v.57A1.81,1.81,0,0,1,186,36.57Z" transform="translate(-5.24 -4.16)"/><path class="cls-4" d="M189.08,34.63c0,.88.81,1.36,2.1,1.36s1.84-.53,1.84-1.27c0-2-4.39-.65-4.39-3.11,0-1,.77-1.78,2.51-1.78s2.37,1,2.37,1.75a1.75,1.75,0,0,1,0,.18h-.63V31.6c0-.29-.11-1.18-1.84-1.18s-1.75.85-1.75,1.17c0,1.74,4.39.62,4.39,3,0,1.47-1.14,2-2.65,2-2,0-2.57-1.14-2.57-1.8a2.36,2.36,0,0,1,0-.32h.63A.84.84,0,0,0,189.08,34.63Z" transform="translate(-5.24 -4.16)"/></g></g><g id="Poll-Result-01" class="cls-3"><g class="cls-3"><path class="cls-4" d="M330.58,101.46h2.85a1.89,1.89,0,0,1,0,3.79h-2.3v3.16h-.55Zm4.21,1.89a1.42,1.42,0,0,0-1.44-1.41h-2.23v2.83h2.23A1.43,1.43,0,0,0,334.8,103.35Z" transform="translate(-5.24 -4.16)"/><path class="cls-4" d="M336.42,105.89v-.15c0-1.67.91-2.61,2.19-2.61s2.19.94,2.19,2.61v.15c0,1.67-.91,2.61-2.19,2.61S336.42,107.57,336.42,105.89Zm3.86.06v-.27c0-1.41-.74-2.09-1.67-2.09s-1.67.68-1.67,2.09V106c0,1.41.74,2.09,1.67,2.09S340.28,107.36,340.28,106Z" transform="translate(-5.24 -4.16)"/><path class="cls-4" d="M342.6,101.11h.52v7.29h-.52Z" transform="translate(-5.24 -4.16)"/><path class="cls-4" d="M345.31,101.11h.52v7.29h-.52Z" transform="translate(-5.24 -4.16)"/><path class="cls-4" d="M355.44,108.44c-.31,0-.79-.18-.79-1.32,0-1.88-1-2-1.31-2H351.1v3.3h-.55v-7h2.83a1.82,1.82,0,0,1,1.92,1.72,1.69,1.69,0,0,1-1.25,1.64v.05s1.11.17,1.11,2c0,1.25.26,1.23.52,1.35v.19A.82.82,0,0,1,355.44,108.44Zm-.67-5.17a1.33,1.33,0,0,0-1.36-1.33H351.1v2.67h2.31A1.35,1.35,0,0,0,354.77,103.27Z" transform="translate(-5.24 -4.16)"/><path class="cls-4" d="M359,108.51c-1.28,0-2.17-.94-2.17-2.61v-.15c0-1.67.88-2.61,2.16-2.61a1.94,1.94,0,0,1,2,2.1v.65h-3.67V106c0,1.41.72,2.09,1.65,2.09a1.43,1.43,0,0,0,1.51-1.55h.51A1.91,1.91,0,0,1,359,108.51Zm-1.64-3.1h3.15v-.18a1.47,1.47,0,0,0-1.52-1.63C358.16,103.59,357.48,104.19,357.4,105.41Z" transform="translate(-5.24 -4.16)"/><path class="cls-4" d="M363,107c0,.7.65,1.08,1.68,1.08s1.47-.43,1.47-1c0-1.59-3.51-.52-3.51-2.48,0-.78.62-1.42,2-1.42s1.89.79,1.89,1.4a1.32,1.32,0,0,1,0,.14H366v-.13c0-.23-.09-.94-1.47-.94s-1.4.68-1.4.93c0,1.39,3.5.5,3.5,2.4,0,1.18-.91,1.58-2.12,1.58-1.6,0-2.06-.91-2.06-1.44a2,2,0,0,1,0-.25H363A.7.7,0,0,0,363,107Z" transform="translate(-5.24 -4.16)"/><path class="cls-4" d="M370.09,108.51a1.76,1.76,0,0,1-1.89-1.95v-3.33h.52v3.18c0,1.13.55,1.63,1.46,1.63a1.57,1.57,0,0,0,1.59-1.63v-3.18h.52v4.48c0,.24.12.33.27.33a1.1,1.1,0,0,0,.51-.16v.44a1.16,1.16,0,0,1-.65.19c-.5,0-.65-.47-.65-.87A2,2,0,0,1,370.09,108.51Z" transform="translate(-5.24 -4.16)"/><path class="cls-4" d="M374.55,101.11h.52v7.29h-.52Z" transform="translate(-5.24 -4.16)"/><path class="cls-4" d="M378.42,108.51a1,1,0,0,1-1-1.12V103.7h-.57v-.47h.57l.18-1.65h.33v1.65h1.21v.47h-1.21v3.67c0,.6.29.68.58.68a2.14,2.14,0,0,0,.63-.16v.46A1.45,1.45,0,0,1,378.42,108.51Z" transform="translate(-5.24 -4.16)"/><path class="cls-4" d="M385.33,108.51a2.14,2.14,0,0,1-2.24-2.24v-2.67a2.24,2.24,0,1,1,4.48,0v2.67A2.14,2.14,0,0,1,385.33,108.51Zm0-6.67a1.64,1.64,0,0,0-1.69,1.69v2.8a1.69,1.69,0,1,0,3.38,0v-2.8A1.65,1.65,0,0,0,385.33,101.84Z" transform="translate(-5.24 -4.16)"/><path class="cls-4" d="M389.59,107.92h2v-5.79h-2v-.34a10.07,10.07,0,0,0,2.29-.44h.23v6.57h2v.49h-4.5Z" transform="translate(-5.24 -4.16)"/></g></g><g id="Poll-Result-02" class="cls-3"><g class="cls-3"><path class="cls-4" d="M330.58,122.8h2.85a1.89,1.89,0,0,1,0,3.79h-2.3v3.16h-.55Zm4.21,1.89a1.42,1.42,0,0,0-1.44-1.41h-2.23v2.83h2.23A1.43,1.43,0,0,0,334.8,124.69Z" transform="translate(-5.24 -4.16)"/><path class="cls-4" d="M336.42,127.24v-.15c0-1.67.91-2.61,2.19-2.61s2.19.94,2.19,2.61v.15c0,1.67-.91,2.61-2.19,2.61S336.42,128.91,336.42,127.24Zm3.86.06V127c0-1.41-.74-2.09-1.67-2.09s-1.67.68-1.67,2.09v.27c0,1.41.74,2.09,1.67,2.09S340.28,128.71,340.28,127.3Z" transform="translate(-5.24 -4.16)"/><path class="cls-4" d="M342.6,122.46h.52v7.29h-.52Z" transform="translate(-5.24 -4.16)"/><path class="cls-4" d="M345.31,122.46h.52v7.29h-.52Z" transform="translate(-5.24 -4.16)"/><path class="cls-4" d="M355.44,129.78c-.31,0-.79-.18-.79-1.32,0-1.88-1-2-1.31-2H351.1v3.3h-.55v-7h2.83a1.82,1.82,0,0,1,1.92,1.72,1.69,1.69,0,0,1-1.25,1.64v.05s1.11.17,1.11,2c0,1.25.26,1.23.52,1.35v.19A.82.82,0,0,1,355.44,129.78Zm-.67-5.17a1.33,1.33,0,0,0-1.36-1.33H351.1V126h2.31A1.35,1.35,0,0,0,354.77,124.61Z" transform="translate(-5.24 -4.16)"/><path class="cls-4" d="M359,129.85c-1.28,0-2.17-.94-2.17-2.61v-.15c0-1.67.88-2.61,2.16-2.61a1.94,1.94,0,0,1,2,2.1v.65h-3.67v.08c0,1.41.72,2.09,1.65,2.09a1.43,1.43,0,0,0,1.51-1.55h.51A1.91,1.91,0,0,1,359,129.85Zm-1.64-3.1h3.15v-.18a1.47,1.47,0,0,0-1.52-1.63C358.16,124.94,357.48,125.54,357.4,126.75Z" transform="translate(-5.24 -4.16)"/><path class="cls-4" d="M363,128.3c0,.7.65,1.08,1.68,1.08s1.47-.43,1.47-1c0-1.59-3.51-.52-3.51-2.48,0-.78.62-1.42,2-1.42s1.89.79,1.89,1.4a1.32,1.32,0,0,1,0,.14H366v-.13c0-.23-.09-.94-1.47-.94s-1.4.68-1.4.93c0,1.39,3.5.5,3.5,2.4,0,1.18-.91,1.58-2.12,1.58-1.6,0-2.06-.91-2.06-1.44a2,2,0,0,1,0-.25H363A.7.7,0,0,0,363,128.3Z" transform="translate(-5.24 -4.16)"/><path class="cls-4" d="M370.09,129.85a1.76,1.76,0,0,1-1.89-1.95v-3.33h.52v3.18c0,1.12.55,1.63,1.46,1.63a1.57,1.57,0,0,0,1.59-1.63v-3.18h.52v4.48c0,.24.12.33.27.33a1.1,1.1,0,0,0,.51-.16v.44a1.16,1.16,0,0,1-.65.19c-.5,0-.65-.47-.65-.87A2,2,0,0,1,370.09,129.85Z" transform="translate(-5.24 -4.16)"/><path class="cls-4" d="M374.55,122.46h.52v7.29h-.52Z" transform="translate(-5.24 -4.16)"/><path class="cls-4" d="M378.42,129.85a1,1,0,0,1-1-1.12V125h-.57v-.47h.57l.18-1.65h.33v1.65h1.21V125h-1.21v3.67c0,.6.29.68.58.68a2.14,2.14,0,0,0,.63-.16v.46A1.45,1.45,0,0,1,378.42,129.85Z" transform="translate(-5.24 -4.16)"/><path class="cls-4" d="M385.33,129.85a2.14,2.14,0,0,1-2.24-2.24v-2.67a2.24,2.24,0,1,1,4.48,0v2.67A2.14,2.14,0,0,1,385.33,129.85Zm0-6.67a1.64,1.64,0,0,0-1.69,1.69v2.8a1.69,1.69,0,1,0,3.38,0v-2.8A1.65,1.65,0,0,0,385.33,123.19Z" transform="translate(-5.24 -4.16)"/><path class="cls-4" d="M390.36,127.76l2-1.33a1.85,1.85,0,0,0,.92-1.56,1.58,1.58,0,0,0-1.66-1.69,1.7,1.7,0,0,0-1.72,1.72,1.79,1.79,0,0,0,0,.24h-.55a1.3,1.3,0,0,1,0-.18,2.19,2.19,0,0,1,2.27-2.27,2.09,2.09,0,0,1,2.21,2.15,2.32,2.32,0,0,1-1.22,2.06l-2.15,1.39a1.14,1.14,0,0,0-.6,1h4v.49h-4.6v-.23A1.85,1.85,0,0,1,390.36,127.76Z" transform="translate(-5.24 -4.16)"/></g></g><g id="Poll-Result-03" class="cls-3"><g class="cls-3"><path class="cls-4" d="M330.58,141.54h2.85a1.89,1.89,0,0,1,0,3.79h-2.3v3.16h-.55Zm4.21,1.89a1.42,1.42,0,0,0-1.44-1.41h-2.23v2.83h2.23A1.43,1.43,0,0,0,334.8,143.44Z" transform="translate(-5.24 -4.16)"/><path class="cls-4" d="M336.42,146v-.15c0-1.67.91-2.61,2.19-2.61s2.19.94,2.19,2.61V146c0,1.67-.91,2.61-2.19,2.61S336.42,147.65,336.42,146Zm3.86.06v-.27c0-1.41-.74-2.09-1.67-2.09s-1.67.68-1.67,2.09V146c0,1.41.74,2.09,1.67,2.09S340.28,147.45,340.28,146Z" transform="translate(-5.24 -4.16)"/><path class="cls-4" d="M342.6,141.2h.52v7.29h-.52Z" transform="translate(-5.24 -4.16)"/><path class="cls-4" d="M345.31,141.2h.52v7.29h-.52Z" transform="translate(-5.24 -4.16)"/><path class="cls-4" d="M355.44,148.52c-.31,0-.79-.18-.79-1.32,0-1.88-1-2-1.31-2H351.1v3.3h-.55v-7h2.83a1.82,1.82,0,0,1,1.92,1.72,1.69,1.69,0,0,1-1.25,1.64V145s1.11.17,1.11,2c0,1.25.26,1.23.52,1.35v.19A.82.82,0,0,1,355.44,148.52Zm-.67-5.17a1.33,1.33,0,0,0-1.36-1.33H351.1v2.67h2.31A1.35,1.35,0,0,0,354.77,143.35Z" transform="translate(-5.24 -4.16)"/><path class="cls-4" d="M359,148.59c-1.28,0-2.17-.94-2.17-2.61v-.15c0-1.67.88-2.61,2.16-2.61a1.94,1.94,0,0,1,2,2.1V146h-3.67V146c0,1.41.72,2.09,1.65,2.09a1.43,1.43,0,0,0,1.51-1.55h.51A1.91,1.91,0,0,1,359,148.59Zm-1.64-3.1h3.15v-.18a1.47,1.47,0,0,0-1.52-1.63C358.16,143.68,357.48,144.28,357.4,145.49Z" transform="translate(-5.24 -4.16)"/><path class="cls-4" d="M363,147c0,.7.65,1.08,1.68,1.08s1.47-.43,1.47-1c0-1.59-3.51-.52-3.51-2.48,0-.78.62-1.42,2-1.42s1.89.79,1.89,1.4a1.32,1.32,0,0,1,0,.14H366v-.13c0-.23-.09-.94-1.47-.94s-1.4.68-1.4.93c0,1.39,3.5.5,3.5,2.4,0,1.18-.91,1.58-2.12,1.58-1.6,0-2.06-.91-2.06-1.44a2,2,0,0,1,0-.25H363A.7.7,0,0,0,363,147Z" transform="translate(-5.24 -4.16)"/><path class="cls-4" d="M370.09,148.59a1.76,1.76,0,0,1-1.89-1.95v-3.33h.52v3.18c0,1.13.55,1.63,1.46,1.63a1.57,1.57,0,0,0,1.59-1.63v-3.18h.52v4.48c0,.24.12.33.27.33a1.1,1.1,0,0,0,.51-.16v.44a1.16,1.16,0,0,1-.65.19c-.5,0-.65-.47-.65-.87A2,2,0,0,1,370.09,148.59Z" transform="translate(-5.24 -4.16)"/><path class="cls-4" d="M374.55,141.2h.52v7.29h-.52Z" transform="translate(-5.24 -4.16)"/><path class="cls-4" d="M378.42,148.59a1,1,0,0,1-1-1.12v-3.69h-.57v-.47h.57l.18-1.65h.33v1.65h1.21v.47h-1.21v3.67c0,.6.29.68.58.68a2.14,2.14,0,0,0,.63-.16v.46A1.45,1.45,0,0,1,378.42,148.59Z" transform="translate(-5.24 -4.16)"/><path class="cls-4" d="M385.33,148.59a2.14,2.14,0,0,1-2.24-2.24v-2.67a2.24,2.24,0,1,1,4.48,0v2.67A2.14,2.14,0,0,1,385.33,148.59Zm0-6.67a1.64,1.64,0,0,0-1.69,1.69v2.8a1.69,1.69,0,1,0,3.38,0v-2.8A1.65,1.65,0,0,0,385.33,141.93Z" transform="translate(-5.24 -4.16)"/><path class="cls-4" d="M391.51,148.13c1,0,1.79-.53,1.79-1.47s-.82-1.48-1.79-1.48h-.78v-.49h.73c.9,0,1.69-.45,1.69-1.38s-.74-1.39-1.64-1.39-1.64.5-1.64,1.39v.14h-.54v-.14a2.21,2.21,0,0,1,4.37,0,1.64,1.64,0,0,1-1.15,1.58v0a1.68,1.68,0,0,1,1.29,1.71,2.08,2.08,0,0,1-2.33,1.95,2.06,2.06,0,0,1-2.32-1.95v-.17h.54v.18C389.73,147.58,390.46,148.13,391.51,148.13Z" transform="translate(-5.24 -4.16)"/></g></g><g id="Poll-Result-04" class="cls-3"><g class="cls-3"><path class="cls-4" d="M330.58,162.62h2.85a1.89,1.89,0,0,1,0,3.79h-2.3v3.16h-.55Zm4.21,1.89a1.42,1.42,0,0,0-1.44-1.41h-2.23v2.83h2.23A1.43,1.43,0,0,0,334.8,164.51Z" transform="translate(-5.24 -4.16)"/><path class="cls-4" d="M336.42,167.06v-.15c0-1.67.91-2.61,2.19-2.61s2.19.94,2.19,2.61v.15c0,1.67-.91,2.61-2.19,2.61S336.42,168.73,336.42,167.06Zm3.86.06v-.27c0-1.41-.74-2.09-1.67-2.09s-1.67.68-1.67,2.09v.27c0,1.41.74,2.09,1.67,2.09S340.28,168.53,340.28,167.12Z" transform="translate(-5.24 -4.16)"/><path class="cls-4" d="M342.6,162.27h.52v7.29h-.52Z" transform="translate(-5.24 -4.16)"/><path class="cls-4" d="M345.31,162.27h.52v7.29h-.52Z" transform="translate(-5.24 -4.16)"/><path class="cls-4" d="M355.44,169.6c-.31,0-.79-.18-.79-1.32,0-1.88-1-2-1.31-2H351.1v3.3h-.55v-7h2.83a1.82,1.82,0,0,1,1.92,1.72,1.69,1.69,0,0,1-1.25,1.64V166s1.11.17,1.11,2c0,1.25.26,1.23.52,1.35v.19A.82.82,0,0,1,355.44,169.6Zm-.67-5.17a1.33,1.33,0,0,0-1.36-1.33H351.1v2.67h2.31A1.35,1.35,0,0,0,354.77,164.43Z" transform="translate(-5.24 -4.16)"/><path class="cls-4" d="M359,169.67c-1.28,0-2.17-.94-2.17-2.61v-.15c0-1.67.88-2.61,2.16-2.61a1.94,1.94,0,0,1,2,2.1V167h-3.67v.08c0,1.41.72,2.09,1.65,2.09a1.43,1.43,0,0,0,1.51-1.55h.51A1.91,1.91,0,0,1,359,169.67Zm-1.64-3.1h3.15v-.18a1.47,1.47,0,0,0-1.52-1.63C358.16,164.76,357.48,165.35,357.4,166.57Z" transform="translate(-5.24 -4.16)"/><path class="cls-4" d="M363,168.12c0,.7.65,1.08,1.68,1.08s1.47-.43,1.47-1c0-1.59-3.51-.52-3.51-2.48,0-.78.62-1.42,2-1.42s1.89.79,1.89,1.4a1.32,1.32,0,0,1,0,.14H366v-.13c0-.23-.09-.94-1.47-.94s-1.4.68-1.4.93c0,1.39,3.5.5,3.5,2.4,0,1.18-.91,1.58-2.12,1.58-1.6,0-2.06-.91-2.06-1.44a2,2,0,0,1,0-.25H363A.7.7,0,0,0,363,168.12Z" transform="translate(-5.24 -4.16)"/><path class="cls-4" d="M370.09,169.67a1.76,1.76,0,0,1-1.89-1.95v-3.33h.52v3.18c0,1.13.55,1.63,1.46,1.63a1.57,1.57,0,0,0,1.59-1.63v-3.18h.52v4.48c0,.24.12.33.27.33a1.1,1.1,0,0,0,.51-.16v.44a1.16,1.16,0,0,1-.65.19c-.5,0-.65-.47-.65-.87A2,2,0,0,1,370.09,169.67Z" transform="translate(-5.24 -4.16)"/><path class="cls-4" d="M374.55,162.27h.52v7.29h-.52Z" transform="translate(-5.24 -4.16)"/><path class="cls-4" d="M378.42,169.67a1,1,0,0,1-1-1.12v-3.69h-.57v-.47h.57l.18-1.65h.33v1.65h1.21v.47h-1.21v3.67c0,.6.29.68.58.68a2.14,2.14,0,0,0,.63-.16v.46A1.45,1.45,0,0,1,378.42,169.67Z" transform="translate(-5.24 -4.16)"/><path class="cls-4" d="M385.33,169.67a2.14,2.14,0,0,1-2.24-2.24v-2.67a2.24,2.24,0,1,1,4.48,0v2.67A2.14,2.14,0,0,1,385.33,169.67Zm0-6.67a1.64,1.64,0,0,0-1.69,1.69v2.8a1.69,1.69,0,1,0,3.38,0v-2.8A1.65,1.65,0,0,0,385.33,163Z" transform="translate(-5.24 -4.16)"/><path class="cls-4" d="M393,163.76h.19v3.42H394v.49h-.83v1.89h-.57v-1.89h-3.5v-.49a25.55,25.55,0,0,0,2.39-4.67h.57a17.08,17.08,0,0,1-2.38,4.67h2.93v-2.6C392.72,164.38,392.9,164,393,163.76Z" transform="translate(-5.24 -4.16)"/></g></g><g id="Poll-Result-05" class="cls-3"><g class="cls-3"><path class="cls-4" d="M330.58,185.06h2.85a1.89,1.89,0,0,1,0,3.79h-2.3V192h-.55ZM334.8,187a1.42,1.42,0,0,0-1.44-1.41h-2.23v2.83h2.23A1.43,1.43,0,0,0,334.8,187Z" transform="translate(-5.24 -4.16)"/><path class="cls-4" d="M336.42,189.5v-.15c0-1.67.91-2.61,2.19-2.61s2.19.94,2.19,2.61v.15c0,1.67-.91,2.61-2.19,2.61S336.42,191.17,336.42,189.5Zm3.86.06v-.27c0-1.41-.74-2.09-1.67-2.09s-1.67.68-1.67,2.09v.27c0,1.41.74,2.09,1.67,2.09S340.28,191,340.28,189.56Z" transform="translate(-5.24 -4.16)"/><path class="cls-4" d="M342.6,184.71h.52V192h-.52Z" transform="translate(-5.24 -4.16)"/><path class="cls-4" d="M345.31,184.71h.52V192h-.52Z" transform="translate(-5.24 -4.16)"/><path class="cls-4" d="M355.44,192c-.31,0-.79-.18-.79-1.32,0-1.88-1-2-1.31-2H351.1V192h-.55v-7h2.83a1.82,1.82,0,0,1,1.92,1.72,1.69,1.69,0,0,1-1.25,1.64v.05s1.11.17,1.11,2c0,1.25.26,1.23.52,1.35V192A.83.83,0,0,1,355.44,192Zm-.67-5.17a1.33,1.33,0,0,0-1.36-1.33H351.1v2.67h2.31A1.35,1.35,0,0,0,354.77,186.87Z" transform="translate(-5.24 -4.16)"/><path class="cls-4" d="M359,192.11c-1.28,0-2.17-.94-2.17-2.61v-.15c0-1.67.88-2.61,2.16-2.61a1.94,1.94,0,0,1,2,2.1v.65h-3.67v.08c0,1.41.72,2.09,1.65,2.09a1.43,1.43,0,0,0,1.51-1.55h.51A1.91,1.91,0,0,1,359,192.11ZM357.4,189h3.15v-.18A1.47,1.47,0,0,0,359,187.2C358.16,187.2,357.48,187.79,357.4,189Z" transform="translate(-5.24 -4.16)"/><path class="cls-4" d="M363,190.56c0,.7.65,1.08,1.68,1.08s1.47-.43,1.47-1c0-1.59-3.51-.52-3.51-2.48,0-.78.62-1.42,2-1.42s1.89.79,1.89,1.4a1.32,1.32,0,0,1,0,.14H366v-.13c0-.23-.09-.94-1.47-.94s-1.4.68-1.4.93c0,1.39,3.5.5,3.5,2.4,0,1.18-.91,1.58-2.12,1.58-1.6,0-2.06-.91-2.06-1.44a2,2,0,0,1,0-.25H363A.7.7,0,0,0,363,190.56Z" transform="translate(-5.24 -4.16)"/><path class="cls-4" d="M370.09,192.11a1.76,1.76,0,0,1-1.89-1.95v-3.33h.52V190c0,1.13.55,1.63,1.46,1.63a1.57,1.57,0,0,0,1.59-1.63v-3.18h.52v4.48c0,.24.12.33.27.33a1.1,1.1,0,0,0,.51-.16v.44a1.17,1.17,0,0,1-.65.19c-.5,0-.65-.47-.65-.87A2,2,0,0,1,370.09,192.11Z" transform="translate(-5.24 -4.16)"/><path class="cls-4" d="M374.55,184.71h.52V192h-.52Z" transform="translate(-5.24 -4.16)"/><path class="cls-4" d="M378.42,192.11a1,1,0,0,1-1-1.12V187.3h-.57v-.47h.57l.18-1.65h.33v1.65h1.21v.47h-1.21V191c0,.6.29.68.58.68a2.15,2.15,0,0,0,.63-.16v.46A1.44,1.44,0,0,1,378.42,192.11Z" transform="translate(-5.24 -4.16)"/><path class="cls-4" d="M385.33,192.11a2.14,2.14,0,0,1-2.24-2.24V187.2a2.24,2.24,0,1,1,4.48,0v2.67A2.14,2.14,0,0,1,385.33,192.11Zm0-6.67a1.65,1.65,0,0,0-1.69,1.69v2.8a1.69,1.69,0,1,0,3.38,0v-2.8A1.65,1.65,0,0,0,385.33,185.44Z" transform="translate(-5.24 -4.16)"/><path class="cls-4" d="M391.56,191.62a1.69,1.69,0,0,0,1.69-1.79,1.73,1.73,0,0,0-1.69-1.79,1.79,1.79,0,0,0-1.54.9l-.49-.07.28-3.81h3.68v.55h-3.17l-.19,2.53a2.2,2.2,0,0,1,1.5-.6,2.13,2.13,0,0,1,2.17,2.29,2.19,2.19,0,0,1-2.24,2.28,2.14,2.14,0,0,1-2.24-2.24h.55A1.66,1.66,0,0,0,391.56,191.62Z" transform="translate(-5.24 -4.16)"/></g></g><g id="Poll-Result-06" class="cls-3"><g class="cls-3"><path class="cls-4" d="M330.58,205.71h2.85a1.89,1.89,0,0,1,0,3.79h-2.3v3.16h-.55Zm4.21,1.89a1.42,1.42,0,0,0-1.44-1.41h-2.23V209h2.23A1.43,1.43,0,0,0,334.8,207.6Z" transform="translate(-5.24 -4.16)"/><path class="cls-4" d="M336.42,210.15V210c0-1.67.91-2.61,2.19-2.61s2.19.94,2.19,2.61v.15c0,1.67-.91,2.61-2.19,2.61S336.42,211.82,336.42,210.15Zm3.86.06v-.27c0-1.41-.74-2.09-1.67-2.09s-1.67.68-1.67,2.09v.27c0,1.41.74,2.09,1.67,2.09S340.28,211.62,340.28,210.21Z" transform="translate(-5.24 -4.16)"/><path class="cls-4" d="M342.6,205.36h.52v7.29h-.52Z" transform="translate(-5.24 -4.16)"/><path class="cls-4" d="M345.31,205.36h.52v7.29h-.52Z" transform="translate(-5.24 -4.16)"/><path class="cls-4" d="M355.44,212.69c-.31,0-.79-.18-.79-1.32,0-1.88-1-2-1.31-2H351.1v3.3h-.55v-7h2.83a1.82,1.82,0,0,1,1.92,1.72,1.69,1.69,0,0,1-1.25,1.64v.05s1.11.17,1.11,2c0,1.25.26,1.23.52,1.35v.19A.83.83,0,0,1,355.44,212.69Zm-.67-5.17a1.33,1.33,0,0,0-1.36-1.33H351.1v2.67h2.31A1.35,1.35,0,0,0,354.77,207.52Z" transform="translate(-5.24 -4.16)"/><path class="cls-4" d="M359,212.76c-1.28,0-2.17-.94-2.17-2.61V210c0-1.67.88-2.61,2.16-2.61a1.94,1.94,0,0,1,2,2.1v.65h-3.67v.08c0,1.41.72,2.09,1.65,2.09a1.43,1.43,0,0,0,1.51-1.55h.51A1.91,1.91,0,0,1,359,212.76Zm-1.64-3.1h3.15v-.18a1.47,1.47,0,0,0-1.52-1.63C358.16,207.85,357.48,208.44,357.4,209.66Z" transform="translate(-5.24 -4.16)"/><path class="cls-4" d="M363,211.21c0,.7.65,1.08,1.68,1.08s1.47-.42,1.47-1c0-1.59-3.51-.52-3.51-2.48,0-.78.62-1.42,2-1.42s1.89.79,1.89,1.4a1.32,1.32,0,0,1,0,.14H366v-.13c0-.23-.09-.94-1.47-.94s-1.4.68-1.4.93c0,1.39,3.5.5,3.5,2.4,0,1.18-.91,1.58-2.12,1.58-1.6,0-2.06-.91-2.06-1.44a2,2,0,0,1,0-.25H363A.69.69,0,0,0,363,211.21Z" transform="translate(-5.24 -4.16)"/><path class="cls-4" d="M370.09,212.76a1.76,1.76,0,0,1-1.89-1.95v-3.33h.52v3.18c0,1.13.55,1.63,1.46,1.63a1.57,1.57,0,0,0,1.59-1.63v-3.18h.52V212c0,.24.12.33.27.33a1.09,1.09,0,0,0,.51-.16v.44a1.17,1.17,0,0,1-.65.19c-.5,0-.65-.47-.65-.87A2,2,0,0,1,370.09,212.76Z" transform="translate(-5.24 -4.16)"/><path class="cls-4" d="M374.55,205.36h.52v7.29h-.52Z" transform="translate(-5.24 -4.16)"/><path class="cls-4" d="M378.42,212.76a1,1,0,0,1-1-1.12v-3.69h-.57v-.47h.57l.18-1.65h.33v1.65h1.21v.47h-1.21v3.67c0,.6.29.68.58.68a2.12,2.12,0,0,0,.63-.16v.46A1.44,1.44,0,0,1,378.42,212.76Z" transform="translate(-5.24 -4.16)"/><path class="cls-4" d="M385.33,212.76a2.14,2.14,0,0,1-2.24-2.24v-2.67a2.24,2.24,0,1,1,4.48,0v2.67A2.14,2.14,0,0,1,385.33,212.76Zm0-6.67a1.65,1.65,0,0,0-1.69,1.69v2.8a1.69,1.69,0,1,0,3.38,0v-2.8A1.65,1.65,0,0,0,385.33,206.09Z" transform="translate(-5.24 -4.16)"/><path class="cls-4" d="M391.73,208.31a2.23,2.23,0,1,1-2.32,2.21v-2.67a2.11,2.11,0,0,1,2.2-2.24,2.08,2.08,0,0,1,2.16,2.24h-.53v-.06a1.6,1.6,0,0,0-1.63-1.69,1.61,1.61,0,0,0-1.65,1.69v1.42A2.16,2.16,0,0,1,391.73,208.31Zm-.08,4a1.65,1.65,0,0,0,1.69-1.69v-.09a1.69,1.69,0,1,0-3.38,0v.09A1.65,1.65,0,0,0,391.64,212.27Z" transform="translate(-5.24 -4.16)"/></g></g><g id="Line-divider" class="cls-5"><rect id="Rectangle-12" class="cls-6" x="70.69" y="209.93" width="195.9" height="1.27"/></g><g id="Line-divider-2" data-name="Line-divider" class="cls-5"><rect id="Rectangle-12-2" data-name="Rectangle-12" class="cls-6" x="71.04" y="164.08" width="194.64" height="1.27"/></g><g id="Line-divider-3" data-name="Line-divider" class="cls-5"><rect id="Rectangle-12-3" data-name="Rectangle-12" class="cls-6" x="70.35" y="69.97" width="194.64" height="1.27"/></g><g id="Line-divider-4" data-name="Line-divider" class="cls-5"><rect id="Rectangle-12-4" data-name="Rectangle-12" class="cls-6" x="70.35" y="92.78" width="194.64" height="1.27"/></g><g id="Line-divider-5" data-name="Line-divider" class="cls-5"><rect id="Rectangle-12-5" data-name="Rectangle-12" class="cls-6" x="71.04" y="140.1" width="194.64" height="1.27"/></g><g id="Line-divider-6" data-name="Line-divider" class="cls-5"><rect id="Rectangle-12-6" data-name="Rectangle-12" class="cls-6" x="71.04" y="117.16" width="194.64" height="1.27"/></g><g id="Line-divider-7" data-name="Line-divider" class="cls-5"><rect id="Rectangle-12-7" data-name="Rectangle-12" class="cls-6" x="71.04" y="187.83" width="194.64" height="1.27"/></g><rect id="Rectangle-3" class="cls-7" x="69.72" y="117.16" width="20.28" height="94.03" rx="2.53" ry="2.53"/><rect id="Rectangle-3-Copy-6" class="cls-8" x="120.83" y="163.55" width="20.28" height="47.54" rx="2.53" ry="2.53"/><rect id="Rectangle-3-Copy-5" class="cls-9" x="95.18" y="69.77" width="20.28" height="141.43" rx="2.53" ry="2.53"/><rect id="Rectangle-3-Copy-7" class="cls-10" x="172.77" y="108.88" width="20.28" height="101.99" rx="2.53" ry="2.53"/><rect id="Rectangle-3-Copy-4" class="cls-11" x="147.12" y="83.99" width="20.28" height="127.09" rx="2.53" ry="2.53"/><rect id="Rectangle-3-Copy-8" class="cls-12" x="198" y="139.54" width="20.28" height="70.39" rx="2.53" ry="2.53"/><circle id="Oval" class="cls-13" cx="307.23" cy="101.14" r="5.42"/><circle id="Oval-Copy" class="cls-14" cx="307.23" cy="122.08" r="5.42"/><circle id="Oval-Copy-5" class="cls-15" cx="307.52" cy="183.77" r="5.42"/><circle id="Oval-Copy-2" class="cls-16" cx="307.23" cy="142.15" r="5.42"/><circle id="Oval-Copy-3" class="cls-17" cx="308.5" cy="204.7" r="5.42"/><circle id="Oval-Copy-4" class="cls-18" cx="307.55" cy="162.36" r="5.42"/><polygon class="cls-19" points="45.16 276.59 72.03 328.59 74.59 330.4 61.88 282.08 45.16 276.59"/><polygon class="cls-20" points="20.84 269.07 4.3 325.7 7.02 327.81 36.5 274.35 20.84 269.07"/><path class="cls-21" d="M45.72,162.83c-3.21,1.3-8.56-1-8.56-1l1.14-6.31,8.59-.23S45.79,162.36,45.72,162.83Z" transform="translate(-5.24 -4.16)"/><path class="cls-22" d="M54.58,145.81c-.65,8-6.85,13.06-13.59,12.52a11.26,11.26,0,0,1-8.11-4.71A16,16,0,0,1,30,142.77c.65-8,5.93-12.61,12.67-12.06S55.23,137.77,54.58,145.81Z" transform="translate(-5.24 -4.16)"/><path class="cls-23" d="M62.63,168.54l1.2.51a.6.6,0,0,0,.77-.26l5.11-10.21a.52.52,0,0,0-.28-.72l-1.2-.51a.6.6,0,0,0-.77.26l-5.11,10.21A.52.52,0,0,0,62.63,168.54Z" transform="translate(-5.24 -4.16)"/><path class="cls-24" d="M72.54,160.82l-1,.58.09.63L68,166.82a.58.58,0,0,0,.15.85l1.3.85a.7.7,0,0,0,.92-.15l4.51-5.9a.58.58,0,0,0-.15-.85l-1.3-.85A.67.67,0,0,0,72.54,160.82Z" transform="translate(-5.24 -4.16)"/><polygon class="cls-25" points="52.48 172.15 66.1 166.68 69.64 158.19 58.93 160.1 52.48 172.15"/><path class="cls-26" d="M424.51,148l-1.51-.41a.83.83,0,0,1-.63-.76l.64-12c0-.32.33-.49.69-.39l1.51.41a.83.83,0,0,1,.63.76l-.64,12C425.19,147.91,424.87,148.09,424.51,148Z" transform="translate(-5.24 -4.16)"/><path class="cls-27" d="M418,130.43l1.43,7.36a.52.52,0,0,1-.64.59l-1.8-.21a1,1,0,0,1-.84-.76l-1.2-8a.52.52,0,0,1,.64-.59S417.58,129.13,418,130.43Z" transform="translate(-5.24 -4.16)"/><polygon class="cls-28" points="419.82 153.65 409.16 139.65 410.41 130.19 420.14 139.23 419.82 153.65"/><path class="cls-29" d="M66.41,174.6l.62-1.5c-3.07-3.49-7.89-2.58-7.89-2.58l-7.45,19.19,5.56,11Z" transform="translate(-5.24 -4.16)"/><path class="cls-30" d="M27.19,201.67s-3.28,18.14-3.83,28.65,43.05,93.32,43.05,93.32l12.08-3.93L44.35,202.64l-15.53-.85Z" transform="translate(-5.24 -4.16)"/><path class="cls-31" d="M9.67,329.65,5.24,342l24.74,1A21.91,21.91,0,0,0,25,339c-1.43-.81-4.32-1.42-8.28-4.17C14.31,333.15,9.67,329.65,9.67,329.65Z" transform="translate(-5.24 -4.16)"/><path class="cls-32" d="M7.2,336.1l-2,5.91,25.69,1.28-.1-2-8.53-3.49s-1.1.23-.87,1a5.71,5.71,0,0,0,.75,1.53L7.86,336.24,7,334.49l-.8.16Z" transform="translate(-5.24 -4.16)"/><path class="cls-33" d="M77.3,332.64,72.88,345l24.74,1a21.91,21.91,0,0,0-5-4.08c-1.43-.81-4.32-1.42-8.28-4.17C81.94,336.14,77.3,332.64,77.3,332.64Z" transform="translate(-5.24 -4.16)"/><path class="cls-32" d="M74.83,339.09l-2,5.91,25.69,1.28-.1-2-8.53-3.49s-1.1.23-.87,1a5.71,5.71,0,0,0,.75,1.53l-14.33-4.15-.9-1.75-.8.16Z" transform="translate(-5.24 -4.16)"/><path class="cls-32" d="M50.64,132.34s5.63,11.91-3.5,15.35c-6.9,2.6-7.47,9.73-11.31,8.82,0,0-13.69-9-5.66-21A13.4,13.4,0,0,1,43,129.14C46.1,129.29,50.64,132.34,50.64,132.34Z" transform="translate(-5.24 -4.16)"/><path class="cls-32" d="M19.22,129.71h2.66a5,5,0,0,1,5,5v99.52a0,0,0,0,1,0,0H14.25a0,0,0,0,1,0,0V134.69A5,5,0,0,1,19.22,129.71Z" transform="translate(25.14 -5.05) rotate(9.52)"/><path class="cls-34" d="M27.18,201.49l-3-22.73a16.45,16.45,0,0,1,1.53-9.59,15.9,15.9,0,0,1,2.13-3.2c2.73-3.17,6.15-4.74,11.28-4,1.2.18,6,.53,6.53.46,1.23-.16,2.43,8.94,5.46,14.87,2.67,5.22,1.29,9.13,0,11.44-1.6,2.8-2.84,4-2.93,4.78-.37,3.05-3.79,8.92-3.79,8.92Z" transform="translate(-5.24 -4.16)"/><path class="cls-35" d="M51.78,189.82,39.42,170.63A8.69,8.69,0,0,0,35.15,167l-.59-.09a7,7,0,0,0-.73.06c-4.41.79-5.85,5.6-4.45,10.4h0l18.45,26c1.82,2.56,5.54,3.32,7.37,1.13l2.08-3.79Z" transform="translate(-5.24 -4.16)"/><path class="cls-36" d="M5.81,323.46l13.61,1.43,28.11-58.22-3.18-64-17.18-.92s-13.93,12.14-11.7,25.49c3.61,21.67,7.66,40.42,7.66,40.42Z" transform="translate(-5.24 -4.16)"/><path class="cls-37" d="M469.82,125.14s-1.49-2.67-2.71-.71" transform="translate(-5.24 -4.16)"/><line class="cls-38" x1="467.82" y1="170.45" x2="469.39" y2="167.65"/><path class="cls-39" d="M464.59,141.4s-9.37-1-11.75,4.24c-2.74,6-2,19.71-7.05,34.83-.71,2.12-18.11-32-18.11-32l-9.09,4.75,15.5,36.91s7.24,8.83,15.07,4.7a28.62,28.62,0,0,0,7.78-6.74Z" transform="translate(-5.24 -4.16)"/><path class="cls-40" d="M498.16,227.73l-3.58,5.17s5.43,4.36,7.77,3.84c1.21-.62,1.83-.85,1.83-.85l.65-7.69Z" transform="translate(-5.24 -4.16)"/><polygon class="cls-41" points="489.32 228.67 488.68 236.63 490.49 240.9 492.9 241.54 494.92 238.55 499 231.72 489.32 228.67"/><path class="cls-42" d="M470.76,134.09c3.25-2.45,8.89.34,8.89.34l-.34,8.93-8.89-.34S470.73,134.79,470.76,134.09Z" transform="translate(-5.24 -4.16)"/><rect class="cls-43" x="465.39" y="323.6" width="10.03" height="13.91" transform="matrix(1, 0.03, -0.03, 1, 6.37, -20.09)"/><rect class="cls-44" x="493.57" y="324.76" width="10.03" height="13.91" transform="matrix(0.99, -0.15, 0.15, 0.99, -48.75, 73.09)"/><polygon class="cls-45" points="450.49 207.82 488.61 206.71 493.1 272.93 499.5 326.67 485.41 326.71 472.51 255.88 470.71 324.27 456.92 323.67 450.49 207.82"/><path class="cls-32" d="M488.47,342.53l18.3.19s-.75-4.55-2.47-6.3c-1.32-1.35-3.26-.33-7.42-.61-2.58-.17-4.42-.27-6.17,1.47S488.47,342.53,488.47,342.53Z" transform="translate(-5.24 -4.16)"/><path class="cls-32" d="M475.78,341.91s1-9.41-4.35-9a56,56,0,0,0-14.68,3.14c-4.16,1.34-3.24,6.07-3.24,6.07Z" transform="translate(-5.24 -4.16)"/><path class="cls-46" d="M493.64,210.53s-24.42,5-33.68,3.25a8.85,8.85,0,0,1-4.35-1.78c-.1-3.23-1-45-1-45l.46-8.06c1.11-6.73,4.9-12.49,9.48-17.54h0l24.68.79,11.07,13.29-7.74,39.39Z" transform="translate(-5.24 -4.16)"/><rect class="cls-47" x="447.96" y="337.64" width="23.09" height="1.47"/><rect class="cls-48" x="482.77" y="338.2" width="19.24" height="1.1"/><path class="cls-49" d="M484.71,123.48c.23,7.61-4.76,13.94-11.14,14.13a10.62,10.62,0,0,1-8.09-3.57,15.12,15.12,0,0,1-3.88-9.86c-.23-7.61,6.37-15.65,12.75-15.84S484.48,115.87,484.71,123.48Z" transform="translate(-5.24 -4.16)"/><path class="cls-50" d="M476.94,127.17a3.7,3.7,0,1,1,.14-.91A3.7,3.7,0,0,1,476.94,127.17Z" transform="translate(-5.24 -4.16)"/><line class="cls-51" x1="477.14" y1="123.24" x2="471.7" y2="123.01"/><path class="cls-52" d="M471.21,141.58S464,150,473,174.72c0,0,7.73-10.82,8.9-32.85" transform="translate(-5.24 -4.16)"/><path class="cls-53" d="M479.68,171.3l-13.59,3,3,13.59,13.59-3Zm-5.05,4.25a1.39,1.39,0,1,1-.93-1.73A1.39,1.39,0,0,1,474.63,175.55Z" transform="translate(-5.24 -4.16)"/><path class="cls-54" d="M476.11,182.31l-2.62.59-.19,1.29-.76.17.91-6,.86-.19,3.37,5-.85.19Zm-2.08-3-.42,2.86,2.07-.47-1.6-2.41Z" transform="translate(-5.24 -4.16)"/><path class="cls-55" d="M455.73,212l.17,3.53a31.15,31.15,0,0,0,10,1.63c3.69-.06,14.34-1.15,16.89-1.66s11.17-2.68,11.17-2.68L493.7,210s-17.7,3.81-25.53,4C462.44,214.19,458.73,214,455.73,212Z" transform="translate(-5.24 -4.16)"/><rect class="cls-56" x="459.53" y="323.74" width="11.24" height="1.78"/><rect class="cls-57" x="488.01" y="326.64" width="11.24" height="1.78"/><polygon class="cls-58" points="460.63 213 464.1 323.85 470.77 323.74 472.51 255.88 464.38 213.29 460.63 213"/><polygon class="cls-59" points="481.57 236.37 493.27 326.25 499.7 326.79 490.02 229.09 488 208.67 472.69 211.91 481.57 236.37"/><path class="cls-60" d="M477.85,216.4s.54,3.18,4,7.36a4.43,4.43,0,0,0,1,.79,25.14,25.14,0,0,0,10.06,3.36l.67,13.33s-14.87,1.68-14.87-7.09C478.71,224.51,477.9,217.22,477.85,216.4Z" transform="translate(-5.24 -4.16)"/><path class="cls-61" d="M487.43,154.82l1.31-12.5a24.82,24.82,0,0,1,4.53.61c3.23,1.09,4.4,1.53,5.59,2.44a10.25,10.25,0,0,1,3.61,5.53l8.07,30.35c1.17,4.35,1.48,4,.6,8l-6,39.31-8.09-.57,1.54-42Z" transform="translate(-5.24 -4.16)"/><path class="cls-32" d="M469.65,120.44a.88.88,0,0,0-1-.39,1.73,1.73,0,0,1-2.4-.88c-.52-1.18-1.13-1.35-1.62-1.22a1.25,1.25,0,0,1-1.66-1.05v-.06c.07-1-1.36-.71-1.51-1.61s.82-.64.66-1.47-1.24-.25-1.26-1.28.95-.87.77-1.63-1.26-1.34-.74-2.32,1.2-.26,1.47-1-.13-1.72.64-2.25,1.49.29,2.12-.07.45-1.6,1.85-2.11c.72-.26,2.27.61,2.89,0s1.14-1.4,2.23-1.42,2.88,1,3.36.67a3.24,3.24,0,0,1,3.9.57c.52.84.91,1.63,1.85,1.86s1.79.53,1.85,1.31c0,.47.66,1.25,1.25,1.13.93-.19,2.2.81,1.82,1.41-.69,1.09.8,1.59,1.18,1.86,1,.71.92,2.57.5,2.78s-.48,2-.16,2.29c.53.46.46,1.49-.2,1.56s-1.2.22-1,.73.68,1,.26,1.62c-1,1.49-2.5.65-2.57.94s-.79,1.36-1.55.81a1.64,1.64,0,0,0-.9-.32c-1.76-.05-2.64,2.24-3.88.66-.55-.7-1.35-2-2-1.45-.33.24-.72,1-1.31.76a4.45,4.45,0,0,0-1.94-.54c-.74.05-1.2.89-1.79.66C470.43,120.89,469.83,120.78,469.65,120.44Z" transform="translate(-5.24 -4.16)"/><path class="cls-32" d="M478.78,119.4s0,3.3.92,4.23,2.23,1.69,2.38,2.84a16.09,16.09,0,0,1,.15,1.92h2.46A10.77,10.77,0,0,0,486,120.7c-.92-4.38-2.54-5.92-2.54-5.92Z" transform="translate(-5.24 -4.16)"/><circle class="cls-62" cx="463.56" cy="123.42" r="3.7" transform="translate(212.35 531.11) rotate(-74.06)"/></svg>