<?xml version="1.0" encoding="utf-8"?>
<!-- Generator: Adobe Illustrator 21.0.0, SVG Export Plug-In . SVG Version: 6.00 Build 0)  -->
<svg version="1.1" id="Layer_1" xmlns="http://www.w3.org/2000/svg" xmlns:xlink="http://www.w3.org/1999/xlink" x="0px" y="0px"
	 viewBox="0 0 800 800" style="enable-background:new 0 0 800 800;" xml:space="preserve">
<style type="text/css">
	.st0{opacity:0.69;}
	.st1{opacity:0.59;}
	.st2{fill:url(#SVGID_11_);}
	.st3{fill:url(#SVGID_12_);}
	.st4{fill:#150D38;}
	.st5{fill:url(#SVGID_13_);}
	.st6{fill:url(#SVGID_14_);}
	.st7{fill:url(#SVGID_15_);}
	.st8{fill:url(#SVGID_16_);}
	.st9{fill:url(#SVGID_17_);}
	.st10{fill:#FFFFFF;}
	.st11{fill:url(#SVGID_18_);}
	.st12{fill:url(#SVGID_19_);}
	.st13{fill:url(#SVGID_22_);}
	.st14{fill:#18325B;}
	.st15{fill:url(#SVGID_23_);}
	.st16{fill:url(#SVGID_24_);}
	.st17{fill:url(#SVGID_25_);}
	.st18{fill:url(#SVGID_26_);}
	.st19{fill:url(#SVGID_27_);}
	.st20{fill:url(#SVGID_28_);}
	.st21{fill:url(#SVGID_29_);}
	.st22{fill:url(#SVGID_30_);}
	.st23{fill:url(#SVGID_31_);}
	.st24{fill:url(#SVGID_32_);}
	.st25{fill:#060509;}
	.st26{fill:url(#SVGID_33_);}
	.st27{fill:url(#SVGID_34_);}
	.st28{fill:url(#SVGID_35_);}
	.st29{fill:url(#SVGID_36_);}
	.st30{fill:url(#SVGID_37_);}
	.st31{fill:#FCF3DB;}
	.st32{fill:url(#SVGID_38_);}
	.st33{fill:url(#SVGID_39_);}
	.st34{fill:url(#SVGID_40_);}
	.st35{fill:url(#SVGID_41_);}
	.st36{fill:url(#SVGID_42_);}
	.st37{fill:url(#SVGID_43_);}
	.st38{fill:url(#SVGID_44_);}
	.st39{fill:url(#SVGID_45_);}
	.st40{fill:url(#SVGID_46_);}
	.st41{fill:url(#SVGID_47_);}
	.st42{fill:url(#SVGID_48_);}
	.st43{fill:url(#SVGID_49_);}
	.st44{fill:url(#SVGID_50_);}
	.st45{fill:url(#SVGID_51_);}
	.st46{fill:url(#SVGID_52_);}
	.st47{fill:url(#SVGID_53_);}
	.st48{fill:url(#SVGID_54_);}
	.st49{fill:url(#SVGID_55_);}
	.st50{fill:url(#SVGID_56_);}
	.st51{fill:url(#SVGID_57_);}
	.st52{fill:url(#SVGID_58_);}
	.st53{fill:url(#SVGID_59_);}
	.st54{fill:url(#SVGID_60_);}
	.st55{fill:url(#SVGID_61_);}
	.st56{fill:url(#SVGID_62_);}
	.st57{fill:url(#SVGID_63_);}
	.st58{fill:url(#SVGID_64_);}
	.st59{fill:url(#SVGID_65_);}
	.st60{fill:url(#SVGID_66_);}
	.st61{fill:url(#SVGID_67_);}
	.st62{fill:url(#SVGID_68_);}
	.st63{fill:url(#SVGID_69_);}
	.st64{fill:url(#SVGID_70_);}
	.st65{fill:url(#SVGID_71_);}
	.st66{fill:url(#SVGID_72_);}
	.st67{fill:url(#SVGID_73_);}
	.st68{fill:url(#SVGID_74_);}
	.st69{fill:url(#SVGID_75_);}
	.st70{fill:url(#SVGID_76_);}
	.st71{fill:url(#SVGID_77_);}
	.st72{fill:url(#SVGID_78_);}
	.st73{fill:url(#SVGID_79_);}
	.st74{fill:url(#SVGID_80_);}
	.st75{fill:url(#SVGID_81_);}
	.st76{fill:url(#SVGID_82_);}
	.st77{fill:url(#SVGID_83_);}
	.st78{fill:url(#SVGID_84_);}
	.st79{fill:url(#SVGID_85_);}
	.st80{fill:url(#SVGID_86_);}
	.st81{fill:url(#SVGID_87_);}
	.st82{fill:url(#SVGID_88_);}
	.st83{fill:url(#SVGID_89_);}
	.st84{fill:url(#SVGID_90_);}
	.st85{fill:url(#SVGID_91_);}
	.st86{fill:url(#SVGID_92_);}
	.st87{fill:url(#SVGID_93_);}
	.st88{fill:url(#SVGID_94_);}
	.st89{fill:url(#SVGID_95_);}
	.st90{fill:url(#SVGID_96_);}
	.st91{fill:url(#SVGID_97_);}
	.st92{fill:url(#SVGID_98_);}
	.st93{fill:url(#SVGID_99_);}
	.st94{fill:url(#SVGID_100_);}
	.st95{fill:url(#SVGID_101_);}
</style>
<g>
	<g class="st0">
		<defs>
			<polyline id="SVGID_1_" class="st0" points="542.4,678.2 367.1,678.2 367.1,761.6 514,761.6 514,687.2 542.4,687.2 542.4,678.2 
							"/>
		</defs>
		<clipPath id="SVGID_2_">
			<use xlink:href="#SVGID_1_"  style="overflow:visible;"/>
		</clipPath>
		<g style="clip-path:url(#SVGID_2_);">
			
				<image style="overflow:visible;" width="210" height="101" xlink:href="E3C9D9826A9E6184.jpg"  transform="matrix(0.8428 0 0 0.8428 366.2638 677.362)">
			</image>
		</g>
	</g>
	<g class="st1">
		<defs>
			<polyline id="SVGID_3_" class="st1" points="602.4,689.6 542.4,689.6 542.4,764 514,764 514,773 689.3,773 689.3,722.1 
				602.4,722.1 602.4,689.6 			"/>
		</defs>
		<clipPath id="SVGID_4_">
			<use xlink:href="#SVGID_3_"  style="overflow:visible;"/>
		</clipPath>
		<g style="clip-path:url(#SVGID_4_);">
			
				<image style="overflow:visible;" width="210" height="101" xlink:href="E3C9D9826A9E6185.jpg"  transform="matrix(0.8428 0 0 0.8428 513.108 688.7186)">
			</image>
		</g>
	</g>
	<g>
		<defs>
			<polyline id="SVGID_5_" points="542.4,689.6 514,689.6 514,764 542.4,764 542.4,689.6 			"/>
		</defs>
		<clipPath id="SVGID_6_">
			<use xlink:href="#SVGID_5_"  style="overflow:visible;"/>
		</clipPath>
		<g transform="matrix(1 0 0 1 0 0)" style="clip-path:url(#SVGID_6_);">
			
				<image style="overflow:visible;" width="143" height="370" xlink:href="E3C9D9826A9E6183.jpg"  transform="matrix(0.2022 0 0 0.2025 513.6999 689.319)">
			</image>
		</g>
	</g>
	<g class="st1">
		<defs>
			<polyline id="SVGID_7_" class="st1" points="777.7,638.6 602.4,638.6 602.4,689.6 689.3,689.6 689.3,722.1 777.7,722.1 
				777.7,638.6 			"/>
		</defs>
		<clipPath id="SVGID_8_">
			<use xlink:href="#SVGID_7_"  style="overflow:visible;"/>
		</clipPath>
		<g style="clip-path:url(#SVGID_8_);">
			
				<image style="overflow:visible;" width="210" height="101" xlink:href="E3C9D9826A9E618C.jpg"  transform="matrix(0.8428 0 0 0.8428 601.5143 637.7727)">
			</image>
		</g>
	</g>
	<g>
		<defs>
			<polyline id="SVGID_9_" points="689.3,689.6 602.4,689.6 602.4,722.1 689.3,722.1 689.3,689.6 			"/>
		</defs>
		<clipPath id="SVGID_10_">
			<use xlink:href="#SVGID_9_"  style="overflow:visible;"/>
		</clipPath>
		<g transform="matrix(1 0 0 1 0 0)" style="clip-path:url(#SVGID_10_);">
			
				<image style="overflow:visible;" width="432" height="162" xlink:href="E3C9D9826A9E618F.jpg"  transform="matrix(0.2022 0 0 0.2025 602.1091 689.3589)">
			</image>
		</g>
	</g>
	
		<linearGradient id="SVGID_11_" gradientUnits="userSpaceOnUse" x1="-65.8268" y1="932.5164" x2="-64.984" y2="932.5164" gradientTransform="matrix(28.6876 0 0 -28.6876 2301.5784 27452.0098)">
		<stop  offset="0" style="stop-color:#FFFFFF"/>
		<stop  offset="1.687996e-02" style="stop-color:#FFF8F4"/>
		<stop  offset="5.325165e-02" style="stop-color:#FFEEE3"/>
		<stop  offset="9.852347e-02" style="stop-color:#FFE7D8"/>
		<stop  offset="0.1621" style="stop-color:#FFE3D1"/>
		<stop  offset="0.3385" style="stop-color:#FFE2CF"/>
		<stop  offset="0.3608" style="stop-color:#F7D5BF"/>
		<stop  offset="0.4066" style="stop-color:#EAC0A4"/>
		<stop  offset="0.4593" style="stop-color:#DFAF8E"/>
		<stop  offset="0.5208" style="stop-color:#D6A17D"/>
		<stop  offset="0.5969" style="stop-color:#D09872"/>
		<stop  offset="0.7037" style="stop-color:#CD926B"/>
		<stop  offset="1" style="stop-color:#CC9169"/>
	</linearGradient>
	<polygon class="st2" points="413.2,713.2 421,688 429.7,687.5 437.3,712.8 	"/>
	
		<linearGradient id="SVGID_12_" gradientUnits="userSpaceOnUse" x1="-84.6825" y1="914.3912" x2="-83.8397" y2="914.3912" gradientTransform="matrix(66.7528 -0.7837 -0.7837 -66.7528 6817.0259 61677.5273)">
		<stop  offset="0" style="stop-color:#FFFFFF"/>
		<stop  offset="1.687996e-02" style="stop-color:#FFF8F4"/>
		<stop  offset="5.325165e-02" style="stop-color:#FFEEE3"/>
		<stop  offset="9.852347e-02" style="stop-color:#FFE7D8"/>
		<stop  offset="0.1621" style="stop-color:#FFE3D1"/>
		<stop  offset="0.3385" style="stop-color:#FFE2CF"/>
		<stop  offset="0.3608" style="stop-color:#F7D5BF"/>
		<stop  offset="0.4066" style="stop-color:#EAC0A4"/>
		<stop  offset="0.4593" style="stop-color:#DFAF8E"/>
		<stop  offset="0.5208" style="stop-color:#D6A17D"/>
		<stop  offset="0.5969" style="stop-color:#D09872"/>
		<stop  offset="0.7037" style="stop-color:#CD926B"/>
		<stop  offset="1" style="stop-color:#CC9169"/>
	</linearGradient>
	<path class="st3" d="M457.8,690l-10.1,28.1l56.3,2.4c0,0-4.8-5.5-11.4-9.3c-3.2-1.9-9.8-3.2-18.8-9.5
		C468.4,698,457.8,690,457.8,690z"/>
	<path class="st4" d="M452.2,704.7l-4.5,13.4l58.5,2.9l-0.2-4.5l-19.4-7.9c0,0-2.5,0.5-2,2.4c0.5,1.8,1.7,3.5,1.7,3.5l-32.6-9.4
		l-2-4l-1.8,0.4L452.2,704.7z"/>
	
		<linearGradient id="SVGID_13_" gradientUnits="userSpaceOnUse" x1="-97.5185" y1="902.1735" x2="-96.6757" y2="902.1735" gradientTransform="matrix(691.994 0 0 -691.994 67501.1641 624505.1875)">
		<stop  offset="0" style="stop-color:#EBF5FF"/>
		<stop  offset="0.3046" style="stop-color:#E8F4FE"/>
		<stop  offset="0.5551" style="stop-color:#DEF2FA"/>
		<stop  offset="0.7856" style="stop-color:#CCEFF4"/>
		<stop  offset="1" style="stop-color:#B5EAEC"/>
	</linearGradient>
	<path class="st5" d="M598.7,39H22.4c-1.9,0-3.5,1.5-3.5,3.3v328.4c0,1.8,1.6,3.3,3.5,3.3h576.2c1.9,0,3.5-1.5,3.5-3.3V42.3
		C602.2,40.5,600.6,39,598.7,39"/>
	
		<linearGradient id="SVGID_14_" gradientUnits="userSpaceOnUse" x1="-95.2762" y1="903.9072" x2="-94.4333" y2="903.9072" gradientTransform="matrix(274.2683 0 0 -274.2683 26170.8301 248041.0312)">
		<stop  offset="0" style="stop-color:#FF3F45"/>
		<stop  offset="1" style="stop-color:#FF7FCA"/>
	</linearGradient>
	<rect x="39.6" y="63.3" class="st6" width="231.2" height="129.2"/>
	
		<linearGradient id="SVGID_15_" gradientUnits="userSpaceOnUse" x1="-93.0424" y1="906.1932" x2="-92.1996" y2="906.1932" gradientTransform="matrix(158.6897 0 0 -158.6897 15211.5176 144074.75)">
		<stop  offset="0" style="stop-color:#FF3F45"/>
		<stop  offset="1" style="stop-color:#FF7FCA"/>
	</linearGradient>
	<rect x="446.7" y="206.6" class="st7" width="133.7" height="129.2"/>
	
		<linearGradient id="SVGID_16_" gradientUnits="userSpaceOnUse" x1="-96.1884" y1="903.2987" x2="-95.3456" y2="903.2987" gradientTransform="matrix(346.9152 0 0 -346.9152 33655.168 313496.4062)">
		<stop  offset="0" style="stop-color:#9BAAFE"/>
		<stop  offset="1" style="stop-color:#9E43F0"/>
	</linearGradient>
	<rect x="285.9" y="63.8" class="st8" width="292.4" height="129.2"/>
	
		<linearGradient id="SVGID_17_" gradientUnits="userSpaceOnUse" x1="-96.8096" y1="902.7678" x2="-95.9668" y2="902.7678" gradientTransform="matrix(466.1672 0 0 -466.1672 45170.2227 421112.0312)">
		<stop  offset="0" style="stop-color:#9BAAFE"/>
		<stop  offset="1" style="stop-color:#9E43F0"/>
	</linearGradient>
	<rect x="40.8" y="206.7" class="st9" width="392.9" height="129.2"/>
	<polygon class="st10" points="58.3,82.7 63.7,82.7 66.6,93.1 66.7,93.1 69.7,82.7 74.6,82.7 69.5,99.5 63.4,99.5 	"/>
	<path class="st10" d="M74.1,93.6v-0.8c0-1.9,0.6-3.4,1.9-4.5c1.2-1.1,2.8-1.6,4.8-1.6h0.6c1.9,0,3.4,0.5,4.5,1.6
		c1,1,1.6,2.4,1.6,4.1v1.5h-8.2v1.2c0,0.6,0.2,1,0.6,1.3c0.4,0.3,0.8,0.4,1.4,0.4c0.6,0,1-0.2,1.3-0.5c0.3-0.4,0.4-0.8,0.4-1.4h4.5
		c0,1.4-0.5,2.6-1.6,3.5c-1.1,1-2.6,1.4-4.5,1.4H81c-2,0-3.6-0.5-4.9-1.6C74.8,97,74.1,95.5,74.1,93.6z M79.3,91.8h3.4v-0.3
		c0-0.5-0.2-0.9-0.5-1.2c-0.3-0.3-0.7-0.5-1.2-0.5c-0.5,0-0.9,0.2-1.2,0.5c-0.3,0.3-0.5,0.7-0.5,1.2V91.8z"/>
	<path class="st10" d="M93.6,88.8c0.9-1.4,2.2-2.1,3.8-2.1h0.7c1,0,1.9,0.4,2.6,1.1c0.7,0.7,1.1,1.6,1.1,2.6v9.1h-4.9v-7.9
		c0-0.4-0.1-0.8-0.4-1c-0.3-0.3-0.6-0.4-0.9-0.4c-0.4,0-0.7,0.1-0.9,0.4c-0.3,0.3-0.4,0.6-0.4,1v7.9h-4.9V87h3.7L93.6,88.8z"/>
	<path class="st10" d="M118.1,99.2c-0.6,0.4-1.4,0.6-2.5,0.6c-1.1,0-1.9-0.2-2.4-0.5c-0.5-0.4-0.9-0.8-1.2-1.5
		c-0.5,0.8-1.3,1.3-2.3,1.7c-0.4,0.2-0.8,0.2-1.2,0.2h-0.7c-1,0-1.9-0.4-2.6-1.1c-0.7-0.7-1.1-1.6-1.1-2.6V87h4.9v7.9
		c0,0.4,0.1,0.8,0.4,1c0.3,0.3,0.6,0.4,0.9,0.4c0.4,0,0.7-0.1,0.9-0.4c0.3-0.3,0.4-0.6,0.4-1V87h4.9v8.9c0,0.3,0.1,0.6,0.2,0.7
		s0.4,0.2,0.6,0.2c0.2,0,0.5-0.1,0.8-0.2V99.2z"/>
	<path class="st10" d="M119,93.6v-0.8c0-1.9,0.6-3.4,1.9-4.5c1.2-1.1,2.8-1.6,4.8-1.6h0.6c1.9,0,3.4,0.5,4.5,1.6
		c1,1,1.6,2.4,1.6,4.1v1.5h-8.2v1.2c0,0.6,0.2,1,0.6,1.3c0.4,0.3,0.8,0.4,1.4,0.4c0.6,0,1-0.2,1.3-0.5c0.3-0.4,0.4-0.8,0.4-1.4h4.5
		c0,1.4-0.5,2.6-1.6,3.5c-1.1,1-2.6,1.4-4.5,1.4h-0.4c-2,0-3.6-0.5-4.9-1.6C119.6,97,119,95.5,119,93.6z M124.2,91.8h3.4v-0.3
		c0-0.5-0.2-0.9-0.5-1.2c-0.3-0.3-0.7-0.5-1.2-0.5c-0.5,0-0.9,0.2-1.2,0.5c-0.3,0.3-0.5,0.7-0.5,1.2V91.8z"/>
	<polygon class="st10" points="59.8,129 59.8,112.2 64.1,112.2 69.3,119.6 69.3,119.8 69.3,112.2 74.1,112.2 74.1,129 69.7,129 
		64.6,121.7 64.5,121.6 64.5,129 	"/>
	<path class="st10" d="M76,123v-0.5c0-1.8,0.6-3.3,1.9-4.5c1.2-1.2,2.8-1.7,4.6-1.7h0.8c1.9,0,3.4,0.6,4.6,1.7
		c1.2,1.2,1.9,2.7,1.9,4.5v0.5c0,1.9-0.6,3.4-1.9,4.5c-1.2,1.1-2.8,1.7-4.6,1.7h-0.8c-1.9,0-3.4-0.6-4.6-1.7
		C76.6,126.3,76,124.8,76,123z M81.2,124.6c0,0.5,0.2,0.9,0.5,1.2c0.3,0.3,0.7,0.5,1.2,0.5c0.5,0,0.9-0.2,1.2-0.5
		c0.3-0.3,0.5-0.7,0.5-1.2v-3.7c0-0.5-0.2-0.9-0.5-1.2c-0.3-0.3-0.7-0.5-1.2-0.5c-0.5,0-0.9,0.2-1.2,0.5c-0.3,0.3-0.5,0.7-0.5,1.2
		V124.6z"/>
	<rect x="91.7" y="124.5" class="st10" width="4.7" height="4.5"/>
	<path class="st10" d="M98.4,129v-0.9c0-0.9,0.1-1.7,0.4-2.4c0.3-0.7,0.8-1.3,1.5-1.9l4.9-3.8c0.9-0.7,1.3-1.6,1.3-2.6
		c0-0.5-0.2-0.9-0.5-1.2c-0.3-0.3-0.7-0.5-1.2-0.5h-0.3c-0.5,0-0.9,0.2-1.2,0.5c-0.3,0.3-0.5,0.7-0.5,1.2v0.7h-4.3v-0.5
		c0-1.7,0.5-3,1.6-4.1c1.2-1.1,2.7-1.7,4.6-1.7h0.8c1.8,0,3.3,0.5,4.4,1.5c1.1,1,1.6,2.3,1.6,3.9c0,0.9-0.1,1.6-0.4,2.2
		c-0.5,1.1-1.6,2.3-3.3,3.4l-2.7,1.9h6.5v4.1H98.4z"/>
	<path class="st10" d="M65.9,242.3v-2.8c0-2.3,0.8-4.2,2.4-5.7c1.5-1.4,3.4-2.1,5.7-2.1h0.7c2.3,0,4.1,0.6,5.4,1.9
		c1.5,1.4,2.2,3.3,2.2,5.7h-5.2v-0.9c0-0.8-0.3-1.5-0.8-1.9c-0.5-0.5-1.1-0.7-1.9-0.7h-0.1c-0.7,0-1.4,0.3-1.9,0.8
		c-0.5,0.5-0.8,1.1-0.8,1.9v5.1c0,0.7,0.3,1.4,0.8,1.9c0.5,0.5,1.1,0.8,1.9,0.8h0.4c0.7,0,1.4-0.2,1.9-0.7c0.5-0.5,0.8-1.1,0.8-1.9
		v-0.9h4.9c0,2.3-0.7,4.2-2.1,5.6c-1.3,1.4-3.1,2-5.3,2h-0.7c-2.4,0-4.4-0.7-5.9-2C66.7,246.6,65.9,244.7,65.9,242.3z"/>
	<path class="st10" d="M83.7,243.5v-0.5c0-2,0.7-3.6,2-4.8c1.3-1.2,2.9-1.9,4.9-1.9h0.8c2,0,3.7,0.6,4.9,1.9c1.3,1.3,2,2.9,2,4.8
		v0.5c0,2-0.7,3.6-2,4.8c-1.3,1.2-2.9,1.8-4.9,1.8h-0.8c-2,0-3.7-0.6-4.9-1.9C84.3,247,83.7,245.4,83.7,243.5z M89.2,245.2
		c0,0.5,0.2,0.9,0.5,1.3c0.3,0.4,0.8,0.5,1.3,0.5c0.5,0,0.9-0.2,1.3-0.5c0.3-0.4,0.5-0.8,0.5-1.3v-3.9c0-0.5-0.2-0.9-0.5-1.3
		c-0.3-0.4-0.8-0.5-1.3-0.5c-0.5,0-0.9,0.2-1.3,0.5c-0.3,0.4-0.5,0.8-0.5,1.3V245.2z"/>
	<path class="st10" d="M104.8,238.5c1.1-1.5,2.3-2.2,3.6-2.2h0.7c0.8,0,1.4,0.2,2,0.6c0.6,0.4,1.1,0.9,1.4,1.5
		c0.3-0.6,0.8-1.1,1.4-1.5c0.6-0.4,1.3-0.6,2-0.6h0.7c1.1,0,2,0.4,2.8,1.2c0.8,0.8,1.2,1.7,1.2,2.8v9.7h-5.1v-8.5
		c0-0.4-0.1-0.8-0.4-1c-0.2-0.3-0.5-0.4-0.9-0.4c-0.3,0-0.6,0.1-0.9,0.4c-0.2,0.3-0.4,0.6-0.4,1v8.5H108v-8.5c0-0.4-0.1-0.8-0.4-1
		c-0.2-0.3-0.5-0.4-0.9-0.4c-0.3,0-0.6,0.1-0.9,0.4c-0.2,0.3-0.4,0.6-0.4,1v8.5h-5.1v-13.4h3.9L104.8,238.5z"/>
	<path class="st10" d="M123.2,234.8V231h5.2v3.7H123.2z M123.2,249.9v-13.4h5.2v13.4H123.2z"/>
	<path class="st10" d="M135.4,238.5c1-1.5,2.3-2.2,4.1-2.2h0.7c1.1,0,2,0.4,2.8,1.2c0.8,0.8,1.2,1.7,1.2,2.8v9.7h-5.2v-8.4
		c0-0.4-0.1-0.8-0.4-1.1c-0.3-0.3-0.6-0.5-1-0.5c-0.4,0-0.7,0.2-1,0.5c-0.3,0.3-0.4,0.7-0.4,1.1v8.4H131v-13.4h3.9L135.4,238.5z"/>
	<path class="st10" d="M150.8,245.4c0,0.5,0.5,0.8,1.5,0.8h4.3c2.1,0,3.4,0.8,4,2.4c0.2,0.5,0.2,1.1,0.2,1.7c0,1.2-0.5,2.2-1.5,3.1
		c-1,0.9-2.3,1.3-3.7,1.3h-6.9c-0.9,0-1.6-0.3-2.2-0.9c-0.6-0.6-0.9-1.4-0.9-2.2v-0.1c0-0.6,0.2-1.2,0.6-1.7
		c0.4-0.5,0.9-0.9,1.4-1.1c-0.8-0.6-1.3-1.3-1.3-2.3c0-0.7,0.2-1.3,0.7-1.8c0.5-0.5,1-0.9,1.7-1c-1.3-0.9-2-2-2-3.1
		c0-1.2,0.5-2.2,1.5-3c1-0.8,2.6-1.2,4.5-1.2h0.7c0.6,0,1.2,0.1,1.7,0.2c0.7-0.5,1.3-1,1.6-1.6c0.1-0.2,0.2-0.5,0.2-0.7h3.9
		c0,1.1-0.3,1.9-0.8,2.4c-0.5,0.5-1.2,0.9-2.1,1.2c1,0.8,1.5,1.7,1.5,2.8c0,1.2-0.5,2.1-1.5,3c-1,0.8-2.2,1.2-3.7,1.2h-1.8
		c-0.5,0-0.9,0.1-1.2,0.2C150.9,245.1,150.8,245.2,150.8,245.4z M149.8,251c0,0.3,0.1,0.6,0.4,0.8c0.3,0.2,0.6,0.3,0.9,0.3h3.7
		c0.4,0,0.7-0.1,0.9-0.3c0.3-0.2,0.4-0.5,0.4-0.8c0-0.3-0.1-0.6-0.4-0.8c-0.3-0.2-0.6-0.3-0.9-0.3h-3.7c-0.4,0-0.7,0.1-0.9,0.3
		C149.9,250.4,149.8,250.7,149.8,251z M151.5,240.5c0,0.5,0.2,0.8,0.5,1.2c0.3,0.3,0.7,0.5,1.1,0.5s0.8-0.2,1.1-0.5
		c0.3-0.3,0.5-0.7,0.5-1.2c0-0.5-0.2-0.8-0.5-1.2c-0.3-0.3-0.7-0.5-1.1-0.5s-0.8,0.2-1.1,0.5C151.6,239.6,151.5,240,151.5,240.5z"/>
	<polygon class="st10" points="66.6,281.3 66.6,263.4 71.2,263.4 76.7,271.3 76.8,271.5 76.8,263.4 81.8,263.4 81.8,281.3 
		77.1,281.3 71.7,273.5 71.7,273.4 71.7,281.3 	"/>
	<path class="st10" d="M83.9,275v-0.8c0-2,0.7-3.7,2-4.8c1.3-1.1,3-1.7,5.1-1.7h0.7c2,0,3.6,0.6,4.8,1.7c1.1,1.1,1.7,2.5,1.7,4.3
		v1.6h-8.7v1.3c0,0.6,0.2,1.1,0.6,1.4c0.4,0.3,0.9,0.5,1.5,0.5c0.6,0,1-0.2,1.4-0.6c0.3-0.4,0.5-0.9,0.5-1.5h4.8
		c0,1.5-0.6,2.8-1.7,3.8c-1.2,1-2.8,1.5-4.8,1.5h-0.4c-2.1,0-3.9-0.6-5.2-1.7C84.6,278.7,83.9,277.1,83.9,275z M89.5,273h3.6v-0.4
		c0-0.5-0.2-0.9-0.5-1.3c-0.3-0.4-0.8-0.5-1.3-0.5c-0.5,0-0.9,0.2-1.3,0.5c-0.3,0.4-0.5,0.8-0.5,1.3V273z"/>
	<polygon class="st10" points="98.2,281.3 102.7,274.3 98.7,267.9 104.6,267.9 106.3,271 106.4,271 108,267.9 113.6,267.9 
		109.5,274.4 113.8,281.3 107.9,281.3 105.9,277.6 105.8,277.6 103.8,281.3 	"/>
	<path class="st10" d="M122.5,278.4c0.6,0,1.1-0.1,1.6-0.3v2.9c-0.9,0.4-2.1,0.6-3.5,0.6c-2.3,0-3.8-0.6-4.5-1.9
		c-0.2-0.5-0.3-1.1-0.3-1.8v-6.3h-1.5v-3.7h1.7l1.8-4.3h3.2v4.3h3.1v3.7H121v4.9c0,1,0.3,1.6,0.9,1.7
		C122.1,278.4,122.3,278.4,122.5,278.4z"/>
	<polygon class="st10" points="74.3,313.9 67.8,304.2 67.8,304.3 67.8,313.9 66.1,313.9 66.1,300.7 67.7,300.7 74.1,310.2 
		74.1,310.2 74.1,300.7 75.8,300.7 75.8,313.9 	"/>
	<path class="st10" d="M80.3,309.4c0,1.5,0.5,2.5,1.5,3c0.3,0.2,0.8,0.2,1.3,0.2c0.5,0,0.9-0.1,1.2-0.3c0.3-0.2,0.6-0.4,0.7-0.7
		c0.3-0.4,0.4-0.9,0.4-1.4h1.7c0,1.2-0.4,2.1-1.1,2.8c-0.8,0.7-1.7,1-2.9,1h-0.1c-1.3,0-2.4-0.4-3.2-1.3c-0.8-0.9-1.2-2.1-1.2-3.6
		v-0.4c0-1.5,0.4-2.7,1.2-3.6c0.8-0.9,1.8-1.3,3.2-1.3H83c1.2,0,2.2,0.4,2.9,1.1c0.8,0.7,1.1,1.7,1.1,3v1.4H80.3z M82.9,305.3
		c-0.7,0-1.3,0.2-1.8,0.7c-0.5,0.4-0.7,1.1-0.8,2h5v-0.2c0-0.8-0.2-1.4-0.7-1.8C84.2,305.5,83.6,305.3,82.9,305.3z"/>
	<polygon class="st10" points="88.3,313.9 91.9,308.9 88.5,304.1 90.6,304.1 93,307.4 95.4,304.1 97.3,304.1 93.9,308.8 97.5,313.9 
		95.4,313.9 92.8,310.3 90.2,313.9 	"/>
	<path class="st10" d="M102.6,312.6c0.3,0,0.7-0.1,1.2-0.3v1.3c-0.5,0.2-1.1,0.3-1.8,0.3c-0.7,0-1.3-0.2-1.7-0.7
		c-0.4-0.4-0.6-1.1-0.6-2.1v-5.7h-1.1v-1.4h1.1l0.6-3.1h1.1v3.1h2.3v1.4h-2.3v5.8c0,0.7,0.2,1.1,0.7,1.2
		C102.4,312.6,102.5,312.6,102.6,312.6z"/>
	<path class="st10" d="M113.9,312.6c0.3,0,0.7-0.1,1.2-0.3v1.3c-0.5,0.2-1.1,0.3-1.8,0.3c-0.7,0-1.3-0.2-1.7-0.7
		c-0.4-0.4-0.6-1.1-0.6-2.1v-5.7H110v-1.4h1.1l0.6-3.1h1.1v3.1h2.3v1.4h-2.3v5.8c0,0.7,0.2,1.1,0.7,1.2
		C113.7,312.6,113.8,312.6,113.9,312.6z"/>
	<path class="st10" d="M123.3,312.3c-0.8,1.2-1.9,1.8-3.4,1.8c-1.5,0-2.5-0.5-2.9-1.4c-0.2-0.4-0.3-0.9-0.3-1.5
		c0-0.7,0.2-1.2,0.5-1.6c0.3-0.4,0.8-0.8,1.3-1c0.9-0.4,2.5-0.6,4.7-0.6v-0.9c0-0.5-0.1-0.9-0.3-1.1c-0.4-0.5-1.1-0.7-2-0.7
		c-0.9,0-1.5,0.2-1.9,0.7c-0.2,0.3-0.3,0.5-0.3,0.9v0.2h-1.8c0-0.1,0-0.3,0-0.6c0-0.3,0.1-0.6,0.3-0.9c0.2-0.3,0.5-0.6,0.8-0.9
		c0.8-0.5,1.7-0.7,2.9-0.7h0.2c1.3,0,2.3,0.3,2.9,0.8c0.6,0.5,0.9,1.3,0.9,2.2v5.1c0,0.2,0.1,0.4,0.2,0.5c0.1,0.1,0.2,0.2,0.4,0.2
		c0.3,0,0.6-0.1,0.9-0.3v1.3c-0.4,0.3-0.9,0.4-1.5,0.4c-0.6,0-1-0.2-1.2-0.5C123.5,313.2,123.3,312.8,123.3,312.3z M123.2,309.4
		c-1.6,0-2.7,0.1-3.3,0.3c-0.5,0.2-0.9,0.4-1.1,0.6c-0.2,0.2-0.3,0.6-0.3,1c0,0.9,0.7,1.3,2,1.3c0.7,0,1.3-0.2,1.9-0.7
		c0.6-0.5,0.8-1.2,0.8-2.1V309.4z"/>
	<rect x="128.6" y="300.1" class="st10" width="1.8" height="13.8"/>
	<polygon class="st10" points="139.9,313.9 137,310.2 135.5,311.7 135.5,313.9 133.7,313.9 133.7,300.1 135.5,300.1 135.5,309.5 
		139.9,304.1 141.8,304.1 138.1,308.8 142.1,313.9 	"/>
	<path class="st10" d="M143.1,311.2l0-0.4h1.8v0.2c0,0.8,0.5,1.3,1.5,1.5c0.3,0.1,0.7,0.1,1.2,0.1c0.5,0,1-0.1,1.4-0.4
		c0.4-0.2,0.7-0.6,0.7-1s-0.2-0.7-0.5-0.9c-0.3-0.2-0.7-0.4-1.2-0.5c-0.5-0.1-1-0.2-1.5-0.3c-0.5-0.1-1-0.2-1.5-0.4
		c-0.5-0.2-0.9-0.5-1.2-0.8c-0.3-0.4-0.5-0.9-0.5-1.5c0-0.9,0.4-1.6,1.1-2.1s1.7-0.8,2.9-0.8h0.2c1.1,0,2,0.3,2.7,0.8
		c0.7,0.5,1,1.1,1,1.9l0,0.3h-1.8v-0.2c0-0.9-0.7-1.4-2.2-1.4c-1.2,0-1.9,0.3-2.1,0.9c-0.1,0.2-0.1,0.3-0.1,0.4
		c0,0.4,0.2,0.6,0.5,0.8c0.3,0.2,0.7,0.3,1.2,0.4c0.5,0.1,1,0.2,1.5,0.3c0.5,0.1,1,0.2,1.5,0.4c1.1,0.5,1.6,1.2,1.6,2.3
		c0,1.1-0.4,1.9-1.2,2.5c-0.7,0.5-1.7,0.7-2.9,0.7H147c-1.3,0-2.3-0.3-3-0.9C143.4,312.6,143.1,312,143.1,311.2z"/>
	<polygon class="st10" points="67.5,157 67.5,152.1 62.5,152.1 62.5,157 61,157 61,146.1 62.5,146.1 62.5,150.7 67.5,150.7 
		67.5,146.1 69,146.1 69,157 	"/>
	<path class="st10" d="M76.8,155.7c-0.6,1-1.6,1.5-2.8,1.5c-1.2,0-2-0.4-2.4-1.1c-0.1-0.3-0.2-0.7-0.2-1.3c0-0.5,0.1-1,0.4-1.3
		c0.3-0.4,0.6-0.6,1.1-0.8c0.8-0.3,2.1-0.5,3.9-0.5v-0.7c0-0.4-0.1-0.7-0.2-0.9c-0.3-0.4-0.9-0.6-1.6-0.6c-0.7,0-1.3,0.2-1.6,0.5
		c-0.2,0.2-0.3,0.5-0.3,0.7v0.2h-1.5c0-0.1,0-0.3,0-0.5c0-0.2,0.1-0.5,0.3-0.8c0.2-0.3,0.4-0.5,0.7-0.7c0.6-0.4,1.4-0.6,2.4-0.6H75
		c1.1,0,1.9,0.2,2.4,0.6c0.5,0.4,0.8,1,0.8,1.8v4.2c0,0.2,0,0.3,0.1,0.4c0.1,0.1,0.2,0.1,0.3,0.1c0.3,0,0.5-0.1,0.7-0.2v1.1
		c-0.3,0.2-0.8,0.3-1.2,0.3c-0.5,0-0.8-0.1-1-0.4C76.9,156.5,76.8,156.1,76.8,155.7z M76.7,153.3c-1.4,0-2.3,0.1-2.7,0.2
		c-0.5,0.1-0.8,0.3-1,0.5c-0.2,0.2-0.3,0.5-0.3,0.9c0,0.7,0.6,1.1,1.7,1.1c0.6,0,1.1-0.2,1.6-0.6c0.5-0.4,0.7-1,0.7-1.7V153.3z"/>
	<path class="st10" d="M82.6,156v3.9h-1.5v-11h1.1c0.1,0.2,0.1,0.6,0.2,1.1c0.6-0.8,1.4-1.3,2.5-1.3c1,0,1.7,0.3,2.3,1
		c0.6,0.8,1,1.8,1,3.2v0.2c0,1.3-0.3,2.3-0.9,3c-0.6,0.7-1.4,1-2.4,1C84,157.2,83.2,156.8,82.6,156z M86.8,152.9
		c0-1.6-0.4-2.5-1.2-2.9c-0.3-0.1-0.5-0.2-0.8-0.2c-0.7,0-1.2,0.2-1.5,0.7c-0.4,0.5-0.6,1.3-0.6,2.4c0,1.6,0.4,2.6,1.2,2.9
		c0.3,0.1,0.5,0.1,0.8,0.1c0.7,0,1.2-0.2,1.5-0.7C86.6,154.8,86.8,154,86.8,152.9z"/>
	<path class="st10" d="M91.9,156v3.9h-1.5v-11h1.1c0.1,0.2,0.1,0.6,0.2,1.1c0.6-0.8,1.4-1.3,2.5-1.3c1,0,1.7,0.3,2.3,1
		c0.6,0.8,1,1.8,1,3.2v0.2c0,1.3-0.3,2.3-0.9,3c-0.6,0.7-1.4,1-2.4,1C93.2,157.2,92.4,156.8,91.9,156z M96,152.9
		c0-1.6-0.4-2.5-1.2-2.9c-0.3-0.1-0.5-0.2-0.8-0.2c-0.7,0-1.2,0.2-1.5,0.7c-0.4,0.5-0.6,1.3-0.6,2.4c0,1.6,0.4,2.6,1.2,2.9
		c0.3,0.1,0.5,0.1,0.8,0.1c0.7,0,1.2-0.2,1.5-0.7C95.8,154.8,96,154,96,152.9z"/>
	<path class="st10" d="M100.6,153.3c0,1.3,0.5,2.1,1.3,2.5c0.3,0.1,0.6,0.2,1,0.2c0.4,0,0.8-0.1,1-0.2c0.3-0.2,0.5-0.3,0.6-0.6
		c0.2-0.3,0.3-0.7,0.3-1.2h1.4c0,1-0.3,1.7-1,2.3c-0.6,0.6-1.5,0.9-2.4,0.9h-0.1c-1.1,0-2-0.3-2.7-1c-0.7-0.7-1-1.7-1-3v-0.3
		c0-1.3,0.3-2.3,1-3c0.6-0.7,1.5-1.1,2.6-1.1h0.1c1,0,1.8,0.3,2.4,0.9c0.6,0.6,1,1.5,1,2.5v1.1H100.6z M102.8,149.9
		c-0.6,0-1.1,0.2-1.5,0.5c-0.4,0.4-0.6,0.9-0.7,1.7h4.2v-0.2c0-0.6-0.2-1.1-0.6-1.5C103.9,150.1,103.4,149.9,102.8,149.9z"/>
	<path class="st10" d="M109.8,150.1c0.7-0.9,1.6-1.4,2.7-1.4c1.3,0,2.2,0.5,2.6,1.5c0.1,0.4,0.2,0.8,0.2,1.3v5.5h-1.5v-5.2
		c0-0.7-0.2-1.2-0.5-1.5c-0.3-0.3-0.7-0.4-1.2-0.4c-0.6,0-1.1,0.2-1.5,0.7c-0.4,0.4-0.7,1-0.7,1.6v4.8h-1.5v-8.1h1.1L109.8,150.1z"
		/>
	<path class="st10" d="M117.9,145.6h1.6v1.4h-1.6V145.6z M117.9,157v-8.1h1.5v8.1H117.9z"/>
	<path class="st10" d="M123.3,150.1c0.7-0.9,1.6-1.4,2.7-1.4c1.3,0,2.2,0.5,2.6,1.5c0.1,0.4,0.2,0.8,0.2,1.3v5.5h-1.5v-5.2
		c0-0.7-0.2-1.2-0.5-1.5c-0.3-0.3-0.7-0.4-1.2-0.4c-0.6,0-1.1,0.2-1.5,0.7c-0.4,0.4-0.7,1-0.7,1.6v4.8h-1.5v-8.1h1.1L123.3,150.1z"
		/>
	<path class="st10" d="M137.3,149.5c0.5,0.5,0.8,1,0.8,1.7c0,0.7-0.3,1.3-0.8,1.8c-0.6,0.5-1.4,0.7-2.4,0.7h-1.1
		c-0.3,0-0.6,0.1-0.8,0.2c-0.2,0.2-0.3,0.4-0.3,0.6c0,0.3,0.1,0.5,0.3,0.6c0.2,0.1,0.5,0.2,0.8,0.2h3.1c0.6,0,1.1,0.2,1.5,0.6
		c0.4,0.4,0.6,0.9,0.6,1.5c0,0.8-0.3,1.3-0.9,1.8c-0.5,0.4-1.3,0.6-2.1,0.6h-3.2c-0.6,0-1-0.2-1.4-0.6c-0.4-0.4-0.6-0.8-0.6-1.3
		c0-0.5,0.1-0.8,0.3-1.2c0.2-0.3,0.5-0.6,0.9-0.7c-0.5-0.3-0.7-0.7-0.7-1.3c0-0.4,0.1-0.7,0.3-1c0.2-0.3,0.5-0.5,0.9-0.6
		c-0.7-0.4-1.1-1.1-1.1-2c0-0.8,0.3-1.4,0.8-1.8c0.6-0.5,1.4-0.7,2.5-0.7h0.1c0.6,0,1.1,0.1,1.6,0.3c0.8-0.4,1.2-0.9,1.3-1.6h1.3
		c0,0.5-0.1,1-0.4,1.4C138.2,149.1,137.8,149.4,137.3,149.5L137.3,149.5z M136.2,158.8c0.3,0,0.6-0.1,0.9-0.3
		c0.2-0.2,0.4-0.4,0.4-0.7c0-0.3-0.1-0.5-0.3-0.6c-0.2-0.2-0.4-0.2-0.8-0.2h-3.3c-0.3,0-0.5,0.1-0.7,0.3c-0.2,0.2-0.3,0.4-0.3,0.7
		s0.1,0.5,0.3,0.7c0.2,0.2,0.4,0.3,0.7,0.3H136.2z M132.9,151.3c0,0.5,0.2,0.8,0.5,1c0.4,0.2,0.8,0.3,1.3,0.3s1-0.1,1.3-0.3
		c0.4-0.2,0.5-0.6,0.5-1c0-0.5-0.2-0.9-0.5-1.1c-0.4-0.2-0.8-0.3-1.3-0.3s-1,0.1-1.3,0.3C133.1,150.4,132.9,150.8,132.9,151.3z"/>
	<polygon class="st10" points="67.7,176.1 62.4,168.1 62.4,168.1 62.4,176.1 61,176.1 61,165.2 62.3,165.2 67.6,173.1 67.6,173 
		67.6,165.2 69.1,165.2 69.1,176.1 	"/>
	<path class="st10" d="M78.7,172.3c0,1.3-0.4,2.3-1.1,3c-0.7,0.6-1.5,1-2.6,1c-1.1,0-2-0.3-2.6-1c-0.7-0.7-1.1-1.7-1.1-3v-0.6
		c0-1.3,0.4-2.3,1.1-3c0.7-0.6,1.5-1,2.6-1c1.1,0,2,0.3,2.6,1c0.7,0.7,1.1,1.7,1.1,3V172.3z M77.2,171.9c0-1-0.2-1.7-0.7-2.2
		c-0.4-0.4-0.9-0.7-1.6-0.7c-1,0-1.7,0.5-2.1,1.6c-0.1,0.4-0.2,0.8-0.2,1.3v0.3c0,1,0.2,1.7,0.7,2.2c0.4,0.4,0.9,0.7,1.6,0.7
		c1,0,1.7-0.5,2.1-1.6c0.1-0.4,0.2-0.8,0.2-1.3V171.9z"/>
	<polygon class="st10" points="85.9,170.4 84.1,176.1 82.5,176.1 79.9,168 81.4,168 83.3,173.9 83.4,173.9 85.3,168 86.8,168 
		88.6,173.9 88.7,173.9 90.6,168 92.1,168 89.4,176.1 87.9,176.1 86,170.4 	"/>
	<path class="st10" d="M473.3,235.9c-0.7,0.3-1.5,0.4-2.5,0.4c-1,0-1.8-0.2-2.3-0.6c-0.5-0.4-0.8-1.1-0.8-2.2c0-0.9-0.1-1.6-0.2-2
		c-0.2-0.4-0.4-0.7-0.6-0.9c-0.3-0.2-0.6-0.3-1.1-0.3h-1.3v5.7H460v-14.8h8.3c1.1,0,2.1,0.3,2.9,1c0.8,0.7,1.3,1.6,1.3,2.7
		c0,0.8-0.3,1.5-0.8,2.2c-0.5,0.7-1.1,1.1-1.9,1.3v0.1c0.8,0.2,1.4,0.7,1.8,1.4c0.4,0.7,0.6,1.5,0.6,2.4c0,1.1,0.2,1.8,0.5,2.2
		c0.1,0.2,0.4,0.3,0.6,0.4V235.9z M464.4,227h2.3c0.3,0,0.6-0.1,0.8-0.3c0.2-0.2,0.3-0.5,0.3-0.8v-0.2c0-0.3-0.1-0.6-0.3-0.8
		c-0.2-0.2-0.5-0.3-0.8-0.3h-2.3V227z"/>
	<path class="st10" d="M481.5,234.5c-1,1.2-2.2,1.7-3.6,1.7c-1.1,0-2-0.2-2.6-0.6c-0.8-0.5-1.3-1.4-1.3-2.7c0-1.5,0.6-2.5,1.9-3
		c1.1-0.5,2.8-0.7,5.3-0.7v-0.6c0-0.4-0.1-0.7-0.4-1c-0.3-0.2-0.6-0.3-0.9-0.3c-0.4,0-0.7,0.1-1,0.3c-0.3,0.2-0.5,0.4-0.5,0.7v0.1
		h-4.1c0-0.1,0-0.2,0-0.3c0-1,0.5-1.7,1.4-2.3c1-0.6,2.2-1,3.8-1h0.7c1.7,0,3,0.3,3.9,1c0.8,0.6,1.3,1.4,1.3,2.5v4.6
		c0,0.3,0.1,0.5,0.2,0.6c0.1,0.1,0.3,0.2,0.5,0.2c0.2,0,0.4-0.1,0.7-0.2v2.3c-0.5,0.3-1.3,0.5-2.2,0.5s-1.7-0.2-2.2-0.5
		C481.9,235.5,481.6,235,481.5,234.5z M478.5,232.6c0,0.4,0.1,0.7,0.4,0.8c0.3,0.1,0.6,0.2,0.9,0.2c0.4,0,0.7-0.1,1-0.4
		c0.3-0.3,0.4-0.6,0.4-1.1v-0.9c-1,0-1.7,0.1-2.1,0.4C478.7,231.9,478.5,232.2,478.5,232.6z"/>
	<path class="st10" d="M494.1,233.7c0.5,0,0.9-0.1,1.3-0.3v2.4c-0.8,0.3-1.7,0.5-2.9,0.5c-1.9,0-3.1-0.5-3.7-1.6
		c-0.2-0.4-0.3-0.9-0.3-1.5v-5.2h-1.2V225h1.4l1.5-3.5h2.6v3.5h2.6v3.1h-2.6v4.1c0,0.8,0.3,1.3,0.8,1.4
		C493.8,233.6,493.9,233.7,494.1,233.7z"/>
	<path class="st10" d="M497,223.6v-3.1h4.3v3.1H497z M497,236.1v-11h4.3v11H497z"/>
	<path class="st10" d="M507.1,226.6c0.8-1.2,1.9-1.8,3.3-1.8h0.6c0.9,0,1.7,0.3,2.3,0.9c0.6,0.6,1,1.4,1,2.3v8H510v-6.9
		c0-0.4-0.1-0.7-0.3-0.9c-0.2-0.3-0.5-0.4-0.8-0.4c-0.3,0-0.6,0.1-0.8,0.4c-0.2,0.3-0.3,0.6-0.3,0.9v6.9h-4.3v-11h3.2L507.1,226.6z"
		/>
	<path class="st10" d="M519.8,232.4c0,0.4,0.4,0.7,1.2,0.7h3.5c1.7,0,2.8,0.7,3.3,2c0.1,0.4,0.2,0.9,0.2,1.4c0,1-0.4,1.8-1.3,2.6
		c-0.8,0.7-1.9,1.1-3,1.1H518c-0.7,0-1.3-0.3-1.8-0.8c-0.5-0.5-0.8-1.1-0.8-1.8v-0.1c0-0.5,0.2-1,0.5-1.4c0.3-0.4,0.7-0.7,1.1-0.9
		c-0.7-0.5-1-1.1-1-1.9c0-0.5,0.2-1,0.6-1.5c0.4-0.4,0.9-0.7,1.4-0.9c-1.1-0.8-1.7-1.6-1.7-2.6c0-1,0.4-1.8,1.2-2.5
		c0.9-0.7,2.1-1,3.7-1h0.6c0.5,0,1,0,1.4,0.1c0.6-0.4,1.1-0.8,1.3-1.3c0.1-0.2,0.2-0.4,0.2-0.6h3.2c0,0.9-0.2,1.5-0.6,2
		c-0.4,0.4-1,0.7-1.7,0.9c0.8,0.6,1.2,1.4,1.2,2.3c0,1-0.4,1.8-1.3,2.5c-0.8,0.7-1.9,1-3,1H521c-0.4,0-0.8,0.1-1,0.2
		C519.9,232.1,519.8,232.2,519.8,232.4z M518.9,236.9c0,0.2,0.1,0.5,0.3,0.6c0.2,0.2,0.5,0.3,0.8,0.3h3.1c0.3,0,0.6-0.1,0.8-0.3
		c0.2-0.2,0.3-0.4,0.3-0.6c0-0.2-0.1-0.5-0.3-0.6c-0.2-0.2-0.5-0.3-0.8-0.3H520c-0.3,0-0.6,0.1-0.8,0.3
		C519,236.5,518.9,236.7,518.9,236.9z M520.3,228.3c0,0.4,0.1,0.7,0.4,1c0.3,0.3,0.6,0.4,0.9,0.4c0.4,0,0.7-0.1,0.9-0.4
		c0.3-0.3,0.4-0.6,0.4-1c0-0.4-0.1-0.7-0.4-1c-0.3-0.3-0.6-0.4-0.9-0.4c-0.4,0-0.7,0.1-0.9,0.4C520.5,227.6,520.3,227.9,520.3,228.3
		z"/>
	<path class="st10" d="M534.2,227.3c-1.1,0-1.6,0.2-1.6,0.6c0,0.3,0.2,0.4,0.5,0.5c0.3,0.1,0.8,0.2,1.3,0.2c0.5,0.1,1.1,0.1,1.7,0.2
		c0.6,0.1,1.1,0.2,1.7,0.5c1.2,0.6,1.8,1.5,1.8,2.9c0,1.4-0.5,2.4-1.6,3c-0.9,0.6-2.1,0.8-3.5,0.8h-1.1c-1.3,0-2.4-0.3-3.3-0.8
		c-1-0.6-1.5-1.5-1.5-2.6v-0.2l0-0.2h3.5v0.1c0,0.4,0.2,0.7,0.6,0.9c0.3,0.1,0.7,0.2,1.2,0.2c1.2,0,1.8-0.2,1.8-0.7
		c0-0.3-0.2-0.5-0.5-0.6c-0.3-0.1-0.8-0.2-1.3-0.3c-0.5-0.1-1.1-0.2-1.7-0.3c-0.6-0.1-1.1-0.3-1.7-0.5c-1.2-0.6-1.8-1.5-1.8-2.9
		c0-1.2,0.6-2.2,1.7-2.9c1-0.6,2.1-0.9,3.4-0.9h0.7c1.1,0,2.1,0.2,3.1,0.7c1.1,0.6,1.6,1.3,1.6,2.2l0,0.4l0,0.2h-3.5
		c0-0.5-0.3-0.8-1-0.9C534.5,227.4,534.3,227.3,534.2,227.3z"/>
	<path class="st10" d="M306.9,102.3l5.8-17.5h6.6l5.8,17.5h-5.6l-1-3.1h-5.6l-1,3.1H306.9z M314.3,95.5h3.1l-1.5-5.3h-0.1
		L314.3,95.5z"/>
	<path class="st10" d="M333.2,99.5c0.6,0,1.1-0.1,1.6-0.3v2.9c-0.9,0.4-2,0.6-3.4,0.6c-2.3,0-3.7-0.6-4.3-1.9
		c-0.2-0.5-0.3-1-0.3-1.7v-6.1h-1.4v-3.6h1.6l1.8-4.2h3.1v4.2h3.1v3.6h-3.1v4.8c0,1,0.3,1.5,0.9,1.7C332.8,99.5,333,99.5,333.2,99.5
		z"/>
	<path class="st10" d="M343.8,99.5c0.6,0,1.1-0.1,1.6-0.3v2.9c-0.9,0.4-2,0.6-3.4,0.6c-2.3,0-3.7-0.6-4.3-1.9
		c-0.2-0.5-0.3-1-0.3-1.7v-6.1h-1.4v-3.6h1.6l1.8-4.2h3.1v4.2h3.1v3.6h-3.1v4.8c0,1,0.3,1.5,0.9,1.7
		C343.5,99.5,343.6,99.5,343.8,99.5z"/>
	<path class="st10" d="M346.7,96.2v-0.8c0-2,0.7-3.6,2-4.7c1.2-1.1,2.9-1.7,5-1.7h0.6c2,0,3.5,0.6,4.7,1.7c1.1,1.1,1.6,2.5,1.6,4.2
		v1.6h-8.5v1.2c0,0.6,0.2,1,0.6,1.3c0.4,0.3,0.9,0.4,1.4,0.4c0.6,0,1-0.2,1.3-0.6c0.3-0.4,0.5-0.9,0.5-1.5h4.7
		c0,1.5-0.6,2.7-1.7,3.7c-1.2,1-2.7,1.5-4.7,1.5h-0.4c-2.1,0-3.8-0.6-5.1-1.7C347.4,99.7,346.7,98.2,346.7,96.2z M352.1,94.3h3.5
		v-0.4c0-0.5-0.2-0.9-0.5-1.3c-0.3-0.3-0.8-0.5-1.2-0.5c-0.5,0-0.9,0.2-1.2,0.5s-0.5,0.8-0.5,1.3V94.3z"/>
	<path class="st10" d="M366.9,91.2c1-1.4,2.3-2.1,3.9-2.1h0.7c1.1,0,2,0.4,2.7,1.1c0.7,0.7,1.1,1.6,1.1,2.7v9.4h-5v-8.1
		c0-0.4-0.1-0.8-0.4-1.1c-0.3-0.3-0.6-0.4-1-0.4c-0.4,0-0.7,0.1-1,0.4c-0.3,0.3-0.4,0.7-0.4,1.1v8.1h-5v-13h3.8L366.9,91.2z"/>
	<path class="st10" d="M385.1,99.5c0.6,0,1.1-0.1,1.6-0.3v2.9c-0.9,0.4-2,0.6-3.4,0.6c-2.3,0-3.7-0.6-4.3-1.9
		c-0.2-0.5-0.3-1-0.3-1.7v-6.1h-1.4v-3.6h1.6l1.8-4.2h3.1v4.2h3.1v3.6h-3.1v4.8c0,1,0.3,1.5,0.9,1.7
		C384.7,99.5,384.9,99.5,385.1,99.5z"/>
	<path class="st10" d="M388.5,87.6V84h5v3.6H388.5z M388.5,102.3v-13h5v13H388.5z"/>
	<path class="st10" d="M395.4,96.1v-0.5c0-1.9,0.6-3.5,1.9-4.7c1.3-1.2,2.9-1.8,4.8-1.8h0.8c2,0,3.6,0.6,4.8,1.8
		c1.3,1.2,1.9,2.8,1.9,4.7v0.5c0,1.9-0.6,3.5-1.9,4.7c-1.3,1.2-2.9,1.8-4.8,1.8h-0.8c-2,0-3.6-0.6-4.8-1.8
		C396.1,99.5,395.4,98,395.4,96.1z M400.8,97.7c0,0.5,0.2,0.9,0.5,1.3c0.3,0.3,0.8,0.5,1.2,0.5c0.5,0,0.9-0.2,1.2-0.5
		c0.3-0.3,0.5-0.8,0.5-1.3v-3.8c0-0.5-0.2-0.9-0.5-1.3c-0.3-0.3-0.8-0.5-1.2-0.5c-0.5,0-0.9,0.2-1.2,0.5c-0.3,0.3-0.5,0.8-0.5,1.3
		V97.7z"/>
	<path class="st10" d="M416,91.2c1-1.4,2.3-2.1,3.9-2.1h0.7c1.1,0,2,0.4,2.7,1.1c0.7,0.7,1.1,1.6,1.1,2.7v9.4h-5v-8.1
		c0-0.4-0.1-0.8-0.4-1.1c-0.3-0.3-0.6-0.4-1-0.4c-0.4,0-0.7,0.1-1,0.4c-0.3,0.3-0.4,0.7-0.4,1.1v8.1h-5v-13h3.8L416,91.2z"/>
	<polygon class="st10" points="310.2,140.4 310.2,150.4 308.5,150.4 308.5,140.4 304.9,140.4 304.9,139 313.8,139 313.8,140.4 	"/>
	<path class="st10" d="M319.5,149c-0.7,1-1.7,1.5-3,1.5c-1.3,0-2.1-0.4-2.6-1.2c-0.2-0.3-0.2-0.8-0.2-1.3c0-0.6,0.1-1,0.4-1.4
		c0.3-0.4,0.7-0.7,1.2-0.9c0.8-0.3,2.2-0.5,4.1-0.5v-0.8c0-0.4-0.1-0.7-0.2-0.9c-0.3-0.4-0.9-0.6-1.7-0.6c-0.8,0-1.3,0.2-1.6,0.6
		c-0.2,0.2-0.3,0.5-0.3,0.8v0.2H314c0-0.1,0-0.3,0-0.6c0-0.2,0.1-0.5,0.3-0.8c0.2-0.3,0.4-0.6,0.7-0.8c0.7-0.4,1.5-0.7,2.5-0.7h0.2
		c1.1,0,2,0.2,2.5,0.7c0.5,0.5,0.8,1.1,0.8,1.9v4.4c0,0.2,0,0.4,0.1,0.5c0.1,0.1,0.2,0.1,0.3,0.1c0.3,0,0.5-0.1,0.8-0.2v1.2
		c-0.4,0.2-0.8,0.3-1.3,0.3c-0.5,0-0.9-0.1-1.1-0.4C319.6,149.8,319.5,149.5,319.5,149z M319.4,146.5c-1.4,0-2.4,0.1-2.9,0.2
		c-0.5,0.2-0.8,0.3-1,0.5c-0.2,0.2-0.3,0.5-0.3,0.9c0,0.8,0.6,1.2,1.8,1.2c0.6,0,1.2-0.2,1.7-0.7c0.5-0.5,0.7-1.1,0.7-1.8V146.5z"/>
	<rect x="324.1" y="138.4" class="st10" width="1.6" height="12"/>
	<polygon class="st10" points="334,150.4 331.4,147.2 330.1,148.6 330.1,150.4 328.5,150.4 328.5,138.4 330.1,138.4 330.1,146.6 
		333.9,141.9 335.6,141.9 332.4,146 335.9,150.4 	"/>
	<path class="st10" d="M345.4,145.8l-3.3,4.6h-1.8l4.2-5.9l-3.8-5.5h2l2.8,4.1c0.4-0.5,0.8-1.1,1.1-1.6c0.3-0.5,0.6-0.9,0.9-1.3
		c0.3-0.4,0.5-0.7,0.6-0.9l0.2-0.3h1.8l-0.3,0.5c-0.4,0.5-0.9,1.3-1.7,2.4c-0.7,1-1.3,1.9-1.8,2.6l4.2,6h-2L345.4,145.8z"/>
	<path class="st10" d="M355.9,145.8l-3.3,4.6h-1.8l4.2-5.9l-3.8-5.5h2l2.8,4.1c0.4-0.5,0.8-1.1,1.1-1.6c0.3-0.5,0.6-0.9,0.9-1.3
		c0.3-0.4,0.5-0.7,0.6-0.9l0.2-0.3h1.8l-0.3,0.5c-0.4,0.5-0.9,1.3-1.7,2.4c-0.7,1-1.3,1.9-1.8,2.6l4.2,6h-2L355.9,145.8z"/>
	<path class="st10" d="M371.8,144.9c0-1.3-0.5-2-1.5-2c-0.5,0-1,0.2-1.4,0.7c-0.4,0.5-0.6,1-0.6,1.7v5.1h-1.6v-8.5h1.1l0.2,1.3
		c0.7-0.9,1.6-1.4,2.7-1.4c1.1,0,1.9,0.5,2.3,1.4c0.4-0.6,0.8-1,1.3-1.1s0.9-0.3,1.3-0.3c0.4,0,0.8,0.1,1.1,0.2
		c0.3,0.1,0.6,0.3,0.9,0.5c0.5,0.5,0.8,1.2,0.8,2.2v5.7h-1.6v-5.5c0-1.3-0.5-2-1.5-2c-0.5,0-1,0.2-1.4,0.7c-0.4,0.5-0.6,1-0.6,1.7
		v5.1h-1.6V144.9z"/>
	<path class="st10" d="M388.5,146.4c0,1.3-0.4,2.4-1.2,3.1c-0.7,0.7-1.6,1-2.8,1c-1.1,0-2.1-0.3-2.8-1c-0.8-0.7-1.2-1.8-1.2-3.1
		v-0.6c0-1.3,0.4-2.4,1.2-3.1c0.7-0.7,1.6-1,2.8-1c1.1,0,2.1,0.3,2.8,1c0.8,0.7,1.2,1.8,1.2,3.1V146.4z M386.9,146
		c0-1-0.2-1.8-0.7-2.3c-0.4-0.5-1-0.7-1.7-0.7c-1.1,0-1.8,0.5-2.2,1.6c-0.1,0.4-0.2,0.9-0.2,1.4v0.3c0,1,0.2,1.8,0.7,2.3
		c0.4,0.5,1,0.7,1.7,0.7c1.1,0,1.8-0.6,2.2-1.7c0.1-0.4,0.2-0.8,0.2-1.4V146z"/>
	<polygon class="st10" points="394.5,150.4 392.8,150.4 389.5,141.9 391.2,141.9 393.7,148.4 393.7,148.4 396.2,141.9 397.7,141.9 	
		"/>
	<path class="st10" d="M399.2,138.4h1.6v1.5h-1.6V138.4z M399.3,150.4v-8.5h1.6v8.5H399.3z"/>
	<path class="st10" d="M405,143.1c0.7-0.9,1.7-1.4,2.9-1.4c1.4,0,2.3,0.5,2.8,1.6c0.2,0.4,0.2,0.8,0.2,1.3v5.7h-1.6v-5.5
		c0-0.7-0.2-1.2-0.5-1.5c-0.3-0.3-0.8-0.5-1.3-0.5c-0.6,0-1.1,0.2-1.6,0.7c-0.5,0.5-0.7,1-0.7,1.7v5.1h-1.6v-8.5h1.1L405,143.1z"/>
	<path class="st10" d="M419.6,142.6c0.6,0.5,0.8,1.1,0.8,1.8c0,0.8-0.3,1.4-0.8,1.9c-0.6,0.5-1.4,0.8-2.5,0.8h-1.1
		c-0.3,0-0.6,0.1-0.8,0.3c-0.2,0.2-0.3,0.4-0.3,0.7c0,0.3,0.1,0.5,0.3,0.6c0.2,0.2,0.5,0.2,0.9,0.2h3.2c0.7,0,1.2,0.2,1.6,0.6
		c0.4,0.4,0.6,0.9,0.6,1.6c0,0.8-0.3,1.4-0.9,1.9c-0.6,0.4-1.3,0.6-2.3,0.6h-3.4c-0.6,0-1.1-0.2-1.5-0.6c-0.4-0.4-0.6-0.9-0.6-1.4
		c0-0.5,0.1-0.9,0.4-1.2c0.2-0.3,0.5-0.6,0.9-0.8c-0.5-0.3-0.8-0.8-0.8-1.4c0-0.4,0.1-0.8,0.4-1c0.2-0.3,0.6-0.5,1-0.6
		c-0.7-0.4-1.1-1.1-1.1-2.1c0-0.8,0.3-1.4,0.8-1.9c0.6-0.5,1.5-0.8,2.6-0.8h0.1c0.6,0,1.2,0.1,1.7,0.3c0.8-0.4,1.2-0.9,1.4-1.7h1.3
		c0,0.6-0.2,1-0.5,1.4C420.6,142.1,420.2,142.4,419.6,142.6L419.6,142.6z M418.5,152.3c0.4,0,0.7-0.1,0.9-0.3
		c0.3-0.2,0.4-0.4,0.4-0.7c0-0.3-0.1-0.5-0.3-0.7c-0.2-0.2-0.5-0.3-0.8-0.3h-3.4c-0.3,0-0.5,0.1-0.7,0.3c-0.2,0.2-0.3,0.4-0.3,0.7
		c0,0.3,0.1,0.5,0.3,0.7c0.2,0.2,0.4,0.3,0.7,0.3H418.5z M415,144.4c0,0.5,0.2,0.9,0.6,1.1c0.4,0.2,0.8,0.3,1.4,0.3
		c0.5,0,1-0.1,1.4-0.3c0.4-0.2,0.6-0.6,0.6-1.1c0-0.5-0.2-0.9-0.6-1.1c-0.4-0.2-0.8-0.3-1.4-0.3c-0.5,0-1,0.1-1.4,0.3
		C415.2,143.5,415,143.9,415,144.4z"/>
	<path class="st10" d="M427.4,140.7c0-1.6,0.7-2.5,2-2.5c0.6,0,1.1,0.1,1.6,0.3v1.2c-0.3-0.1-0.6-0.2-0.9-0.2c-0.2,0-0.4,0-0.5,0
		c-0.1,0-0.2,0.1-0.3,0.1c-0.2,0.2-0.3,0.4-0.3,0.9v1.3h2v1.3h-2v7.3h-1.6v-7.3h-0.9v-1.3h0.9V140.7z"/>
	<path class="st10" d="M439.1,144.4L439,145h-1.4v-0.4c0-0.4-0.1-0.7-0.3-1c-0.4-0.5-0.8-0.7-1.4-0.7c-0.6,0-1,0.3-1.3,0.8
		c-0.2,0.4-0.4,1-0.4,1.6v5.1h-1.6v-8.5h1.1l0.2,1.3c0.2-0.5,0.6-0.9,1.4-1.2c0.3-0.1,0.7-0.2,1.1-0.2c0.4,0,0.8,0.1,1.1,0.2
		c0.3,0.1,0.6,0.3,0.8,0.6C438.8,143,439.1,143.6,439.1,144.4z"/>
	<path class="st10" d="M448.2,146.4c0,1.3-0.4,2.4-1.2,3.1c-0.7,0.7-1.6,1-2.8,1c-1.1,0-2.1-0.3-2.8-1c-0.8-0.7-1.2-1.8-1.2-3.1
		v-0.6c0-1.3,0.4-2.4,1.2-3.1c0.7-0.7,1.6-1,2.8-1c1.1,0,2.1,0.3,2.8,1c0.8,0.7,1.2,1.8,1.2,3.1V146.4z M446.6,146
		c0-1-0.2-1.8-0.7-2.3c-0.4-0.5-1-0.7-1.7-0.7c-1.1,0-1.8,0.5-2.2,1.6c-0.1,0.4-0.2,0.9-0.2,1.4v0.3c0,1,0.2,1.8,0.7,2.3
		c0.4,0.5,1,0.7,1.7,0.7c1.1,0,1.8-0.6,2.2-1.7c0.1-0.4,0.2-0.8,0.2-1.4V146z"/>
	<path class="st10" d="M455.6,144.9c0-1.3-0.5-2-1.5-2c-0.5,0-1,0.2-1.4,0.7c-0.4,0.5-0.6,1-0.6,1.7v5.1h-1.6v-8.5h1.1l0.2,1.3
		c0.7-0.9,1.6-1.4,2.7-1.4c1.1,0,1.9,0.5,2.3,1.4c0.4-0.6,0.8-1,1.3-1.1s0.9-0.3,1.3-0.3c0.4,0,0.8,0.1,1.1,0.2
		c0.3,0.1,0.6,0.3,0.9,0.5c0.5,0.5,0.8,1.2,0.8,2.2v5.7h-1.6v-5.5c0-1.3-0.5-2-1.5-2c-0.5,0-1,0.2-1.4,0.7c-0.4,0.5-0.6,1-0.6,1.7
		v5.1h-1.6V144.9z"/>
	<polygon class="st10" points="312.9,170.4 312.9,165.3 307.7,165.3 307.7,170.4 306.1,170.4 306.1,159 307.7,159 307.7,163.8 
		312.9,163.8 312.9,159 314.6,159 314.6,170.4 	"/>
	<path class="st10" d="M322.7,169.1c-0.7,1-1.7,1.5-3,1.5c-1.3,0-2.1-0.4-2.6-1.2c-0.2-0.3-0.2-0.8-0.2-1.3c0-0.6,0.1-1,0.4-1.4
		s0.7-0.7,1.2-0.9c0.8-0.3,2.2-0.5,4.1-0.5v-0.8c0-0.4-0.1-0.7-0.2-0.9c-0.3-0.4-0.9-0.6-1.7-0.6c-0.8,0-1.3,0.2-1.6,0.6
		c-0.2,0.2-0.3,0.5-0.3,0.8v0.2h-1.5c0-0.1,0-0.3,0-0.6c0-0.2,0.1-0.5,0.3-0.8c0.2-0.3,0.4-0.6,0.7-0.8c0.7-0.4,1.5-0.7,2.5-0.7h0.2
		c1.1,0,2,0.2,2.5,0.7c0.5,0.5,0.8,1.1,0.8,1.9v4.4c0,0.2,0,0.4,0.1,0.5c0.1,0.1,0.2,0.1,0.3,0.1c0.3,0,0.5-0.1,0.8-0.2v1.2
		c-0.4,0.2-0.8,0.3-1.3,0.3c-0.5,0-0.9-0.1-1.1-0.4C322.8,169.9,322.7,169.5,322.7,169.1z M322.6,166.5c-1.4,0-2.4,0.1-2.9,0.2
		c-0.5,0.2-0.8,0.3-1,0.5c-0.2,0.2-0.3,0.5-0.3,0.9c0,0.8,0.6,1.2,1.8,1.2c0.6,0,1.2-0.2,1.7-0.7c0.5-0.5,0.7-1.1,0.7-1.8V166.5z"/>
	<rect x="327.3" y="158.4" class="st10" width="1.6" height="12"/>
	<rect x="331.8" y="158.4" class="st10" width="1.6" height="12"/>
	<path class="st10" d="M340.5,160.1c1.3-0.1,2.6-0.5,4-1.1h0.6v10h3v1.5h-7.6v-1.5h3v-7.8h-3V160.1z"/>
	<path class="st10" d="M357.4,169.4c0.3,0,0.6-0.1,1-0.3v1.2c-0.4,0.2-0.9,0.3-1.6,0.3c-0.6,0-1.1-0.2-1.5-0.6
		c-0.3-0.4-0.5-1-0.5-1.9v-5h-0.9v-1.3h1l0.5-2.7h1v2.7h2v1.3h-2v5.1c0,0.6,0.2,1,0.6,1.1C357.1,169.4,357.3,169.4,357.4,169.4z"/>
	<path class="st10" d="M367.7,166.5c0,1.3-0.4,2.4-1.2,3.1c-0.7,0.7-1.6,1-2.8,1c-1.1,0-2.1-0.3-2.8-1c-0.8-0.7-1.2-1.8-1.2-3.1
		v-0.6c0-1.3,0.4-2.4,1.2-3.1c0.7-0.7,1.6-1,2.8-1c1.1,0,2.1,0.3,2.8,1c0.8,0.7,1.2,1.8,1.2,3.1V166.5z M366.1,166
		c0-1-0.2-1.8-0.7-2.3c-0.4-0.5-1-0.7-1.7-0.7c-1.1,0-1.8,0.5-2.2,1.6c-0.1,0.4-0.2,0.9-0.2,1.4v0.3c0,1,0.2,1.8,0.7,2.3
		c0.4,0.5,1,0.7,1.7,0.7c1.1,0,1.8-0.6,2.2-1.7c0.1-0.4,0.2-0.8,0.2-1.4V166z"/>
	<polygon class="st10" points="381,170.4 381,165.3 375.8,165.3 375.8,170.4 374.2,170.4 374.2,159 375.8,159 375.8,163.8 
		381,163.8 381,159 382.7,159 382.7,170.4 	"/>
	<path class="st10" d="M390.8,169.1c-0.7,1-1.7,1.5-3,1.5c-1.3,0-2.1-0.4-2.6-1.2c-0.2-0.3-0.2-0.8-0.2-1.3c0-0.6,0.1-1,0.4-1.4
		c0.3-0.4,0.7-0.7,1.2-0.9c0.8-0.3,2.2-0.5,4.1-0.5v-0.8c0-0.4-0.1-0.7-0.2-0.9c-0.3-0.4-0.9-0.6-1.7-0.6c-0.8,0-1.3,0.2-1.6,0.6
		c-0.2,0.2-0.3,0.5-0.3,0.8v0.2h-1.5c0-0.1,0-0.3,0-0.6c0-0.2,0.1-0.5,0.3-0.8c0.2-0.3,0.4-0.6,0.7-0.8c0.7-0.4,1.5-0.7,2.5-0.7h0.2
		c1.1,0,2,0.2,2.5,0.7c0.5,0.5,0.8,1.1,0.8,1.9v4.4c0,0.2,0,0.4,0.1,0.5c0.1,0.1,0.2,0.1,0.3,0.1c0.3,0,0.5-0.1,0.8-0.2v1.2
		c-0.4,0.2-0.8,0.3-1.3,0.3c-0.5,0-0.9-0.1-1.1-0.4C390.9,169.9,390.8,169.5,390.8,169.1z M390.7,166.5c-1.4,0-2.4,0.1-2.9,0.2
		c-0.5,0.2-0.8,0.3-1,0.5c-0.2,0.2-0.3,0.5-0.3,0.9c0,0.8,0.6,1.2,1.8,1.2c0.6,0,1.2-0.2,1.7-0.7c0.5-0.5,0.7-1.1,0.7-1.8V166.5z"/>
	<rect x="395.4" y="158.4" class="st10" width="1.6" height="12"/>
	<rect x="399.9" y="158.4" class="st10" width="1.6" height="12"/>
	<path class="st10" d="M409.6,167.2c0,0.6,0.2,1.1,0.6,1.4c0.4,0.3,1,0.5,1.8,0.5c0.8,0,1.4-0.2,1.8-0.5c0.5-0.3,0.7-0.8,0.7-1.5
		c0-0.7-0.3-1.2-0.8-1.5c-0.4-0.2-1-0.4-1.8-0.4h-1.3v-1.5h1.3c1,0,1.7-0.3,2.1-1c0.1-0.2,0.2-0.5,0.2-0.8c0-0.3-0.1-0.6-0.2-0.8
		c-0.1-0.2-0.3-0.4-0.5-0.6c-0.4-0.3-0.9-0.4-1.6-0.4c-1,0-1.6,0.3-2,1c-0.1,0.2-0.2,0.5-0.2,0.8v0.2h-1.6v-0.3
		c0-0.9,0.4-1.7,1.1-2.3c0.7-0.6,1.6-0.9,2.7-0.9h0.2c1.1,0,2,0.3,2.7,0.8c0.7,0.6,1.1,1.3,1.1,2.3c0,0.7-0.2,1.2-0.5,1.6
		c-0.3,0.4-0.8,0.7-1.3,1l0,0.1c0.6,0.2,1.1,0.5,1.5,1c0.4,0.5,0.6,1.1,0.6,1.8c0,1-0.4,1.7-1.1,2.3c-0.7,0.6-1.7,0.9-2.9,0.9h-0.2
		c-1.2,0-2.2-0.3-2.9-1c-0.7-0.6-1-1.4-1-2.5v-0.1h1.6V167.2z"/>
	
		<linearGradient id="SVGID_18_" gradientUnits="userSpaceOnUse" x1="-80.7573" y1="916.4935" x2="-79.9145" y2="916.4935" gradientTransform="matrix(55.5931 0 0 -55.5931 4567.5361 51421.6172)">
		<stop  offset="0" style="stop-color:#FFFFFF"/>
		<stop  offset="0.1483" style="stop-color:#FFFCF9"/>
		<stop  offset="0.3365" style="stop-color:#FFF2EA"/>
		<stop  offset="0.5461" style="stop-color:#FFE2D0"/>
		<stop  offset="0.7714" style="stop-color:#FFCCAC"/>
		<stop  offset="1" style="stop-color:#FFB17F"/>
	</linearGradient>
	<path class="st11" d="M123,405l-0.6,100.5c0,0-3.8,12.5-4.7,17.2c-0.2,0.8-0.1,1.7,0.1,2.5l1.4,3.5c0.6,2.5,2.2,5.8,4.5,6.7l5,1.4
		l4.1-127.7L123,405z"/>
	
		<linearGradient id="SVGID_19_" gradientUnits="userSpaceOnUse" x1="-106.3327" y1="908.4655" x2="-105.4899" y2="908.4655" gradientTransform="matrix(-5.2842 122.3365 122.3365 5.2842 -111289.3047 8658.7051)">
		<stop  offset="0" style="stop-color:#FFFFFF"/>
		<stop  offset="1.687996e-02" style="stop-color:#FFF8F4"/>
		<stop  offset="5.325165e-02" style="stop-color:#FFEEE3"/>
		<stop  offset="9.852347e-02" style="stop-color:#FFE7D8"/>
		<stop  offset="0.1621" style="stop-color:#FFE3D1"/>
		<stop  offset="0.3385" style="stop-color:#FFE2CF"/>
		<stop  offset="0.3608" style="stop-color:#F7D5BF"/>
		<stop  offset="0.4066" style="stop-color:#EAC0A4"/>
		<stop  offset="0.4593" style="stop-color:#DFAF8E"/>
		<stop  offset="0.5208" style="stop-color:#D6A17D"/>
		<stop  offset="0.5969" style="stop-color:#D09872"/>
		<stop  offset="0.7037" style="stop-color:#CD926B"/>
		<stop  offset="1" style="stop-color:#CC9169"/>
	</linearGradient>
	<path class="st12" d="M405.9,440.3l-0.6,100.5c0,0-3.8,12.5-4.7,17.2c-0.2,0.8-0.1,1.7,0.1,2.5l1.4,3.5c0.6,2.5,2.2,5.8,4.5,6.7
		l5,1.4l4.1-127.7L405.9,440.3z"/>
	<g class="st1">
		<defs>
			<polyline id="SVGID_20_" class="st1" points="273.6,656.2 78,656.2 78,743.8 273.6,743.8 273.6,656.2 			"/>
		</defs>
		<clipPath id="SVGID_21_">
			<use xlink:href="#SVGID_20_"  style="overflow:visible;"/>
		</clipPath>
		<g style="clip-path:url(#SVGID_21_);">
			
				<image style="overflow:visible;" width="234" height="106" xlink:href="E3C9D9826A9E618D.jpg"  transform="matrix(0.8428 0 0 0.8428 77.1786 655.3262)">
			</image>
		</g>
	</g>
	
		<linearGradient id="SVGID_22_" gradientUnits="userSpaceOnUse" x1="-158.7185" y1="874.4808" x2="-157.8757" y2="874.4808" gradientTransform="matrix(-18.8461 5.8154 5.8154 18.8461 -7768.5117 -15163.1104)">
		<stop  offset="0" style="stop-color:#FFFFFF"/>
		<stop  offset="0.1483" style="stop-color:#FFFCF9"/>
		<stop  offset="0.3365" style="stop-color:#FFF2EA"/>
		<stop  offset="0.5461" style="stop-color:#FFE2D0"/>
		<stop  offset="0.7714" style="stop-color:#FFCCAC"/>
		<stop  offset="1" style="stop-color:#FFB17F"/>
	</linearGradient>
	<path class="st13" d="M295.2,402l-14.1,2.6c-0.5,0.1-1-0.2-1.1-0.8l-0.6-3.3c-0.1-0.5,0.2-1,0.8-1.1l14.1-2.6
		c0.5-0.1,1,0.2,1.1,0.8l0.6,3.3C296,401.4,295.7,401.9,295.2,402z"/>
	<path class="st14" d="M173.3,690.3l-32.9,5.5c-1.6,0.3-4.6,0.2-6.3,0c-4.3-0.6-10.6-2.4-9.8-7.1c0.1-0.3,0.1-0.7,0.3-1
		c2.6-7.5,2.6-7.5,2.6-7.5s4-1.4,6.8-0.6c2.8,0.9,9.7-1.2,11.6-4.3c1.9-3.1,6.9-0.3,6.9-0.3l19.3,4.4c0,0,3.3,0.4,3.8,2.7
		C176,684.4,176.7,686.2,173.3,690.3z"/>
	
		<linearGradient id="SVGID_23_" gradientUnits="userSpaceOnUse" x1="-90.6138" y1="908.5762" x2="-89.771" y2="908.5762" gradientTransform="matrix(118.4347 1.8076 1.8076 -118.4347 9206.4414 108353.1328)">
		<stop  offset="0" style="stop-color:#157FFF"/>
		<stop  offset="1" style="stop-color:#001B3F"/>
	</linearGradient>
	<path class="st15" d="M204.8,479.9l-18.3,208c-0.2,2.2-1.2,4.2-2.8,5.8c-3.1,3-9.5,6.9-18.8,2c-1.8-1-1-7.6-1-7.6l1.3-167.2
		l-1.4-0.2l-13.4,155.7c0,0-1.2,5.2-15.4,5.2c-8,0-7.7-2.4-7.7-2.4s1.7-195.9,2.2-203.7c0.5-7.8,0.5-7.8,0.5-7.8s3.9,9.3,27.8,12.7
		C181.9,483.8,204.8,479.9,204.8,479.9z"/>
	
		<linearGradient id="SVGID_24_" gradientUnits="userSpaceOnUse" x1="-153.8954" y1="833.4128" x2="-153.0526" y2="833.4128" gradientTransform="matrix(-14.5974 -2.5116 -2.5116 14.5974 155.7499 -12148.9424)">
		<stop  offset="0" style="stop-color:#FFFFFF"/>
		<stop  offset="0.1483" style="stop-color:#FFFCF9"/>
		<stop  offset="0.3365" style="stop-color:#FFF2EA"/>
		<stop  offset="0.5461" style="stop-color:#FFE2D0"/>
		<stop  offset="0.7714" style="stop-color:#FFCCAC"/>
		<stop  offset="1" style="stop-color:#FFB17F"/>
	</linearGradient>
	<path class="st16" d="M303.6,405.9l-9.6-3.8c-0.4-0.2-0.7-0.7-0.5-1.1l1.2-3.1c0.2-0.4,0.7-0.7,1.1-0.5l9.6,3.8
		c0.4,0.2,0.7,0.7,0.5,1.1l-1.2,3.1C304.5,405.9,304,406.1,303.6,405.9z"/>
	
		<linearGradient id="SVGID_25_" gradientUnits="userSpaceOnUse" x1="-120.1861" y1="890.1436" x2="-119.3433" y2="890.1436" gradientTransform="matrix(-53.6873 12.4832 12.4832 53.6873 -17420.5352 -45893.3672)">
		<stop  offset="0" style="stop-color:#FF3F45"/>
		<stop  offset="1" style="stop-color:#FF7FCA"/>
	</linearGradient>
	<path class="st17" d="M127.2,379.5l-10.5,39c-1.2,4.3,4.4,5.1,9.9,6.7l9.2,2.1c1,0,1.4-3.4,1.1-4.6l14.9-57.6
		C151,363.3,132.1,368.6,127.2,379.5z"/>
	
		<linearGradient id="SVGID_26_" gradientUnits="userSpaceOnUse" x1="-102.7361" y1="892.2729" x2="-101.8933" y2="892.2729" gradientTransform="matrix(-124.1606 -60.1003 -60.1003 124.1606 41086.3711 -116501.1016)">
		<stop  offset="0" style="stop-color:#FF3F45"/>
		<stop  offset="1" style="stop-color:#FF7FCA"/>
	</linearGradient>
	<path class="st18" d="M129,494.4c0,0,3.2-94.9,6.3-113.6c3.7-22.7,40-18,42.1-17.7c7.9,1.2,17.3,4.9,25.7,8.2
		c18.1,7.2,25.5,41.6,25.5,41.6l-20.4,7.2l-0.2,81.3C208,501.5,156.4,521.7,129,494.4z"/>
	
		<linearGradient id="SVGID_27_" gradientUnits="userSpaceOnUse" x1="-50.8055" y1="941.5671" x2="-49.9627" y2="941.5671" gradientTransform="matrix(20.7229 0 0 -20.7229 1213.6195 19872.0645)">
		<stop  offset="0" style="stop-color:#FFFFFF"/>
		<stop  offset="0.1483" style="stop-color:#FFFCF9"/>
		<stop  offset="0.3365" style="stop-color:#FFF2EA"/>
		<stop  offset="0.5461" style="stop-color:#FFE2D0"/>
		<stop  offset="0.7714" style="stop-color:#FFCCAC"/>
		<stop  offset="1" style="stop-color:#FFB17F"/>
	</linearGradient>
	<path class="st19" d="M176.6,366.3c-6.4,4.3-15.8-1.7-15.8-1.7l2-12.2l15.5,2.2C178.2,354.5,176.7,365.4,176.6,366.3z"/>
	
		<linearGradient id="SVGID_28_" gradientUnits="userSpaceOnUse" x1="-47.9886" y1="934.761" x2="-47.1458" y2="934.761" gradientTransform="matrix(20.5149 -2.9288 -2.9288 -20.5149 4157.0469 19403.2129)">
		<stop  offset="0" style="stop-color:#FFFFFF"/>
		<stop  offset="0.1483" style="stop-color:#FFFCF9"/>
		<stop  offset="0.3365" style="stop-color:#FFF2EA"/>
		<stop  offset="0.5461" style="stop-color:#FFE2D0"/>
		<stop  offset="0.7714" style="stop-color:#FFCCAC"/>
		<stop  offset="1" style="stop-color:#FFB17F"/>
	</linearGradient>
	<path class="st20" d="M451.4,371.2c-5.7,5.2-15.9,0.5-15.9,0.5l0.2-12.4l15.6,0C451.4,359.3,451.4,370.3,451.4,371.2z"/>
	
		<linearGradient id="SVGID_29_" gradientUnits="userSpaceOnUse" x1="-82.8871" y1="915.5983" x2="-82.0443" y2="915.5983" gradientTransform="matrix(61.9815 0 0 -61.9815 5298.3828 57454.293)">
		<stop  offset="0" style="stop-color:#633FFF"/>
		<stop  offset="1" style="stop-color:#C22AFF"/>
	</linearGradient>
	<path class="st21" d="M161.5,703.7L161,706c-0.4,1.7,0.3,3.4,1.8,4.2c1.4,0.9,3.7,1.7,7,1.7c3.7,0,13.1-1.2,16.1-1.5
		c3-0.3,21.4-3.2,23-4.1c2-1.2,3.8-3.2,4.1-5.1c0.3-1.9,0-5,0-5L161.5,703.7z"/>
	<path class="st14" d="M203.7,705.1l-27.4,4c-2.4,0.3-4.8,0.4-7.2,0.1c-3.9-0.5-8.5-2.1-7.3-6.7c2.4-8.8,2.2-7.6,2.2-7.6
		s2,2.2,6.7,2.7c2.9,0.3,11.6-1.2,13.7-4.6c1.9-3.1,2.3-5.1,2.3-5.1l21.7,3.9c0,0,2.7,0.5,3.9,2.5c0.5,0.9,1.4,2.9-0.6,5.9
		C210,702.9,207,704.6,203.7,705.1z"/>
	
		<linearGradient id="SVGID_30_" gradientUnits="userSpaceOnUse" x1="-78.1805" y1="919.6872" x2="-77.3377" y2="919.6872" gradientTransform="matrix(48.3086 0 0 -48.3086 3899.8655 45121.7578)">
		<stop  offset="0" style="stop-color:#633FFF"/>
		<stop  offset="1" style="stop-color:#C22AFF"/>
	</linearGradient>
	<path class="st22" d="M163.8,691.6l-23,1.6c-5.2,0.3-10.1,0.1-14.9-2.1c-0.9-0.4-1.8-1.3-1.7-1.5c0.1-0.3-0.4,0.6-0.9,1.6
		c-0.6,1.2,0,2.6,1.2,3c1.8,0.6,4.1,1.3,5.7,1.5c4,0.7,13.6,0.7,23.1-0.3c9.4-1,10.5-1.2,10.5-1.2V691.6z"/>
	
		<linearGradient id="SVGID_31_" gradientUnits="userSpaceOnUse" x1="-97.9372" y1="910.9093" x2="-97.0944" y2="910.9093" gradientTransform="matrix(94.0676 90.4978 90.4978 -94.0676 -73051.1719 94885.0469)">
		<stop  offset="0" style="stop-color:#FFFFFF"/>
		<stop  offset="0.1483" style="stop-color:#FFFCF9"/>
		<stop  offset="0.3365" style="stop-color:#FFF2EA"/>
		<stop  offset="0.5461" style="stop-color:#FFE2D0"/>
		<stop  offset="0.7714" style="stop-color:#FFCCAC"/>
		<stop  offset="1" style="stop-color:#FFB17F"/>
	</linearGradient>
	<path class="st23" d="M202.8,421.8l17,30.2c2.5,4.5,8.6,5.5,12.4,2l46-44.2l22.4,3.4l9.3-8.7c3.7-2.3,3.4-3.6,1.8-5.6
		c-0.3-0.4-2.6,0-3,0.1l-10.5,2.6l-5-1.8l-13.1,0.4l-50,25.6l-5.2-11.5L202.8,421.8z"/>
	<path class="st4" d="M267.3,405.6l4.6-2.4c0,0,8.2,9.4,4.8,12.6c-2.8,2.7-3.4,3.1-3.4,3.1S275,411.5,267.3,405.6z"/>
	
		<linearGradient id="SVGID_32_" gradientUnits="userSpaceOnUse" x1="-27.3681" y1="963.3082" x2="-26.5253" y2="963.3082" gradientTransform="matrix(13.6551 0 0 -13.6551 644.9061 13568.5508)">
		<stop  offset="0" style="stop-color:#633FFF"/>
		<stop  offset="1" style="stop-color:#C22AFF"/>
	</linearGradient>
	<circle class="st24" cx="276.9" cy="414.5" r="5.8"/>
	<circle class="st10" cx="277" cy="414.5" r="4.6"/>
	<polygon class="st25" points="271.8,417.5 271.3,417.7 271.2,417.7 270.6,416 270.7,415.9 271.2,415.7 271.3,415.8 271.9,417.4 	
		"/>
	
		<linearGradient id="SVGID_33_" gradientUnits="userSpaceOnUse" x1="-79.3981" y1="917.3678" x2="-78.5553" y2="917.3678" gradientTransform="matrix(51.066 0 0 -51.066 4203.1914 47180.4805)">
		<stop  offset="0" style="stop-color:#FFFFFF"/>
		<stop  offset="0.1483" style="stop-color:#FFFCF9"/>
		<stop  offset="0.3365" style="stop-color:#FFF2EA"/>
		<stop  offset="0.5461" style="stop-color:#FFE2D0"/>
		<stop  offset="0.7714" style="stop-color:#FFCCAC"/>
		<stop  offset="1" style="stop-color:#FFB17F"/>
	</linearGradient>
	<path class="st26" d="M191.6,332.3c1.3,14.1-7.3,26.4-19.1,27.4c-5.7,0.5-11.2-1.7-15.4-5.7c-4.5-4.3-7.6-10.6-8.3-17.9
		c-1.3-14.1,7.3-26.4,19.1-27.4C179.7,307.6,190.3,318.2,191.6,332.3z"/>
	
		<linearGradient id="SVGID_34_" gradientUnits="userSpaceOnUse" x1="-79.9936" y1="916.8584" x2="-79.1508" y2="916.8584" gradientTransform="matrix(52.7027 0 0 -52.7027 4360.7935 48654.8281)">
		<stop  offset="0" style="stop-color:#FFA300"/>
		<stop  offset="2.655441e-02" style="stop-color:#FB9D00"/>
		<stop  offset="0.1894" style="stop-color:#E57F00"/>
		<stop  offset="0.3613" style="stop-color:#D46800"/>
		<stop  offset="0.544" style="stop-color:#C85700"/>
		<stop  offset="0.7452" style="stop-color:#C14D00"/>
		<stop  offset="1" style="stop-color:#BF4A00"/>
	</linearGradient>
	<path class="st27" d="M163.7,359.8c2.4,0.4,4.9,0.8,6,0.7c8.8-1.2,8.7-15.5,8.4-20.9c-0.1-1.3,0.4-2.5,1.4-3.3
		c2.3-1.9,6.4-5.7,8.2-9.9c2.6-6,1.2-5.9,0.8-10.1c-0.4-4.1-15.6-12.1-27.8-7.9c-19.8,6.8-16.4,27.3-14.3,35.2c0.3,1,2,5.2,3.1,6.6
		C156.3,359,160.6,359.2,163.7,359.8z"/>
	
		<linearGradient id="SVGID_35_" gradientUnits="userSpaceOnUse" x1="-59.8937" y1="928.1865" x2="-59.0509" y2="928.1865" gradientTransform="matrix(27.1347 -2.422 -2.422 -27.1347 4052.4602 25356.7852)">
		<stop  offset="0" style="stop-color:#633FFF"/>
		<stop  offset="1" style="stop-color:#C22AFF"/>
	</linearGradient>
	<path class="st28" d="M184,324.5c0,0,14.2-10,15.9-10.9s2.9-3.9,0.6-5.1c-2.3-1.2-12.4-2.8-16.3-2.3c-4,0.5-5.7,2-5.7,2L184,324.5z
		"/>
	
		<radialGradient id="SVGID_36_" cx="-100.9516" cy="941.0713" r="0.8428" gradientTransform="matrix(19.4714 25.8804 25.8804 -19.4714 -22230.6133 21243.5078)" gradientUnits="userSpaceOnUse">
		<stop  offset="0" style="stop-color:#18325B"/>
		<stop  offset="1.740408e-03" style="stop-color:#18325B"/>
		<stop  offset="1" style="stop-color:#1B1D31"/>
	</radialGradient>
	<path class="st29" d="M177.6,303.4c-4.7-2.5-17-4.5-25.9,3.1c-8.9,7.6-9.3,18.1-7.1,30.3c0,0,5.3,1.5,14.1,0.7
		c8.7-0.8,28.2-10.5,29.5-14.2C189.4,319.5,185.5,307.6,177.6,303.4z M157.9,335.4c0,0-9.4,0.8-10.1-0.2c-0.6-0.1-0.8-2.9-0.4-2.4
		c0.4,0.5,7.6,0.6,9.5-0.1C158.3,332.3,157.9,335.4,157.9,335.4z"/>
	
		<linearGradient id="SVGID_37_" gradientUnits="userSpaceOnUse" x1="157.387" y1="1078.6823" x2="158.2298" y2="1078.6823" gradientTransform="matrix(4.167 -0.3719 -0.3719 -4.167 -112.8974 4887.2046)">
		<stop  offset="0" style="stop-color:#18325B"/>
		<stop  offset="1.740408e-03" style="stop-color:#18325B"/>
		<stop  offset="1" style="stop-color:#1B1D31"/>
	</linearGradient>
	<polygon class="st30" points="144.4,335.4 141.3,335 140.6,333 141.5,331.9 143.8,332.1 	"/>
	<path class="st31" d="M171.6,333.9c0,0,0.3-0.2,0.3-0.7c0-0.5-0.5-2.3-0.5-2.3l4.1-1.6c0,0,0.4,2.2,0.3,2.7
		C175.6,332.6,171.6,333.9,171.6,333.9z"/>
	
		<linearGradient id="SVGID_38_" gradientUnits="userSpaceOnUse" x1="34.3771" y1="1048.5496" x2="35.22" y2="1048.5496" gradientTransform="matrix(6.4671 0.9313 0.9313 -6.4671 -1044.6848 7051.9116)">
		<stop  offset="0" style="stop-color:#633FFF"/>
		<stop  offset="1" style="stop-color:#C22AFF"/>
	</linearGradient>
	<circle class="st32" cx="156.9" cy="303.3" r="2.8"/>
	
		<linearGradient id="SVGID_39_" gradientUnits="userSpaceOnUse" x1="-107.9768" y1="880.2754" x2="-107.134" y2="880.2754" gradientTransform="matrix(-51.9071 -25.1258 -25.1258 51.9071 16738.2324 -47994.3086)">
		<stop  offset="0" style="stop-color:#FF3F45"/>
		<stop  offset="1" style="stop-color:#FF7FCA"/>
	</linearGradient>
	<path class="st33" d="M196,425.8c0,0-11.3-27-5.5-45.4c2-6.2,8.7-9.9,14.8-7.7c2,0.7,3.9,1.8,5.6,3.5c12,11.9,19.2,36.1,19.2,36.1
		L196,425.8z"/>
	
		<linearGradient id="SVGID_40_" gradientUnits="userSpaceOnUse" x1="-134.1947" y1="863.9948" x2="-133.3519" y2="863.9948" gradientTransform="matrix(-26.0521 -2.2287 -2.2287 26.0521 -1413.1062 -22206.793)">
		<stop  offset="0" style="stop-color:#157FFF"/>
		<stop  offset="1" style="stop-color:#001B3F"/>
	</linearGradient>
	<path class="st34" d="M142.4,681c0,0,7.9-0.6,8.1-4.7c0.2-4.1,13.4-155.7,13.4-155.7l-10.3-1L142.4,681z"/>
	
		<linearGradient id="SVGID_41_" gradientUnits="userSpaceOnUse" x1="-135.1264" y1="862.7621" x2="-134.2836" y2="862.7621" gradientTransform="matrix(-25.1878 -2.1548 -2.1548 25.1878 -1349.4238 -21422.9238)">
		<stop  offset="0" style="stop-color:#157FFF"/>
		<stop  offset="1" style="stop-color:#001B3F"/>
	</linearGradient>
	<path class="st35" d="M181.8,694.9c0,0,4.2-3.6,4.9-6.3c0.7-2.7,16.1-185.4,16.1-185.4l-10.2,2.8L181.8,694.9z"/>
	<polygon class="st4" points="438.6,718.7 412.4,718.5 413.7,708.4 425.4,706.2 437.5,708.5 	"/>
	<rect x="424.2" y="700.1" class="st4" width="2.5" height="6.9"/>
	
		<linearGradient id="SVGID_42_" gradientUnits="userSpaceOnUse" x1="-71.0139" y1="926.1245" x2="-70.1711" y2="926.1245" gradientTransform="matrix(34.1506 0 0 -34.1506 2816.447 32080.8555)">
		<stop  offset="0" style="stop-color:#8E79FF"/>
		<stop  offset="1" style="stop-color:#401B7E"/>
	</linearGradient>
	<path class="st36" d="M416.9,529.8h-15.2l-10.3-73.6c-0.2-1.7-0.2-3.5,0.1-5.2l11-58.7c1.7-9.9,6.7-15.9,15.1-15.9l2.3,0
		L416.9,529.8z"/>
	
		<linearGradient id="SVGID_43_" gradientUnits="userSpaceOnUse" x1="-7.7131" y1="975.8435" x2="-6.8703" y2="975.8435" gradientTransform="matrix(10.9625 -0.963 -0.8772 -9.9856 1442.5796 10068.0986)">
		<stop  offset="0" style="stop-color:#FFFFFF"/>
		<stop  offset="0.1483" style="stop-color:#FFFCF9"/>
		<stop  offset="0.3365" style="stop-color:#FFF2EA"/>
		<stop  offset="0.5461" style="stop-color:#FFE2D0"/>
		<stop  offset="0.7714" style="stop-color:#FFCCAC"/>
		<stop  offset="1" style="stop-color:#FFB17F"/>
	</linearGradient>
	<path class="st37" d="M508.1,340l-1.6-10.8l0.6-7.9l1.7,0.3c0.3,0.1,0.5,0.4,0.6,0.7l1.7,6.7L508.1,340z"/>
	
		<linearGradient id="SVGID_44_" gradientUnits="userSpaceOnUse" x1="-81.6848" y1="894.7932" x2="-80.842" y2="894.7932" gradientTransform="matrix(31.055 -58.7969 -63.9586 -27.3741 60270.4648 20091.6426)">
		<stop  offset="0" style="stop-color:#FFFFFF"/>
		<stop  offset="0.1483" style="stop-color:#FFFCF9"/>
		<stop  offset="0.3365" style="stop-color:#FFF2EA"/>
		<stop  offset="0.5461" style="stop-color:#FFE2D0"/>
		<stop  offset="0.7714" style="stop-color:#FFCCAC"/>
		<stop  offset="1" style="stop-color:#FFB17F"/>
	</linearGradient>
	<path class="st38" d="M507.9,339.1l2.3-8.2l0-0.1l5.8-17.3c0.2-0.5,3.1-0.8,3.3,0.6l-2.6,12.9l2.2-2.4c0.5-0.6,1.5-0.6,2,0l2.6,3.1
		c0.1,0.1,1.5,2.6,1.5,2.7l0.2,3.4c0,0.1-0.5,3.4-0.4,3.8l-2.3,6c-1.7,2.3-4,5.3-4,5.3c0,0.3,0.4,6.4,0.1,9.2l4.2,70.5
		c-35.6,59.9-12.9-78.6-13-79l-2.2-10.3C507.9,339.2,507.9,339.2,507.9,339.1z"/>
	
		<linearGradient id="SVGID_45_" gradientUnits="userSpaceOnUse" x1="-82.3018" y1="915.6851" x2="-81.4589" y2="915.6851" gradientTransform="matrix(56.935 0 0 -56.935 5104.0791 52470.1289)">
		<stop  offset="0" style="stop-color:#FFE845"/>
		<stop  offset="1" style="stop-color:#FF7F00"/>
	</linearGradient>
	<path class="st39" d="M466.2,332.4c0,13.8-9.4,29.6-23.2,29.6s-24.8-14.6-24.8-28.4c0-13.8,10-24.6,23.8-24.6
		C455.8,309.1,466.2,318.6,466.2,332.4z"/>
	
		<linearGradient id="SVGID_46_" gradientUnits="userSpaceOnUse" x1="-85.5213" y1="918.8157" x2="-84.6785" y2="918.8157" gradientTransform="matrix(56.7017 10.8149 10.8149 -56.7017 -4702.8936 53510.6914)">
		<stop  offset="0" style="stop-color:#FF3F45"/>
		<stop  offset="1" style="stop-color:#FF7FCA"/>
	</linearGradient>
	<polygon class="st40" points="429.5,513.1 381.7,504 388,470.7 435.8,479.9 	"/>
	
		<linearGradient id="SVGID_47_" gradientUnits="userSpaceOnUse" x1="-85.5264" y1="918.8174" x2="-84.6836" y2="918.8174" gradientTransform="matrix(56.7017 10.8149 10.8149 -56.7017 -4701.1733 53511.6367)">
		<stop  offset="0" style="stop-color:#FFE845"/>
		<stop  offset="1" style="stop-color:#FF7F00"/>
	</linearGradient>
	<polygon class="st41" points="431,513.5 383.2,504.4 389.4,472 437.2,481.1 	"/>
	
		<linearGradient id="SVGID_48_" gradientUnits="userSpaceOnUse" x1="-85.5382" y1="918.8163" x2="-84.6954" y2="918.8163" gradientTransform="matrix(56.7017 10.8149 10.8149 -56.7017 -4696.8291 53512.0469)">
		<stop  offset="0" style="stop-color:#FF3F45"/>
		<stop  offset="1" style="stop-color:#FF7FCA"/>
	</linearGradient>
	<polygon class="st42" points="434.6,514.3 386.8,505.1 393.1,471.9 440.9,481 	"/>
	
		<linearGradient id="SVGID_49_" gradientUnits="userSpaceOnUse" x1="-85.7947" y1="913.2637" x2="-84.9519" y2="913.2637" gradientTransform="matrix(71.8864 0 0 -71.8864 6593.4038 66230.8047)">
		<stop  offset="0" style="stop-color:#006A51"/>
		<stop  offset="1" style="stop-color:#003833"/>
	</linearGradient>
	<polygon class="st43" points="478.4,695.6 438.6,694.9 450.8,579 425.9,465.4 468.6,463.5 486.5,584.5 	"/>
	
		<linearGradient id="SVGID_50_" gradientUnits="userSpaceOnUse" x1="-78.764" y1="919.707" x2="-77.9212" y2="919.707" gradientTransform="matrix(47.1082 0 0 -47.1082 4114.8901 43903.4492)">
		<stop  offset="0" style="stop-color:#006A51"/>
		<stop  offset="1" style="stop-color:#003833"/>
	</linearGradient>
	<polygon class="st44" points="441.1,694.3 404.5,695 409,460.4 444.2,464.2 	"/>
	
		<linearGradient id="SVGID_51_" gradientUnits="userSpaceOnUse" x1="-89.7278" y1="909.2763" x2="-88.885" y2="909.2763" gradientTransform="matrix(102.8782 0 0 -102.8782 9632.165 93962.6406)">
		<stop  offset="0" style="stop-color:#8E79FF"/>
		<stop  offset="1" style="stop-color:#401B7E"/>
	</linearGradient>
	<path class="st45" d="M487.8,466.2l-86.7-0.9l9-77.4c-1.6-15.2,16-18,36.6-18.4h0c20.2,0,31.6,4.5,31.6,14.7L487.8,466.2z"/>
	
		<linearGradient id="SVGID_52_" gradientUnits="userSpaceOnUse" x1="-85.4242" y1="913.2478" x2="-84.5814" y2="913.2478" gradientTransform="matrix(69.3873 0 0 -69.3873 6392.3687 63777.0781)">
		<stop  offset="0" style="stop-color:#8E79FF"/>
		<stop  offset="1" style="stop-color:#401B7E"/>
	</linearGradient>
	<path class="st46" d="M479.4,426.7l-14.4-55c-0.1-0.5,12.9,2.4,17.7,9.6l21.3,39.8c0,0-1.8-54.2-1.3-54.2
		c3.7-0.1,20.8,0.6,20.8,0.8l-0.8,64.5c-0.1,5.8-2.3,11.4-6.5,15.4C502.6,460.3,485.6,440.7,479.4,426.7z"/>
	
		<linearGradient id="SVGID_53_" gradientUnits="userSpaceOnUse" x1="-71.1863" y1="925.9526" x2="-70.3435" y2="925.9526" gradientTransform="matrix(34.1827 0 0 -34.1827 2851.3904 32077.4844)">
		<stop  offset="0" style="stop-color:#FFE845"/>
		<stop  offset="1" style="stop-color:#FF7F00"/>
	</linearGradient>
	<path class="st47" d="M446.9,529.9l-28.8,0.2l4.1-193.3c0-8.3,5.2-15.1,11.5-15.1c6.4,0,11.5,6.7,11.5,15.1L446.9,529.9z"/>
	<path class="st10" d="M407.7,282.6c-1.9,10.3-11.5,20-23.3,21.4c-12.8,1.5-25.1-5.7-29.3-17.8c-6.3-18.3,6.1-33.2,19.5-36.2
		c4.1-0.9,8.7-0.5,9-0.5c11.3,0.9,21.5,9.9,23.9,21C408.9,275.1,408,280.9,407.7,282.6z M380.9,251.8c-13.6-0.4-25.2,11.6-25,24.9
		c0.2,14,11.1,25,25.1,25.1c13.5,0.1,25.2-11.4,25.1-25.2C405.9,263.1,394.3,251.4,380.9,251.8z"/>
	<path class="st10" d="M388.9,275.2c-0.9-0.8-1.6-1.5-2.2-2.1c-1.6-1.5-3.3-3.1-4.9-4.6c-0.6-0.5-0.7-1.2-0.2-1.8
		c0.6-0.6,1.2-0.5,1.8,0c0.5,0.4,0.9,0.9,1.4,1.3c2.5,2.4,5.1,4.8,7.6,7.2c0.9,0.8,0.9,1.4,0.1,2.3c-2.7,2.7-5.5,5.5-8.3,8.2
		c-0.7,0.7-1.4,0.8-1.9,0.3c-0.6-0.6-0.5-1.2,0.3-2c1.9-1.9,3.7-3.7,5.6-5.5c0.2-0.2,0.4-0.4,0.8-0.9c-0.6,0-1,0-1.3,0
		c-6.6,0-13.1,0-19.7,0c-0.3,0-0.7,0.1-0.9-0.1c-0.4-0.3-0.9-0.7-1-1.1c-0.1-0.6,0.3-1.1,1-1.2c0.3-0.1,0.6,0,1,0
		c6.5,0,13.1,0,19.6,0C387.9,275.2,388.2,275.2,388.9,275.2z"/>
	<path class="st10" d="M243.1,121.1c-0.3,0.7-0.9,1-1.6,1c-18.8,0-37.6,0-56.4,0c-0.4,0-0.8-0.1-1.1-0.3c-0.8-0.5-0.7-1.5,0.1-2.1
		c0.6-0.5,1.2-0.9,1.9-1.3c3.2-2.3,6.4-4.5,9.6-6.8c3.6-2.5,7.2-5,10.8-7.5c2.1-1.5,4.2-3,6.3-4.4c0.6-0.4,1.2-0.4,1.8,0
		c3.1,2.2,6.2,4.4,9.3,6.6c2.8,2,5.6,4,8.4,6c3.1,2.2,6.2,4.4,9.3,6.6c0.6,0.4,1.2,1,1.7,1.5C243.1,120.7,243.1,120.9,243.1,121.1z
		 M237.8,119.5c-0.9-0.6-1.7-1.2-2.5-1.7c-3.6-2.5-7.1-5.1-10.7-7.6c-3.6-2.6-7.3-5.2-10.9-7.7c-0.2-0.2-0.4-0.2-0.6,0
		c-1.1,0.8-2.1,1.5-3.2,2.3c-3,2.1-5.9,4.2-8.9,6.3c-3.9,2.7-7.8,5.5-11.7,8.2c-0.2,0.1-0.3,0.2-0.5,0.4
		C205.2,119.5,221.4,119.5,237.8,119.5z"/>
	<path class="st10" d="M233.2,149.4c0.3,0,0.4,0,0.6,0c1.6,0,3.1,0,4.7,0c1.2,0,1.6,0.4,1.6,1.6c0,1.9,0,3.8,0,5.7
		c0,1.1-0.4,1.6-1.6,1.6c-16.8,0-33.7,0-50.5,0c-1.2,0-1.6-0.4-1.6-1.6c0-1.9,0-3.8,0-5.7c0-1.1,0.5-1.6,1.6-1.6c1.6,0,3.1,0,4.7,0
		c0.2,0,0.3,0,0.6,0c0-0.2,0-0.4,0-0.6c0-7.5,0-14.9,0-22.4c0-0.2,0-0.5,0-0.7c0.1-0.6,0.6-1,1.2-1.1c0.6,0,1.1,0.3,1.3,0.9
		c0.1,0.2,0.1,0.5,0.1,0.7c0,8,0,16,0,24c0,1.2-0.4,1.6-1.6,1.6c-1.6,0-3.2,0-4.8,0c-0.4,0-0.5,0.1-0.5,0.5c0,0.9,0,1.8,0,2.8
		c0,0.5,0.1,0.6,0.6,0.6c9.6,0,19.2,0,28.9,0c6.2,0,12.4,0,18.6,0c0.7,0,0.7,0,0.7-0.6c0-0.9,0-1.7,0-2.6c0-0.6,0-0.6-0.6-0.6
		c-1.6,0-3.1,0-4.7,0c-1.1,0-1.6-0.5-1.6-1.6c0-8,0-16.1,0-24.1c0-1,0.5-1.6,1.3-1.6c0.6,0,1.1,0.4,1.2,1.1c0,0.2,0,0.5,0,0.7
		c0,7.5,0,14.9,0,22.4C233.2,149,233.2,149.2,233.2,149.4z"/>
	<path class="st10" d="M203.3,139.6c0,3.6,0,7.2,0,10.7c0,0.4-0.1,0.8-0.4,1.2c-0.3,0.4-0.8,0.5-1.2,0.4c-0.4-0.1-0.7-0.4-0.9-0.9
		c-0.1-0.2-0.1-0.4-0.1-0.7c0-7.2,0-14.4,0-21.6c0-1,0.5-1.6,1.4-1.6c0.5,0,1,0.4,1.1,0.9c0,0.2,0.1,0.5,0.1,0.7
		C203.3,132.4,203.3,136,203.3,139.6z"/>
	<path class="st10" d="M225.8,139.6c0,3.6,0,7.2,0,10.7c0,0.4-0.1,0.8-0.3,1.2c-0.3,0.5-0.8,0.6-1.3,0.4c-0.5-0.1-0.8-0.5-0.9-1
		c0-0.2,0-0.3,0-0.5c0-7.3,0-14.5,0-21.8c0-1,0.6-1.6,1.4-1.5c0.5,0.1,0.9,0.4,1,0.9c0.1,0.3,0.1,0.5,0.1,0.8
		C225.8,132.4,225.8,136,225.8,139.6z"/>
	<path class="st10" d="M210.8,139.6c0,3.5,0,7.1,0,10.6c0,0.3,0,0.5-0.1,0.8c-0.1,0.6-0.6,1-1.2,1c-0.6,0-1.1-0.4-1.2-1
		c0-0.2-0.1-0.5-0.1-0.7c0-7.1,0-14.3,0-21.4c0-0.2,0-0.5,0.1-0.7c0.1-0.6,0.6-1,1.2-1c0.6,0,1.1,0.4,1.2,1c0,0.2,0.1,0.5,0.1,0.7
		C210.8,132.5,210.8,136.1,210.8,139.6z"/>
	<path class="st10" d="M218.2,139.6c0,3.6,0,7.2,0,10.7c0,0.4-0.1,0.8-0.2,1.1c-0.3,0.5-0.7,0.6-1.3,0.5c-0.5-0.1-0.8-0.4-0.9-0.9
		c-0.1-0.2-0.1-0.5-0.1-0.7c0-7.2,0-14.4,0-21.5c0-1.1,0.5-1.7,1.4-1.6c0.5,0,0.9,0.4,1,0.9c0.1,0.3,0.1,0.5,0.1,0.8
		C218.2,132.4,218.2,136,218.2,139.6z"/>
	<path class="st10" d="M500.8,295.7c0.2-1.5,0.3-3,0.5-4.6c0.1-0.6-0.1-1.1-0.5-1.6c-1-1-1.9-2.1-2.8-3.2c-0.4-0.5-0.8-1.1-1.1-1.7
		c-0.5-1.1-0.3-1.9,0.8-2.4c1.2-0.5,2.5-0.8,3.8-1.2c0.8-0.2,1.6-0.3,2.3-0.5c0.4-0.1,0.9-0.5,1.2-0.8c0.7-1,1.2-2.1,1.9-3.2
		c0.5-0.8,1.1-1.5,1.7-2.1c0.8-0.8,1.6-0.8,2.3,0c0.7,0.7,1.2,1.4,1.7,2.2c0.6,1,1.2,2,1.8,3c0.3,0.6,0.8,0.9,1.4,1
		c1.5,0.3,3.1,0.7,4.6,1.1c0.6,0.2,1.2,0.5,1.7,0.8c0.7,0.4,0.9,1,0.5,1.7c-0.3,0.7-0.7,1.5-1.2,2.1c-0.8,1.1-1.8,2.1-2.7,3.1
		c-0.5,0.6-0.6,1.2-0.6,1.9c0.2,1.6,0.3,3.2,0.4,4.8c0,2.4-0.9,3.1-3.2,2.4c-1.5-0.5-3-1.2-4.5-1.8c-0.8-0.3-1.4-0.4-2.2,0
		c-1.2,0.6-2.5,1.1-3.7,1.6c-0.5,0.2-1.1,0.4-1.6,0.4c-1.3,0.2-2.1-0.3-2.3-1.6C500.9,296.7,500.8,296.2,500.8,295.7z M509.7,275.8
		c-0.4,0.5-0.6,0.9-0.8,1.2c-0.7,1.2-1.4,2.5-2.1,3.8c-0.6,1-1.4,1.6-2.5,1.8c-1.3,0.3-2.6,0.5-3.9,0.8c-0.5,0.1-1,0.3-1.6,0.4
		c0.4,0.5,0.7,0.9,1.1,1.3c0.9,1.1,1.9,2.1,2.8,3.2c0.6,0.7,0.9,1.6,0.8,2.5c-0.1,0.9-0.2,1.8-0.3,2.7c-0.1,1-0.2,2-0.3,3.1
		c0.4-0.2,0.7-0.2,1-0.4c1.2-0.5,2.4-1,3.6-1.6c1.5-0.8,2.9-0.7,4.4,0c1.2,0.6,2.5,1.2,3.8,1.8c0.8,0.3,1,0.2,0.9-0.6
		c-0.1-1.2-0.2-2.3-0.5-3.5c-0.4-2,0-3.7,1.6-5.1c0.8-0.7,1.6-1.6,2.3-2.4c0.3-0.3,0.5-0.6,0.8-1c-0.4-0.1-0.7-0.3-1-0.3
		c-1.6-0.3-3.1-0.6-4.7-1c-1-0.2-1.8-0.7-2.3-1.7c-0.7-1.2-1.4-2.5-2.1-3.7C510.4,276.8,510.1,276.4,509.7,275.8z"/>
	<path class="st10" d="M498.5,298.8c-0.2,0.4-0.4,0.7-0.6,0.9c-3.7,3.7-7.3,7.3-11,11c-0.6,0.6-1.3,0.6-1.7,0.1
		c-0.5-0.5-0.4-1.1,0.2-1.7c3.5-3.5,6.9-6.9,10.4-10.4c0.3-0.3,0.5-0.6,0.8-0.7c0.3-0.1,0.8-0.2,1.1-0.1
		C498,298,498.2,298.4,498.5,298.8z"/>
	<path class="st10" d="M534.5,309.9c0,1-0.8,1.5-1.5,1.2c-0.2-0.1-0.5-0.3-0.7-0.5c-3.6-3.6-7.1-7.1-10.7-10.7
		c-0.2-0.2-0.5-0.5-0.5-0.8c0-0.4,0.2-1,0.4-1.2c0.3-0.2,0.9-0.2,1.2,0c0.3,0.1,0.6,0.5,0.8,0.8c3.4,3.4,6.8,6.8,10.3,10.3
		C534.2,309.3,534.4,309.7,534.5,309.9z"/>
	<path class="st10" d="M485.9,261.4c0.4,0.2,0.8,0.4,1,0.6c3.7,3.7,7.3,7.3,11,11c0.5,0.5,0.5,1.2,0,1.7c-0.5,0.5-1.1,0.4-1.6-0.1
		c-3.7-3.7-7.4-7.4-11-11.1c-0.4-0.4-0.6-0.9-0.3-1.4C485.2,261.9,485.6,261.7,485.9,261.4z"/>
	<path class="st10" d="M522.2,275.2c-0.4-0.3-0.8-0.5-1-0.9c-0.1-0.3,0-0.8,0.1-1.1c0-0.2,0.3-0.3,0.4-0.4c3.5-3.5,7-7,10.5-10.5
		c0.1-0.1,0.2-0.2,0.3-0.3c0.5-0.5,1.2-0.5,1.6,0c0.4,0.4,0.4,1.1,0,1.6c-0.1,0.1-0.2,0.2-0.3,0.3c-3.5,3.6-7.1,7.1-10.7,10.7
		C523,274.7,522.6,274.9,522.2,275.2z"/>
	<path class="st10" d="M484.1,287.5c-2.6,0-5.2,0-7.8,0c-0.4,0-0.9-0.3-1.1-0.6c-0.2-0.2-0.1-0.8,0-1c0.2-0.3,0.7-0.5,1-0.5
		c5.2,0,10.4,0,15.6,0c0.8,0,1.3,0.5,1.3,1.2c0,0.6-0.5,1.1-1.3,1.1C489.3,287.5,486.7,287.5,484.1,287.5L484.1,287.5z"/>
	<path class="st10" d="M510.8,260.8c0,2.6,0,5.2,0,7.7c0,0.9-0.5,1.3-1.2,1.3c-0.7,0-1-0.5-1-1.3c0-2.4,0-4.8,0-7.2
		c0-2.7,0-5.5,0-8.2c0-0.4,0.2-0.9,0.5-1.2c0.2-0.2,0.8-0.2,1-0.1c0.3,0.2,0.6,0.7,0.6,1c0.1,2.1,0,4.1,0,6.2
		C510.8,259.7,510.8,260.2,510.8,260.8L510.8,260.8z"/>
	<path class="st10" d="M535.3,287.5c-2.6,0-5.2,0-7.7,0c-0.9,0-1.4-0.5-1.3-1.3c0.1-0.6,0.6-1,1.3-1c5.1,0,10.3,0,15.4,0.1
		c0.4,0,1,0.2,1.2,0.5c0.5,0.7-0.1,1.6-1,1.6c-2.1,0-4.2,0-6.4,0C536.3,287.5,535.8,287.5,535.3,287.5L535.3,287.5z"/>
	<path class="st10" d="M508.6,311.9c0-2.6,0-5.2,0-7.7c0-0.9,0.5-1.4,1.3-1.3c0.6,0.1,1,0.5,1,1.2c0,5.2,0,10.4-0.1,15.6
		c0,0.8-0.4,1.2-1.1,1.3c-0.7,0-1.1-0.5-1.1-1.3C508.6,317.1,508.6,314.5,508.6,311.9L508.6,311.9z"/>
	
		<linearGradient id="SVGID_54_" gradientUnits="userSpaceOnUse" x1="-49.3006" y1="937.234" x2="-48.4577" y2="937.234" gradientTransform="matrix(17.4915 0.8716 1.0695 -24.1549 506.8548 22994.9082)">
		<stop  offset="0" style="stop-color:#C390A8"/>
		<stop  offset="0.1352" style="stop-color:#BD8BA3"/>
		<stop  offset="0.3068" style="stop-color:#AE7B96"/>
		<stop  offset="0.4981" style="stop-color:#946281"/>
		<stop  offset="0.7036" style="stop-color:#703F63"/>
		<stop  offset="0.9184" style="stop-color:#42133D"/>
		<stop  offset="1" style="stop-color:#2E002D"/>
	</linearGradient>
	<path class="st48" d="M643,305.9c5.9-4.4,16,0.6,16,0.6l-0.6,16.1l-16-0.6C642.4,322.1,643,307.2,643,305.9z"/>
	
		<linearGradient id="SVGID_55_" gradientUnits="userSpaceOnUse" x1="-95.5415" y1="945.1939" x2="-94.6987" y2="945.1939" gradientTransform="matrix(21.7416 18.8971 18.8971 -21.7416 -15149.373 23009.5352)">
		<stop  offset="0" style="stop-color:#18325B"/>
		<stop  offset="0.1534" style="stop-color:#173660"/>
		<stop  offset="0.3481" style="stop-color:#144070"/>
		<stop  offset="0.565" style="stop-color:#0F528A"/>
		<stop  offset="0.7964" style="stop-color:#086AAE"/>
		<stop  offset="1" style="stop-color:#0084D4"/>
	</linearGradient>
	<polygon class="st49" points="651,673.5 632.9,672.9 633.8,647.8 651.9,648.4 	"/>
	
		<linearGradient id="SVGID_56_" gradientUnits="userSpaceOnUse" x1="-87.8688" y1="943.6886" x2="-87.026" y2="943.6886" gradientTransform="matrix(24.8098 14.638 14.638 -24.8098 -10949.0957 25356.5566)">
		<stop  offset="0" style="stop-color:#18325B"/>
		<stop  offset="0.1534" style="stop-color:#173660"/>
		<stop  offset="0.3481" style="stop-color:#144070"/>
		<stop  offset="0.565" style="stop-color:#0F528A"/>
		<stop  offset="0.7964" style="stop-color:#086AAE"/>
		<stop  offset="1" style="stop-color:#0084D4"/>
	</linearGradient>
	<polygon class="st50" points="704.1,673.8 686.2,676.5 682.5,651.6 700.4,649 	"/>
	
		<linearGradient id="SVGID_57_" gradientUnits="userSpaceOnUse" x1="-90.2971" y1="909.3484" x2="-89.4542" y2="909.3484" gradientTransform="matrix(105.0047 0 0 -105.0047 10097.5098 96038.7266)">
		<stop  offset="0" style="stop-color:#006A51"/>
		<stop  offset="1" style="stop-color:#003833"/>
	</linearGradient>
	<polygon class="st51" points="615.9,446.6 684.7,444.6 692.8,564.1 704.4,661.1 678.9,661.2 655.7,533.3 652.4,656.8 627.5,655.7 	
		"/>
	<path class="st4" d="M675,682.3l33,0.3c0,0-1.4-8.2-4.5-11.4c-2.4-2.4-5.9-0.6-13.4-1.1c-4.7-0.3-8-0.5-11.1,2.7
		C676.2,675.7,675,682.3,675,682.3z"/>
	<path class="st4" d="M652.1,681.1c0,0,1.8-17-7.9-16.2c-11.5,1-17.4,2.7-26.5,5.7c-7.5,2.4-5.8,11-5.8,11L652.1,681.1z"/>
	
		<linearGradient id="SVGID_58_" gradientUnits="userSpaceOnUse" x1="-99.9571" y1="887.5909" x2="-99.1143" y2="887.5909" gradientTransform="matrix(-68.0373 -62.7691 -62.7691 68.0373 49566.2617 -66241.3672)">
		<stop  offset="0" style="stop-color:#18325B"/>
		<stop  offset="0.1534" style="stop-color:#173660"/>
		<stop  offset="0.3481" style="stop-color:#144070"/>
		<stop  offset="0.565" style="stop-color:#0F528A"/>
		<stop  offset="0.7964" style="stop-color:#086AAE"/>
		<stop  offset="1" style="stop-color:#0084D4"/>
	</linearGradient>
	<path class="st52" d="M632.1,319.1c0,0-13.1-0.1-19.3,6.4c-6.7,7.1-7.4,23.8-8.3,29.4l-7,47c-0.5,3.1-0.2,6.3,0.8,9.3l19.4,60.7
		l-1.9-24c0-1,0.1-2,0.2-2.9l17-114.4c0.3-2.1,0.3-4.2-0.1-6.3L632.1,319.1z"/>
	
		<linearGradient id="SVGID_59_" gradientUnits="userSpaceOnUse" x1="-95.6484" y1="893.5309" x2="-94.8056" y2="893.5309" gradientTransform="matrix(-51.0832 -143.6577 -143.6577 51.0832 124157.1406 -58905.0625)">
		<stop  offset="0" style="stop-color:#18325B"/>
		<stop  offset="0.1534" style="stop-color:#173660"/>
		<stop  offset="0.3481" style="stop-color:#144070"/>
		<stop  offset="0.565" style="stop-color:#0F528A"/>
		<stop  offset="0.7964" style="stop-color:#086AAE"/>
		<stop  offset="1" style="stop-color:#0084D4"/>
	</linearGradient>
	<path class="st53" d="M675.3,444.3c0,0-34.8,8.5-51.5,5.4c-3.4-0.6-6.1-1.6-7.8-3.2c-0.2-5.8-1.7-81.3-1.7-81.3l5.3-32.2l12.6-14
		l44.6,1.4l2.4,24.1l3.6,71L675.3,444.3z"/>
	
		<linearGradient id="SVGID_60_" gradientUnits="userSpaceOnUse" x1="-94.6622" y1="939.7855" x2="-93.8194" y2="939.7855" gradientTransform="matrix(25.5016 20.6742 20.6742 -25.5016 -16392.0156 26598.1094)">
		<stop  offset="0" style="stop-color:#18325B"/>
		<stop  offset="0.1534" style="stop-color:#173660"/>
		<stop  offset="0.3481" style="stop-color:#144070"/>
		<stop  offset="0.565" style="stop-color:#0F528A"/>
		<stop  offset="0.7964" style="stop-color:#086AAE"/>
		<stop  offset="1" style="stop-color:#0084D4"/>
	</linearGradient>
	<rect x="611.3" y="680.9" class="st54" width="41.7" height="2.6"/>
	
		<linearGradient id="SVGID_61_" gradientUnits="userSpaceOnUse" x1="-94.1013" y1="947.519" x2="-93.2585" y2="947.519" gradientTransform="matrix(21.1473 17.1441 17.1441 -21.1473 -13570.2705 22327.6875)">
		<stop  offset="0" style="stop-color:#18325B"/>
		<stop  offset="0.1534" style="stop-color:#173660"/>
		<stop  offset="0.3481" style="stop-color:#144070"/>
		<stop  offset="0.565" style="stop-color:#0F528A"/>
		<stop  offset="0.7964" style="stop-color:#086AAE"/>
		<stop  offset="1" style="stop-color:#0084D4"/>
	</linearGradient>
	<rect x="674.2" y="682" class="st55" width="34.7" height="2"/>
	
		<linearGradient id="SVGID_62_" gradientUnits="userSpaceOnUse" x1="-131.2515" y1="898.2077" x2="-130.4087" y2="898.2077" gradientTransform="matrix(-30.3554 24.0597 24.0597 30.3554 -24968.0215 -23639.9355)">
		<stop  offset="0" style="stop-color:#006A51"/>
		<stop  offset="1" style="stop-color:#003833"/>
	</linearGradient>
	<path class="st56" d="M618.9,450c0,0-6-1.3,0.5,7.4c2.6,16.4,3.3,38.7,3.3,38.7l-3.9,2.5c0,0-7.7-0.1-5.6-15.8
		C615.4,466.8,618.9,450,618.9,450z"/>
	
		<linearGradient id="SVGID_63_" gradientUnits="userSpaceOnUse" x1="-91.6313" y1="915.3422" x2="-90.7885" y2="915.3422" gradientTransform="matrix(71.421 27.0895 27.0895 -71.421 -17641.0254 68131.5234)">
		<stop  offset="0" style="stop-color:#C390A8"/>
		<stop  offset="0.1352" style="stop-color:#BD8BA3"/>
		<stop  offset="0.3068" style="stop-color:#AE7B96"/>
		<stop  offset="0.4981" style="stop-color:#946281"/>
		<stop  offset="0.7036" style="stop-color:#703F63"/>
		<stop  offset="0.9184" style="stop-color:#42133D"/>
		<stop  offset="1" style="stop-color:#2E002D"/>
	</linearGradient>
	<path class="st57" d="M665.8,297.1c-4.9,12.9-17.6,20-28.3,15.9c-5.2-2-9-6.2-11-11.5c-2.1-5.7-2.2-12.5,0.3-19.1
		c4.9-12.9,21.4-21.7,32.2-17.6C669.8,268.7,670.7,284.2,665.8,297.1z"/>
	
		<linearGradient id="SVGID_64_" gradientUnits="userSpaceOnUse" x1="-1.5221" y1="1043.1168" x2="-0.6793" y2="1043.1168" gradientTransform="matrix(6.9429 1.642 1.642 -6.9429 -1066.399 7529.7051)">
		<stop  offset="0" style="stop-color:#18325B"/>
		<stop  offset="0.1534" style="stop-color:#173660"/>
		<stop  offset="0.3481" style="stop-color:#144070"/>
		<stop  offset="0.565" style="stop-color:#0F528A"/>
		<stop  offset="0.7964" style="stop-color:#086AAE"/>
		<stop  offset="1" style="stop-color:#0084D4"/>
	</linearGradient>
	<path class="st58" d="M641.5,287.1c0,0-0.3-0.8-0.9-1.5c-0.3-0.4-0.6-0.8-1.1-1.1c-0.4-0.3-0.9-0.6-1.5-0.6c-0.4,0-0.8,0.1-1.2,0.3
		c-0.4,0.2-0.7,0.6-1.1,1l0.9,0.7c0.3-0.4,0.5-0.6,0.8-0.7c0.2-0.1,0.4-0.2,0.6-0.2c0.3,0,0.5,0.1,0.8,0.3c0.4,0.3,0.9,0.9,1.2,1.3
		c0.1,0.2,0.3,0.4,0.3,0.6l0.1,0.2l0,0l0,0L641.5,287.1L641.5,287.1z"/>
	
		<linearGradient id="SVGID_65_" gradientUnits="userSpaceOnUse" x1="-58.5109" y1="959.8174" x2="-57.6681" y2="959.8174" gradientTransform="matrix(16.775 3.9672 3.9672 -16.775 -2203.4363 16614.7148)">
		<stop  offset="0" style="stop-color:#18325B"/>
		<stop  offset="0.1534" style="stop-color:#173660"/>
		<stop  offset="0.3481" style="stop-color:#144070"/>
		<stop  offset="0.565" style="stop-color:#0F528A"/>
		<stop  offset="0.7964" style="stop-color:#086AAE"/>
		<stop  offset="1" style="stop-color:#0084D4"/>
	</linearGradient>
	<path class="st59" d="M636.2,285.7l-0.5-0.2c-0.9,2.4-3.2,3.9-5.7,3.9c-0.7,0-1.4-0.1-2.2-0.4c-2.4-0.9-3.9-3.2-3.9-5.7
		c0-0.7,0.1-1.4,0.4-2.2c0.9-2.4,3.2-3.9,5.7-3.9c0.7,0,1.4,0.1,2.2,0.4c2.4,0.9,3.9,3.2,3.9,5.7c0,0.7-0.1,1.4-0.4,2.2L636.2,285.7
		l0.5,0.2c0.3-0.8,0.5-1.7,0.5-2.6c0-2.9-1.8-5.7-4.7-6.8c-0.8-0.3-1.7-0.5-2.6-0.5c-2.9,0-5.7,1.8-6.8,4.7
		c-0.3,0.8-0.5,1.7-0.5,2.6c0,2.9,1.8,5.7,4.7,6.8c0.8,0.3,1.7,0.5,2.6,0.5c2.9,0,5.7-1.8,6.8-4.7L636.2,285.7z"/>
	
		<linearGradient id="SVGID_66_" gradientUnits="userSpaceOnUse" x1="-58.7086" y1="959.842" x2="-57.8657" y2="959.842" gradientTransform="matrix(16.775 3.9672 3.9672 -16.775 -2182.9641 16622.332)">
		<stop  offset="0" style="stop-color:#18325B"/>
		<stop  offset="0.1534" style="stop-color:#173660"/>
		<stop  offset="0.3481" style="stop-color:#144070"/>
		<stop  offset="0.565" style="stop-color:#0F528A"/>
		<stop  offset="0.7964" style="stop-color:#086AAE"/>
		<stop  offset="1" style="stop-color:#0084D4"/>
	</linearGradient>
	<path class="st60" d="M653.4,292.1l-0.5-0.2c-0.9,2.4-3.2,3.9-5.7,3.9c-0.7,0-1.4-0.1-2.2-0.4c-2.4-0.9-3.9-3.2-3.9-5.7
		c0-0.7,0.1-1.4,0.4-2.2c0.9-2.4,3.2-3.9,5.7-3.9c0.7,0,1.4,0.1,2.2,0.4c2.4,0.9,3.9,3.2,3.9,5.7c0,0.2,0,0.5,0,0.7
		c-0.1,0.5-0.2,1-0.4,1.5L653.4,292.1l0.5,0.2c0.2-0.6,0.4-1.2,0.4-1.8c0-0.3,0-0.5,0-0.8c0-2.9-1.8-5.7-4.7-6.8
		c-0.8-0.3-1.7-0.5-2.6-0.5c-2.9,0-5.7,1.8-6.8,4.7c-0.3,0.8-0.5,1.7-0.5,2.6c0,2.9,1.8,5.7,4.7,6.8c0.8,0.3,1.7,0.5,2.6,0.5
		c2.9,0,5.7-1.8,6.8-4.7L653.4,292.1z"/>
	<path class="st4" d="M628,268.8c1.3,1,2.7,1.8,4.3,2.2c2.9,0.9,7.8,2.1,10.4,1.2c0.5-0.2,3.7-0.8,4.6-1c5.4-1.6,13.4-6.4,13.4-6.4
		s-3.8-4.5-9.5-5.4c-5.7-0.9-20,5.2-20,5.2l-5.6,2.3L628,268.8z"/>
	
		<linearGradient id="SVGID_67_" gradientUnits="userSpaceOnUse" x1="-40.107" y1="987.334" x2="-39.2642" y2="987.334" gradientTransform="matrix(11.434 2.7041 2.7041 -11.434 -1557.7642 11689.1504)">
		<stop  offset="0" style="stop-color:#18325B"/>
		<stop  offset="0.1534" style="stop-color:#173660"/>
		<stop  offset="0.3481" style="stop-color:#144070"/>
		<stop  offset="0.565" style="stop-color:#0F528A"/>
		<stop  offset="0.7964" style="stop-color:#086AAE"/>
		<stop  offset="1" style="stop-color:#0084D4"/>
	</linearGradient>
	<polyline class="st61" points="663.3,292.7 653.5,291.5 653.4,292.6 663.1,293.9 	"/>
	
		<linearGradient id="SVGID_68_" gradientUnits="userSpaceOnUse" x1="-68.7713" y1="928.8723" x2="-67.9285" y2="928.8723" gradientTransform="matrix(30.0927 0 0 -30.0927 2707.853 28302.0879)">
		<stop  offset="0" style="stop-color:#FF3F45"/>
		<stop  offset="1" style="stop-color:#FF7FCA"/>
	</linearGradient>
	<path class="st62" d="M643.4,319.1c-0.1,0.1-5.1,6-5.1,21c0,9.3,1.9,22.2,8.2,39.4l0.4,1l0.6-0.9c0-0.1,14.1-19.7,16.2-59.6
		l-1.2-0.1c-1.1,19.8-5.1,34.6-8.8,44.4c-1.9,4.9-3.7,8.6-5,11c-0.7,1.2-1.2,2.1-1.6,2.7c-0.2,0.3-0.3,0.5-0.4,0.7l-0.1,0.2l0,0.1
		l0.5,0.3l0.5-0.2c-6.2-17.1-8.1-29.8-8.1-39c0-7.4,1.2-12.4,2.4-15.7c0.6-1.6,1.2-2.8,1.6-3.5c0.2-0.4,0.4-0.6,0.5-0.8
		c0.1-0.1,0.1-0.1,0.1-0.2l0,0l0,0l0,0l0,0l0,0l0,0l0,0L643.4,319.1L643.4,319.1z"/>
	
		<linearGradient id="SVGID_69_" gradientUnits="userSpaceOnUse" x1="-66.4539" y1="923.0209" x2="-65.6111" y2="923.0209" gradientTransform="matrix(31.2488 -4.8592 -4.8592 -31.2488 7198.1343 28910.5312)">
		<stop  offset="0" style="stop-color:#FFFFFF"/>
		<stop  offset="0.1483" style="stop-color:#FFFCF9"/>
		<stop  offset="0.3365" style="stop-color:#FFF2EA"/>
		<stop  offset="0.5461" style="stop-color:#FFE2D0"/>
		<stop  offset="0.7714" style="stop-color:#FFCCAC"/>
		<stop  offset="1" style="stop-color:#FFB17F"/>
	</linearGradient>
	<path class="st63" d="M659.1,373.1l-24.5,5.4l5.4,24.5l24.5-5.4L659.1,373.1z M650,380.8c-0.4,1.3-1.8,2.1-3.1,1.7
		c-1.3-0.4-2.1-1.8-1.7-3.1c0.4-1.3,1.8-2.1,3.1-1.7C649.7,378.1,650.4,379.5,650,380.8z"/>
	
		<linearGradient id="SVGID_70_" gradientUnits="userSpaceOnUse" x1="100.0969" y1="1085.9857" x2="100.9398" y2="1085.9857" gradientTransform="matrix(4.5611 0 0 -4.5611 190.1335 5329.8916)">
		<stop  offset="0" style="stop-color:#FF3F45"/>
		<stop  offset="1" style="stop-color:#FF7FCA"/>
	</linearGradient>
	<polyline class="st64" points="647.7,379.4 650.5,374.3 649.5,373.8 646.7,378.8 	"/>
	
		<linearGradient id="SVGID_71_" gradientUnits="userSpaceOnUse" x1="-7.8132" y1="962.8408" x2="-6.9704" y2="962.8408" gradientTransform="matrix(11.1356 -1.7316 -1.7316 -11.1356 2399.6868 11099.8223)">
		<stop  offset="0" style="stop-color:#633FFF"/>
		<stop  offset="1" style="stop-color:#C22AFF"/>
	</linearGradient>
	<path class="st65" d="M652.7,393l-4.7,1.1l-0.3,2.3l-1.4,0.3l1.6-10.8l1.6-0.4l6.1,9L654,395L652.7,393z M648.9,387.5l-0.8,5.2
		l3.7-0.8L648.9,387.5L648.9,387.5z"/>
	
		<linearGradient id="SVGID_72_" gradientUnits="userSpaceOnUse" x1="-85.8916" y1="913.2998" x2="-85.0488" y2="913.2998" gradientTransform="matrix(69.715 0 0 -69.715 6603.834 64120.9023)">
		<stop  offset="0" style="stop-color:#006A51"/>
		<stop  offset="1" style="stop-color:#003833"/>
	</linearGradient>
	<path class="st66" d="M615.9,446.6l0.3,6.4c0,0,8.5,3.1,18,2.9c6.7-0.1,25.9-2.1,30.5-3c4.6-0.9,8.7-2.5,8.7-2.5l1.2-5.9
		c0,0-22.1,5.4-36.3,5.8C628,450.6,621.3,450.2,615.9,446.6z"/>
	<path class="st4" d="M646.3,273.7l14.4-8.9c0,0,10.5,4.5,12.7,14.6c2.2,10.1-1.6,23-1.6,23l-9.6,4.1
		C662.2,306.6,661.7,281.9,646.3,273.7z"/>
	
		<linearGradient id="SVGID_73_" gradientUnits="userSpaceOnUse" x1="-61.1816" y1="938.209" x2="-60.3388" y2="938.209" gradientTransform="matrix(24.0837 0 0 -24.0837 2105.6924 23252.9922)">
		<stop  offset="0" style="stop-color:#006A51"/>
		<stop  offset="1" style="stop-color:#003833"/>
	</linearGradient>
	<rect x="632.2" y="655.9" class="st67" width="20.3" height="3.2"/>
	
		<linearGradient id="SVGID_74_" gradientUnits="userSpaceOnUse" x1="-61.5799" y1="938.2496" x2="-60.7371" y2="938.2496" gradientTransform="matrix(24.0837 0 0 -24.0837 2166.7188 23259.2031)">
		<stop  offset="0" style="stop-color:#006A51"/>
		<stop  offset="1" style="stop-color:#003833"/>
	</linearGradient>
	<rect x="683.6" y="661.1" class="st68" width="20.3" height="3.2"/>
	
		<linearGradient id="SVGID_75_" gradientUnits="userSpaceOnUse" x1="-135.53" y1="867.4932" x2="-134.6871" y2="867.4932" gradientTransform="matrix(-25.4458 0.6716 0.6716 25.4458 -3378.8364 -21427.3633)">
		<stop  offset="0" style="stop-color:#006A51"/>
		<stop  offset="1" style="stop-color:#003833"/>
	</linearGradient>
	<polygon class="st69" points="634.2,455.9 640.5,656 652.5,655.9 655.7,533.3 641,456.4 	"/>
	
		<linearGradient id="SVGID_76_" gradientUnits="userSpaceOnUse" x1="-114.6649" y1="886.0251" x2="-113.8221" y2="886.0251" gradientTransform="matrix(-57.8353 0.6926 0.6926 57.8353 -6531.624 -50609.6133)">
		<stop  offset="0" style="stop-color:#006A51"/>
		<stop  offset="1" style="stop-color:#003833"/>
	</linearGradient>
	<polygon class="st70" points="672,498.1 693.1,660.4 704.7,661.3 683.6,448.1 656,453.9 	"/>
	
		<linearGradient id="SVGID_77_" gradientUnits="userSpaceOnUse" x1="-116.1866" y1="845.0698" x2="-115.3438" y2="845.0698" gradientTransform="matrix(-18.6044 -10.3889 -10.3889 18.6044 7303.6445 -16454.6133)">
		<stop  offset="0" style="stop-color:#C390A8"/>
		<stop  offset="0.1352" style="stop-color:#BD8BA3"/>
		<stop  offset="0.3068" style="stop-color:#AE7B96"/>
		<stop  offset="0.4981" style="stop-color:#946281"/>
		<stop  offset="0.7036" style="stop-color:#703F63"/>
		<stop  offset="0.9184" style="stop-color:#42133D"/>
		<stop  offset="1" style="stop-color:#2E002D"/>
	</linearGradient>
	<path class="st71" d="M671.1,459.7l-8.3,7.7c0,0,7.9,9.8,12.2,9.8c4.3,0,3.6-2.2,3.6-2.2l4.1-11.9L671.1,459.7z"/>
	
		<linearGradient id="SVGID_78_" gradientUnits="userSpaceOnUse" x1="-133.9612" y1="904.2505" x2="-133.1184" y2="904.2505" gradientTransform="matrix(-23.3371 26.8141 26.8141 23.3371 -26699.1113 -17038.248)">
		<stop  offset="0" style="stop-color:#006A51"/>
		<stop  offset="1" style="stop-color:#003833"/>
	</linearGradient>
	<path class="st72" d="M656,453.9c0,0,1,5.7,7.3,13.3c0.5,0.6,1.1,1,1.8,1.4c7.7,5.1,18.2,6.1,18.2,6.1l1.2,24.1
		c0,0-26.8,3-26.8-12.8C657.6,468.6,656.1,455.4,656,453.9z"/>
	
		<linearGradient id="SVGID_79_" gradientUnits="userSpaceOnUse" x1="-103.0621" y1="887.8185" x2="-102.2192" y2="887.8185" gradientTransform="matrix(-78.0887 -43.6057 -43.6057 78.0887 31399.0469 -73400.7344)">
		<stop  offset="0" style="stop-color:#18325B"/>
		<stop  offset="0.1534" style="stop-color:#173660"/>
		<stop  offset="0.3481" style="stop-color:#144070"/>
		<stop  offset="0.565" style="stop-color:#0F528A"/>
		<stop  offset="0.7964" style="stop-color:#086AAE"/>
		<stop  offset="1" style="stop-color:#0084D4"/>
	</linearGradient>
	<path class="st73" d="M676.3,320.5l2.4,0c1.6,0,3.2,0.4,4.7,1.1c10.4,5.2,12.5,17.1,12.7,19.6l6.6,59.4c0.7,7.3-0.6,14.7-3.7,21.3
		l-16.5,41.2l-11.9-3.4l11.9-44.1L676.3,320.5z"/>
	
		<linearGradient id="SVGID_80_" gradientUnits="userSpaceOnUse" x1="-58.7145" y1="939.0092" x2="-57.8717" y2="939.0092" gradientTransform="matrix(23.024 0 0 -23.024 1894.3771 22164.5254)">
		<stop  offset="0" style="stop-color:#C390A8"/>
		<stop  offset="0.2176" style="stop-color:#BD8BA3"/>
		<stop  offset="0.4935" style="stop-color:#AE7F94"/>
		<stop  offset="0.7997" style="stop-color:#94697C"/>
		<stop  offset="1" style="stop-color:#7F5869"/>
	</linearGradient>
	<path class="st74" d="M547.2,487.9l-0.1,87.4c0,0-3,10.2-4,14.4c-0.6,2.2-0.6,1.8-0.5,2.5l2.6,5.5c1.6,2.4,3.6,3.4,5.4,3.9
		c1,0.2,1.9-0.4,2.1-1.4l3.4-25.6l5.8-82.8L547.2,487.9z"/>
	
		<ellipse transform="matrix(0.9925 -0.1226 0.1226 0.9925 -35.8841 76.3723)" class="st4" cx="602.4" cy="329.7" rx="15.2" ry="14.8"/>
	
		<linearGradient id="SVGID_81_" gradientUnits="userSpaceOnUse" x1="112.3269" y1="1102.3861" x2="113.1698" y2="1102.3861" gradientTransform="matrix(4.3803 0 0 -4.3803 60.4804 5411.1494)">
		<stop  offset="0" style="stop-color:#C390A8"/>
		<stop  offset="0.2176" style="stop-color:#BD8BA3"/>
		<stop  offset="0.4935" style="stop-color:#AE7F94"/>
		<stop  offset="0.7997" style="stop-color:#94697C"/>
		<stop  offset="1" style="stop-color:#7F5869"/>
	</linearGradient>
	<path class="st75" d="M554.5,590.7L554.5,590.7c-0.8,0-1.5-0.7-1.5-1.5l-0.5-10.7c0,0,0.1-4.9,3.6-4.3c0.2,0.7-0.1,15.1-0.1,15.1
		C556.1,590,555.4,590.7,554.5,590.7z"/>
	
		<linearGradient id="SVGID_82_" gradientUnits="userSpaceOnUse" x1="-97.3221" y1="911.2704" x2="-96.4793" y2="911.2704" gradientTransform="matrix(94.8115 71.7854 72.7237 -94.9489 -56385.5938 93945.8281)">
		<stop  offset="0" style="stop-color:#C390A8"/>
		<stop  offset="0.2176" style="stop-color:#BD8BA3"/>
		<stop  offset="0.4935" style="stop-color:#AE7F94"/>
		<stop  offset="0.7997" style="stop-color:#94697C"/>
		<stop  offset="1" style="stop-color:#7F5869"/>
	</linearGradient>
	<path class="st76" d="M636.9,481l26.1,15c3.9,2.2,8.9,0.3,10.2-4l20.5-55.3l12.9-5.4c1.9-0.8,3.3-2.5,3.8-4.5l2-7.6
		c0.4-1.8,1.4-3.3-0.4-4.5c-0.3-0.2-1.9-0.4-3.2,0.7l-8.3,7.1l-9.3,2.4c-1.7,0.4-3.1,1.5-4,2.9l-28.1,43.9l-9.5-6.9L636.9,481z"/>
	
		<linearGradient id="SVGID_83_" gradientUnits="userSpaceOnUse" x1="-70.2957" y1="928.3594" x2="-69.4529" y2="928.3594" gradientTransform="matrix(31.5783 0 0 -31.5783 2875.4858 29801.0312)">
		<stop  offset="0" style="stop-color:#FF3F45"/>
		<stop  offset="1" style="stop-color:#FF7FCA"/>
	</linearGradient>
	<path class="st77" d="M655.7,454.6l17.3-6.1l9.3,30.4c0,0-7.9,42.5-15.4,42.5C659.4,521.4,655.7,454.6,655.7,454.6z"/>
	
		<linearGradient id="SVGID_84_" gradientUnits="userSpaceOnUse" x1="-136.1895" y1="841.7374" x2="-135.3467" y2="841.7374" gradientTransform="matrix(-17.2065 -4.6436 -4.6436 17.2065 2174.5881 -14721.7197)">
		<stop  offset="0" style="stop-color:#C390A8"/>
		<stop  offset="0.2176" style="stop-color:#BD8BA3"/>
		<stop  offset="0.4935" style="stop-color:#AE7F94"/>
		<stop  offset="0.7997" style="stop-color:#94697C"/>
		<stop  offset="1" style="stop-color:#7F5869"/>
	</linearGradient>
	<path class="st78" d="M616.2,401.6c-7.4,3.2-19.6-2.4-19.6-2.4l1.8-14.2l19.6,2.4C617.9,387.4,616.3,400.5,616.2,401.6z"/>
	
		<linearGradient id="SVGID_85_" gradientUnits="userSpaceOnUse" x1="-102.1822" y1="904.2064" x2="-101.3394" y2="904.2064" gradientTransform="matrix(-5.5969 281.7134 281.7134 5.5969 -254721.8125 24288.3652)">
		<stop  offset="0" style="stop-color:#C390A8"/>
		<stop  offset="0.2176" style="stop-color:#BD8BA3"/>
		<stop  offset="0.4935" style="stop-color:#AE7F94"/>
		<stop  offset="0.7997" style="stop-color:#94697C"/>
		<stop  offset="1" style="stop-color:#7F5869"/>
	</linearGradient>
	<polygon class="st79" points="567.3,588.9 570.8,717.5 581.2,716.2 585.9,592 	"/>
	
		<linearGradient id="SVGID_86_" gradientUnits="userSpaceOnUse" x1="-102.1978" y1="904.1905" x2="-101.355" y2="904.1905" gradientTransform="matrix(-5.5705 280.3835 280.3835 5.5705 -253465.5781 24182.582)">
		<stop  offset="0" style="stop-color:#C390A8"/>
		<stop  offset="0.2176" style="stop-color:#BD8BA3"/>
		<stop  offset="0.4935" style="stop-color:#AE7F94"/>
		<stop  offset="0.7997" style="stop-color:#94697C"/>
		<stop  offset="1" style="stop-color:#7F5869"/>
	</linearGradient>
	<polygon class="st80" points="613.6,590.5 617.3,718.4 628.4,718.7 633,594.5 	"/>
	
		<linearGradient id="SVGID_87_" gradientUnits="userSpaceOnUse" x1="-104.5506" y1="896.5112" x2="-103.7078" y2="896.5112" gradientTransform="matrix(-175.1739 14.577 14.577 175.1739 -30729.7559 -155018.7812)">
		<stop  offset="0" style="stop-color:#4F4CD3"/>
		<stop  offset="1" style="stop-color:#91F9DE"/>
	</linearGradient>
	<polygon class="st81" points="568.5,418.8 554.1,592.7 640.6,594.3 633.4,416.4 	"/>
	
		<linearGradient id="SVGID_88_" gradientUnits="userSpaceOnUse" x1="-107.6061" y1="909.4115" x2="-106.7633" y2="909.4115" gradientTransform="matrix(-2.1123 106.3191 106.3191 2.1123 -96291.8906 10182.9717)">
		<stop  offset="0" style="stop-color:#FFFFFF"/>
		<stop  offset="0.1483" style="stop-color:#FFFCF9"/>
		<stop  offset="0.3365" style="stop-color:#FFF2EA"/>
		<stop  offset="0.5461" style="stop-color:#FFE2D0"/>
		<stop  offset="0.7714" style="stop-color:#FFCCAC"/>
		<stop  offset="1" style="stop-color:#FFB17F"/>
	</linearGradient>
	<polygon class="st82" points="628.3,721.8 617.2,721.4 615.9,673 630.2,673.3 	"/>
	
		<linearGradient id="SVGID_89_" gradientUnits="userSpaceOnUse" x1="-131.6553" y1="932.6042" x2="-130.8125" y2="932.6042" gradientTransform="matrix(-0.562 28.2885 28.2885 0.562 -25832.1914 3910.5977)">
		<stop  offset="0" style="stop-color:#FF3F45"/>
		<stop  offset="1" style="stop-color:#FF7FCA"/>
	</linearGradient>
	<path class="st83" d="M610,725.7l26.8-0.5l-6.5-8.7c-1.6-2.2-4.2-3.5-7-3.5l-1.3,0c-2.5,0-4.8,1.3-6.1,3.4L610,725.7z"/>
	
		<linearGradient id="SVGID_90_" gradientUnits="userSpaceOnUse" x1="-244.8295" y1="1041.7476" x2="-243.9867" y2="1041.7476" gradientTransform="matrix(-0.1262 6.3519 6.3519 0.1262 -6024.4219 2147.6379)">
		<stop  offset="0" style="stop-color:#157FFF"/>
		<stop  offset="1" style="stop-color:#001B3F"/>
	</linearGradient>
	<path class="st84" d="M636.6,727.2h-26.2c0,0-1.6-1.1,0-2.4c1.5-0.2,25.4,0,26.2,0C638.2,725.9,636.6,727.2,636.6,727.2z"/>
	
		<linearGradient id="SVGID_91_" gradientUnits="userSpaceOnUse" x1="-379.1108" y1="1174.0436" x2="-378.268" y2="1174.0436" gradientTransform="matrix(-6.507120e-02 3.2753 3.2753 6.507120e-02 -3246.9358 1841.7307)">
		<stop  offset="0" style="stop-color:#FF3F45"/>
		<stop  offset="1" style="stop-color:#FF7FCA"/>
	</linearGradient>
	<polygon class="st85" points="630,678.1 616,678.1 616,676.9 630,676.9 	"/>
	
		<linearGradient id="SVGID_92_" gradientUnits="userSpaceOnUse" x1="-382.7844" y1="1177.4244" x2="-381.9416" y2="1177.4244" gradientTransform="matrix(-6.427461e-02 3.2352 3.2352 6.427461e-02 -3210.7507 1842.64)">
		<stop  offset="0" style="stop-color:#157FFF"/>
		<stop  offset="1" style="stop-color:#001B3F"/>
	</linearGradient>
	<polygon class="st86" points="629.9,681.6 616.1,681.6 616.1,680.4 629.9,680.4 	"/>
	
		<ellipse transform="matrix(0.9925 -0.1226 0.1226 0.9925 -39.8839 76.9648)" class="st4" cx="605.3" cy="362.5" rx="25.4" ry="28.5"/>
	
		<linearGradient id="SVGID_93_" gradientUnits="userSpaceOnUse" x1="130.8027" y1="1129.0255" x2="131.6456" y2="1129.0255" gradientTransform="matrix(3.9724 0 0 -3.9724 101.5025 5194.3882)">
		<stop  offset="0" style="stop-color:#18325B"/>
		<stop  offset="0.1534" style="stop-color:#173660"/>
		<stop  offset="0.3481" style="stop-color:#144070"/>
		<stop  offset="0.565" style="stop-color:#0F528A"/>
		<stop  offset="0.7964" style="stop-color:#086AAE"/>
		<stop  offset="1" style="stop-color:#0084D4"/>
	</linearGradient>
	<rect x="621.1" y="705.7" class="st87" width="3.3" height="7.4"/>
	
		<linearGradient id="SVGID_94_" gradientUnits="userSpaceOnUse" x1="-98.886" y1="897.5756" x2="-98.0432" y2="897.5756" gradientTransform="matrix(-247.2041 -272.9846 -272.9846 247.2041 221233.9531 -248320.375)">
		<stop  offset="0" style="stop-color:#FF3F45"/>
		<stop  offset="1" style="stop-color:#FF7FCA"/>
	</linearGradient>
	<path class="st88" d="M560,414.4c-30.4,41.7-28.3,145.5-28.3,145.5s105.1,10.3,131.7-27.1c17.5-24.6,12.6-59.8-7.5-106.9
		c-2.7-6.3-6.9-11.9-12.2-16.3C601.1,374.2,565.3,409.8,560,414.4z"/>
	
		<linearGradient id="SVGID_95_" gradientUnits="userSpaceOnUse" x1="-102.169" y1="997.6655" x2="-101.3262" y2="997.6655" gradientTransform="matrix(10.6762 11.4752 9.6532 -8.4379 -7845.916 10011.5723)">
		<stop  offset="0" style="stop-color:#C390A8"/>
		<stop  offset="0.2176" style="stop-color:#BD8BA3"/>
		<stop  offset="0.4935" style="stop-color:#AE7F94"/>
		<stop  offset="0.7997" style="stop-color:#94697C"/>
		<stop  offset="1" style="stop-color:#7F5869"/>
	</linearGradient>
	<path class="st89" d="M703.1,418.6L703.1,418.6c0.7,0.7,0.9,1.8,0.3,2.4l-6.9,8.2c0,0-3.4,3.5-6.2,0.1c0.3-0.6,10.4-10.9,10.4-10.9
		C701.3,417.8,702.3,417.8,703.1,418.6z"/>
	
		<linearGradient id="SVGID_96_" gradientUnits="userSpaceOnUse" x1="-107.8278" y1="909.72" x2="-106.985" y2="909.72" gradientTransform="matrix(-2.0576 103.5651 103.5651 2.0576 -93860.9375 9953.8164)">
		<stop  offset="0" style="stop-color:#FFFFFF"/>
		<stop  offset="0.1483" style="stop-color:#FFFCF9"/>
		<stop  offset="0.3365" style="stop-color:#FFF2EA"/>
		<stop  offset="0.5461" style="stop-color:#FFE2D0"/>
		<stop  offset="0.7714" style="stop-color:#FFCCAC"/>
		<stop  offset="1" style="stop-color:#FFB17F"/>
	</linearGradient>
	<polygon class="st90" points="581.2,715.4 570.8,714.9 569.1,667.9 582.9,668.1 	"/>
	
		<linearGradient id="SVGID_97_" gradientUnits="userSpaceOnUse" x1="-388.3239" y1="1185.96" x2="-387.4811" y2="1185.96" gradientTransform="matrix(-6.296213e-02 3.1691 3.1691 6.296213e-02 -3206.8618 1828.5868)">
		<stop  offset="0" style="stop-color:#FF3F45"/>
		<stop  offset="1" style="stop-color:#FF7FCA"/>
	</linearGradient>
	<rect x="569.2" y="673" class="st91" width="13.6" height="1.2"/>
	
		<linearGradient id="SVGID_98_" gradientUnits="userSpaceOnUse" x1="-389.6496" y1="1187.0594" x2="-388.8068" y2="1187.0594" gradientTransform="matrix(-6.271943e-02 3.1569 3.1569 6.271943e-02 -3195.8508 1831.7389)">
		<stop  offset="0" style="stop-color:#157FFF"/>
		<stop  offset="1" style="stop-color:#001B3F"/>
	</linearGradient>
	<rect x="569.4" y="676.5" class="st92" width="13.3" height="1.2"/>
	
		<linearGradient id="SVGID_99_" gradientUnits="userSpaceOnUse" x1="-130.4279" y1="931.7097" x2="-129.5851" y2="931.7097" gradientTransform="matrix(-0.584 29.3947 29.3947 0.584 -26886.2168 3999.4954)">
		<stop  offset="0" style="stop-color:#FF3F45"/>
		<stop  offset="1" style="stop-color:#FF7FCA"/>
	</linearGradient>
	<path class="st93" d="M563,725.6l27.9-0.5l-6.8-9c-1.7-2.3-4.4-3.6-7.3-3.6l-1.3,0c-2.6,0-5,1.3-6.3,3.5L563,725.6z"/>
	
		<linearGradient id="SVGID_100_" gradientUnits="userSpaceOnUse" x1="-239.3304" y1="1037.7693" x2="-238.4875" y2="1037.7693" gradientTransform="matrix(-0.1311 6.6003 6.6003 0.1311 -6304.0654 2166.2168)">
		<stop  offset="0" style="stop-color:#157FFF"/>
		<stop  offset="1" style="stop-color:#001B3F"/>
	</linearGradient>
	<path class="st94" d="M590.5,726h-27.2c0,0-1.7-1.2,0-2.5c1.5-0.2,26.4,0,27.2,0C592.1,724.7,590.5,726,590.5,726z"/>
	
		<linearGradient id="SVGID_101_" gradientUnits="userSpaceOnUse" x1="132.9835" y1="1128.9955" x2="133.8262" y2="1128.9955" gradientTransform="matrix(3.9724 0 0 -3.9724 46.3911 5193.6284)">
		<stop  offset="0" style="stop-color:#18325B"/>
		<stop  offset="0.1534" style="stop-color:#173660"/>
		<stop  offset="0.3481" style="stop-color:#144070"/>
		<stop  offset="0.565" style="stop-color:#0F528A"/>
		<stop  offset="0.7964" style="stop-color:#086AAE"/>
		<stop  offset="1" style="stop-color:#0084D4"/>
	</linearGradient>
	<rect x="574.7" y="705.1" class="st95" width="3.3" height="7.4"/>
</g>
</svg>
