<?xml version="1.0" encoding="utf-8"?>
<!-- Generator: Adobe Illustrator 19.2.0, SVG Export Plug-In . SVG Version: 6.00 Build 0)  -->
<svg version="1.1" id="Layer_1" xmlns="http://www.w3.org/2000/svg" xmlns:xlink="http://www.w3.org/1999/xlink" x="0px" y="0px"
	 viewBox="0 0 284.2 242.4" style="enable-background:new 0 0 284.2 242.4;" xml:space="preserve">
<style type="text/css">
	.st0{fill:#FDFBF6;}
	.st1{fill:url(#SVGID_1_);}
	.st2{opacity:0.48;fill:url(#SVGID_2_);enable-background:new    ;}
	.st3{fill:url(#SVGID_3_);}
	.st4{fill:url(#SVGID_4_);}
	.st5{opacity:0.31;fill:url(#SVGID_5_);}
</style>
<title>mobile</title>
<path class="st0" d="M79.8,37.5l-74,31.1c0,0-3.1,2.6-3.8,4.5s-1.4,3.8-1,5.4c0.6,3.5,2.8,6.6,5.9,8.4
	c4.6,2.7,163.1,92.5,163.1,92.5c4.4,2.4,9.2,3.9,14.1,4.3c5.8,0.5,11.7,0.5,17.5-0.1c3.7-0.4,7.3-1.3,10.8-2.7
	c5.1-2.1,61.3-25.6,61.3-25.6c2.4-0.8,4.5-2.1,6.4-3.7c3.1-2.8,3.5-4.2,3.8-5.6s0.7-7.8-4.8-10.7C275.9,133.6,179,77.8,179,77.8
	l-62.6-35.5c-3.3-1.5-6.7-2.7-10.1-3.8C90.2,33.7,79.8,37.5,79.8,37.5z"/>
<linearGradient id="SVGID_1_" gradientUnits="userSpaceOnUse" x1="44.8526" y1="128.1655" x2="290.8112" y2="128.1655" gradientTransform="matrix(0.996 8.906814e-02 8.906814e-02 -0.996 -45.4156 216.1468)">
	<stop  offset="0" style="stop-color:#B9DCFF"/>
	<stop  offset="0.18" style="stop-color:#B6DBFE"/>
	<stop  offset="0.33" style="stop-color:#ACD9FA"/>
	<stop  offset="0.47" style="stop-color:#9AD6F4"/>
	<stop  offset="0.6" style="stop-color:#82D1EC"/>
	<stop  offset="0.72" style="stop-color:#63CBE1"/>
	<stop  offset="0.85" style="stop-color:#3DC3D4"/>
	<stop  offset="0.96" style="stop-color:#10BAC5"/>
	<stop  offset="1" style="stop-color:#00B7BF"/>
</linearGradient>
<polygon class="st1" points="11.8,79.6 97.9,43.2 254.2,130.3 163,163.2 "/>
<linearGradient id="SVGID_2_" gradientUnits="userSpaceOnUse" x1="248.6763" y1="83.7746" x2="276.7363" y2="83.7746" gradientTransform="matrix(0.996 8.906814e-02 8.906814e-02 -0.996 -45.3994 216.1455)">
	<stop  offset="0" style="stop-color:#8C8C8C"/>
	<stop  offset="0.96" style="stop-color:#FFFFFF"/>
	<stop  offset="1" style="stop-color:#FFFFFF"/>
</linearGradient>
<path class="st2" d="M209.8,154.9c0.2-2.7,6.7-4.4,14.4-3.7c7.7,0.7,13.8,3.5,13.5,6.2c-0.2,2.7-6.7,4.4-14.4,3.7
	C215.6,160.4,209.5,157.6,209.8,154.9z"/>
<linearGradient id="SVGID_3_" gradientUnits="userSpaceOnUse" x1="33.7402" y1="90.8467" x2="322.2029" y2="90.8467" gradientTransform="matrix(0.996 8.906814e-02 8.906814e-02 -0.996 -45.4156 216.1468)">
	<stop  offset="0" style="stop-color:#4F4CD3"/>
	<stop  offset="1" style="stop-color:#91F9DE"/>
</linearGradient>
<path class="st3" d="M283.3,157.5c-0.7,2.7-2.4,5-4.7,6.5c-3.9,2.7-65.9,28.1-65.9,28.1s-10.4,3.8-16.6,4.8c-10,1.7-21.5-3.1-23.9-4
	S38,118.3,38,118.3L4,97.5c0,0-3.8-2.4-4-5.8c0-3.2,0.1-6.4,0.5-9.5l0.4-4.3c0.1,1.3,0.4,2.5,0.9,3.7c0.9,2,2.5,3.8,4.4,4.9
	c2.7,1.6,164.1,93.3,164.1,93.3s16.8,6.8,31.4,2.8c3.1-0.8,72.3-26.9,72.3-26.9c2.4-0.7,4.6-2,6.4-3.7c2.5-2.6,3.6-3.1,3.7-4.4
	S283.3,157.5,283.3,157.5z"/>
<linearGradient id="SVGID_4_" gradientUnits="userSpaceOnUse" x1="111.85" y1="150.7101" x2="222.628" y2="150.7101" gradientTransform="matrix(1 0 0 -1 -4 198.27)">
	<stop  offset="0" style="stop-color:#FF3F45"/>
	<stop  offset="1" style="stop-color:#FF7FCA"/>
</linearGradient>
<path class="st4" d="M107.8,94.9c4.3-7,8.3-13.2,12-19.5c0.7-1.4,0.8-3.1,0.2-4.5c-15.9-25.3-3.1-56.2,25.4-67.2
	C171-6,200.9,4,213.2,26.5c12.7,23.3,2.4,52-23.5,63.1c-7.4,3.1-15.3,4.9-23.4,5.2C147.2,95.4,128,94.9,107.8,94.9z M165.9,52.7
	c3.1-0.4,5.1-2,5-5.3s-2-5.1-5.1-5.1c-2.6-0.2-4.9,1.8-5.1,4.4c0,0.3,0,0.5,0,0.8C160.8,50.7,162.8,52.3,165.9,52.7L165.9,52.7z
	 M144.6,52.7c3.3-0.3,5.3-2.1,5.3-5.2c0.2-2.6-1.7-4.9-4.3-5.2c-0.3,0-0.6,0-0.9,0c-3,0-4.8,1.9-4.9,4.9
	C139.6,50.5,141.5,52.2,144.6,52.7L144.6,52.7z M187,42.3c-3.2,0.4-5.2,2.2-5.1,5.3s2,5.1,5.3,5c3-0.1,4.8-2,4.8-5
	C192.1,44.3,190.1,42.6,187,42.3z"/>
<radialGradient id="SVGID_5_" cx="157.126" cy="413.8205" r="81.0903" gradientTransform="matrix(1.0745 0 0 0.7179 -18.9091 -65.1648)" gradientUnits="userSpaceOnUse">
	<stop  offset="0" style="stop-color:#1A1800;stop-opacity:0.5"/>
	<stop  offset="1" style="stop-color:#00001F;stop-opacity:0.1"/>
</radialGradient>
<ellipse class="st5" cx="149.9" cy="231.9" rx="123" ry="5.1"/>
</svg>
