<?xml version="1.0" encoding="utf-8"?>
<!-- Generator: Adobe Illustrator 19.2.0, SVG Export Plug-In . SVG Version: 6.00 Build 0)  -->
<svg version="1.1" id="Layer_1" xmlns="http://www.w3.org/2000/svg" xmlns:xlink="http://www.w3.org/1999/xlink" x="0px" y="0px"
	 viewBox="0 0 226.7 246" style="enable-background:new 0 0 226.7 246;" xml:space="preserve">
<style type="text/css">
	.st0{fill:url(#SVGID_1_);}
	.st1{fill:url(#SVGID_2_);}
	.st2{fill:#FFFFFF;}
	.st3{fill:url(#SVGID_3_);}
	.st4{fill:url(#SVGID_4_);}
	.st5{opacity:0.31;fill:url(#SVGID_5_);}
</style>
<title>notification</title>
<linearGradient id="SVGID_1_" gradientUnits="userSpaceOnUse" x1="37.5764" y1="660.1435" x2="115.9164" y2="630.6535" gradientTransform="matrix(0.93 2.000000e-02 1.000000e-02 -1.08 13.23 862.16)">
	<stop  offset="0" style="stop-color:#FF3F45"/>
	<stop  offset="1" style="stop-color:#FF7FCA"/>
</linearGradient>
<polygon class="st0" points="79.4,199 80,123.9 121.6,172 "/>
<linearGradient id="SVGID_2_" gradientUnits="userSpaceOnUse" x1="35.1303" y1="777.4958" x2="252.6303" y2="695.6258" gradientTransform="matrix(0.86 0.4 2.000000e-02 -1.15 5.46 903.91)">
	<stop  offset="0" style="stop-color:#FF3F45"/>
	<stop  offset="1" style="stop-color:#FF7FCA"/>
</linearGradient>
<path class="st1" d="M208.3,176l-111.7-1.7c-9.6-0.1-17.3-8-17.2-17.6l0.8-68.9c0.1-9.6,7.9-17.2,17.5-17.1c0,0,0.1,0,0.1,0
	l111.7,1.7c9.6,0.1,17.3,8.1,17.2,17.7l-0.8,68.9C225.8,168.5,217.9,176.1,208.3,176C208.3,176,208.3,176,208.3,176z"/>
<path class="st2" d="M128.4,141.5l-0.1,6l46.9,0.7l0.2-6c0,0-2.8,0.1-4.1-1.5s-1.8-2.5-1.8-5.9c0-1.6,0.1-7.7,0.1-13.7
	c0.1-8.1-4.4-15.5-11.6-19.2l0,0c0,0,0.4-5-2.9-6.5c-1.3-0.5-2.7-0.6-4-0.4c-4.7,1-4.4,6.7-4.4,6.7s-10.7,4.2-11.8,14.1
	c-0.4,3.2-1,16.6-1,16.6c-0.1,1.7-0.4,3.5-0.8,5.2C132.7,140.2,129.1,141,128.4,141.5z"/>
<path class="st2" d="M156.6,149.4c-0.1,2.8-2.3,4.9-5.1,4.9c-2.8-0.1-4.9-2.3-4.9-5.1c0.1-2.7,2.3-4.9,5-4.9c2.8,0,5,2.2,5,5
	C156.6,149.3,156.6,149.3,156.6,149.4z"/>
<linearGradient id="SVGID_3_" gradientUnits="userSpaceOnUse" x1="7022.7051" y1="871.5499" x2="7088.0552" y2="846.9499" gradientTransform="matrix(-0.91 2.000000e-02 -1.000000e-02 -1.08 6550.8599 862.16)">
	<stop  offset="0" style="stop-color:#FFE845"/>
	<stop  offset="1" style="stop-color:#FF7F00"/>
</linearGradient>
<polygon class="st3" points="121.1,107.1 120.6,44.4 86.4,84.6 "/>
<linearGradient id="SVGID_4_" gradientUnits="userSpaceOnUse" x1="7450.8745" y1="3420.7878" x2="7632.3345" y2="3352.4778" gradientTransform="matrix(-0.85 0.4 -2.000000e-02 -1.15 6556.8599 903.91)">
	<stop  offset="0" style="stop-color:#FFE845"/>
	<stop  offset="1" style="stop-color:#FF7F00"/>
</linearGradient>
<path class="st4" d="M15.1,87.9l91.8-1.4c7.9-0.2,14.2-6.8,14.1-14.7l-0.6-57.5C120.4,6.4,113.9,0,106,0c0,0,0,0,0,0L14.2,1.4
	C6.2,1.6-0.1,8.2,0,16.1l0.6,57.5C0.7,81.5,7.1,87.9,15.1,87.9C15,87.9,15.1,87.9,15.1,87.9z"/>
<circle class="st2" cx="56.2" cy="27.5" r="11.9"/>
<path class="st2" d="M73.3,71.8H39.2V56.2c0-9.4,7.6-17,17-17l0,0c9.4,0,17,7.6,17,17l0,0L73.3,71.8z"/>
<radialGradient id="SVGID_5_" cx="120.0693" cy="411.143" r="71.4641" gradientTransform="matrix(1.0745 0 0 0.7179 -16.7474 -64.8827)" gradientUnits="userSpaceOnUse">
	<stop  offset="0" style="stop-color:#1A1800;stop-opacity:0.5"/>
	<stop  offset="1" style="stop-color:#00001F;stop-opacity:0.1"/>
</radialGradient>
<ellipse class="st5" cx="112.3" cy="230.3" rx="108.4" ry="4.5"/>
</svg>
