<svg width="29" height="20" viewBox="0 0 29 20" fill="none" xmlns="http://www.w3.org/2000/svg">
<path fill-rule="evenodd" clip-rule="evenodd" d="M28.3322 11.1249C29.0255 7.03914 26.6252 3.18593 22.9984 2.56225L8.59933 0.0860985C4.97251 -0.537573 1.43787 2.29495 0.744604 6.38081C0.051341 10.4665 2.45478 14.3014 6.07842 14.9434L15.4042 16.5959L14.2201 20L19.5536 17.2607L20.4775 17.4196C24.1045 18.0433 27.639 15.2107 28.3322 11.1249ZM8.92109 7.77737C9.14384 6.4643 8.26716 5.21802 6.96288 4.99377C5.6586 4.76953 4.42066 5.65211 4.19792 6.96518C3.97517 8.27812 4.85185 9.52439 6.15613 9.74877C7.46041 9.97302 8.69822 9.09044 8.92109 7.77737ZM24.8712 10.7537C24.6483 12.0667 23.4105 12.9493 22.1062 12.7251C20.802 12.5008 19.9253 11.2544 20.148 9.94148C20.3708 8.62841 21.6087 7.74583 22.913 7.97007C24.2173 8.19432 25.094 9.44059 24.8712 10.7537ZM16.5139 12.7593C14.2503 13.5944 12.393 13.1211 10.991 11.5146C10.8097 11.3067 10.83 10.9902 11.0364 10.8076C11.2429 10.625 11.5573 10.6455 11.7387 10.8533C12.8691 12.1487 14.2931 12.5116 16.1715 11.8186C16.4295 11.7234 16.7154 11.8568 16.8099 12.1165C16.9045 12.3763 16.772 12.6641 16.5139 12.7593Z" fill="#071334"/>
</svg>
